<?xml version="1.0" encoding="utf-8"?><svg id="2kf" image-rendering="auto" baseProfile="basic" version="1.1" x="0px" y="0px" width="1000" height="500" xmlns="http://www.w3.org/2000/svg" xmlns:xlink="http://www.w3.org/1999/xlink"><g id="Scene-1" overflow="visible"><g display="none"><g id="Symbol-41-copy" transform="matrix(.135 0 0 .135 500 125)"><animateTransform attributeName="transform" additive="replace" type="translate" repeatCount="indefinite" dur="12s" keyTimes="0;.23199;.232;.23899;.239;.23999;.24;.24199;.242;.24299;.243;.24399;.244;.24599;.246;.24699;.247;.24899;.249;.24999;.25;.25099;.251;.25299;.253;.25399;.254;.25599;.256;.25699;.257;.25799;.258;.25999;.26;.26099;.261;.26299;.263;.26399;.264;.26499;.265;.26699;.267;.26799;.268;.26899;.269;.27099;.271;.27199;.272;.27399;.274;.27499;.275;.27599;.276;.27799;.278;.27899;.279;.28099;.281;.28199;.282;.28299;.283;.28499;.285;.28599;.286;.28799;.288;.28899;.289;.28999;.29;.29199;.292;.29299;.293;.29399;.294;.29599;.296;.29699;.297;.29899;.299;.29999;.3;.30099;.301;.30299;.303;.30399;.304;.30599;.306;.30699;.307;.30799;.308;.30999;.31;.31099;.311;.31299;.313;.31399;.314;.31499;.315;.31699;.317;.31799;.318;.31899;.319;.32099;.321;.32799;.328;.35799;.358;.36099;.361;.36299;.363;.36399;.364;.36499;.365;.36699;.367;.36799;.368;.36899;.369;.37099;.371;.37199;.372;.37399;.374;.37499;.375;.37599;.376;.37799;.378;.37899;.379;.38099;.381;.38199;.382;.38299;.383;.38499;.385;.38599;.386;.38799;.388;.38899;.389;.38999;.39;.39199;.392;.39299;.393;.39399;.394;.39599;.396;.39699;.397;.39899;.399;.39999;.4;.40099;.401;.40299;.403;.40399;.404;.40599;.406;.40699;.407;.40799;.408;.40999;.41;.41099;.411;.41299;.413;.41399;.414;.41499;.415;.41699;.417;.41799;.418;.41899;.419;.42099;.421;.42199;.422;.42399;.424;.42499;.425;.42599;.426;.42799;.428;.43099;.431;.82399;.824;.82599;.826;.82799;.828;.82899;.829;.83099;.831;.83199;.832;.83299;.833;.83499;.835;.83599;.836;.83799;.838;.83899;.839;.83999;.84;.84199;.842;.84299;.843;.84399;.844;.84599;.846;.84699;.847;.84899;.849;.84999;.85;.85099;.851;.85299;.853;.85399;.854;.85599;.856;.85699;.857;.85799;.858;.85999;.86;.86099;.861;.86199;.862;.86399;.864;.86499;.865;.86699;.867;.86799;.868;.86899;.869;.87099;.871;.87199;.872;.87399;.874;.87499;.875;.87599;.876;.87799;.878;.87899;.879;.88099;.881;.88199;.882;.88299;.883;.88499;.885;.88599;.886;.88799;.888;.88899;.889;.88999;.89;.89199;.892;.89299;.893;.89399;.894;.89699;.897;.92799;.928;.92899;.929;.93099;.931;.93199;.932;.93299;.933;.93499;.935;.93599;.936;.93799;.938;.93899;.939;.93999;.94;.94199;.942;.94299;.943;.94399;.944;.94599;.946;.94699;.947;.94899;.949;.94999;.95;.95099;.951;.95299;.953;.95399;.954;.95599;.956;.95699;.957;.95799;.958;.95999;.96;.96099;.961;.96299;.963;.96399;.964;.96499;.965;.96699;.967;.96799;.968;.96899;.969;.97099;.971;.97199;.972;.97399;.974;.97499;.975;.97599;.976;.97799;.978;.97899;.979;.98099;.981;.98199;.982;.98299;.983;.98499;.985;.98599;.986;.98699;.987;.98899;.989;.98999;.99;.99199;.992;.99299;.993;.99399;.994;.99599;.996;.99699;.997;.99899;1;1" values="500,125.007;500,125.007;500.057,125.007;500.057,125.007;500.057,125.05;500.057,125.05;500.057,125.107;500.057,125.107;500.057,125.157;500.057,125.157;500.057,125.257;500.057,125.257;500.057,125.407;500.057,125.407;500.057,125.55;500.057,125.55;500.057,125.807;500.057,125.807;500.057,126.1;500.057,126.1;500.057,126.5;500.057,126.5;500.057,126.957;500.057,126.957;500.056,127.599;500.056,127.599;500.056,128.306;500.056,128.306;500.056,129.149;500.056,129.149;500.056,130.106;500.056,130.106;500.049,131.202;500.049,131.202;500.049,132.552;500.049,132.552;500.049,134.102;500.049,134.102;500.001,135.851;500.001,135.851;500.001,137.901;500.001,137.901;500.008,140.206;500.008,140.206;500.008,142.799;500.008,142.799;500.001,145.699;500.001,145.699;500.001,148.851;500.001,148.851;500.004,152.451;500.004,152.451;500.049,156.506;500.049,156.506;500.056,160.858;500.056,160.858;500.056,165.708;500.056,165.708;500.001,171.105;500.001,171.105;500.001,176.901;500.001,176.901;500.004,183.304;500.004,183.304;500.105,189.651;500.105,189.651;500.101,195.551;500.101,195.551;500.057,200.904;500.057,200.904;500.058,205.701;500.058,205.701;500.051,210.101;500.051,210.101;500.051,214.149;500.051,214.149;500.058,217.749;500.058,217.749;500.099,220.908;500.099,220.908;500.105,223.848;500.105,223.848;500.105,226.448;500.105,226.448;500.098,228.705;500.098,228.705;500.098,230.748;500.098,230.748;500.051,232.451;500.051,232.451;500.051,234.001;500.051,234.001;500.051,235.351;500.051,235.351;500.058,236.501;500.058,236.501;500.058,237.451;500.058,237.451;500.058,238.301;500.058,238.301;500.058,239.001;500.058,239.001;500.051,239.655;500.051,239.655;500.051,240.105;500.051,240.105;500.051,240.505;500.051,240.505;500.051,240.805;500.051,240.805;500.051,241.055;500.051,241.055;500.051,241.205;500.051,241.205;500.051,241.355;500.051,241.355;500.051,241.455;500.051,241.455;500.051,241.498;500.051,241.498;500.051,241.555;500.051,241.555;500.051,241.598;500.051,241.598;500.059,241.552;500.059,241.552;500.056,241.556;500.056,241.556;500.052,241.6;500.052,241.6;500.103,241.553;500.103,241.553;500.249,241.558;500.249,241.558;500.354,241.601;500.354,241.601;500.555,241.553;500.555,241.553;500.95,241.6;500.95,241.6;501.503,241.659;501.503,241.659;502.306,241.607;502.306,241.607;503.305,241.698;503.305,241.698;504.599,241.703;504.599,241.703;506.35,241.8;506.35,241.8;508.457,241.906;508.457,241.906;511.101,241.901;511.101,241.901;514.408,242.049;514.408,242.049;518.308,242.158;518.308,242.158;523.011,242.4;523.011,242.4;528.554,242.554;528.554,242.554;535.007,242.796;535.007,242.796;542.56,243.01;542.56,243.01;551.293,243.293;551.293,243.293;561.262,243.612;561.262,243.612;572.605,244.005;572.605,244.005;585.409,244.452;585.409,244.452;599.955,245.005;599.955,245.005;616.214,245.51;616.214,245.51;633.978,246.078;633.978,246.078;650.204,246.687;650.204,246.687;664.669,247.119;664.669,247.119;677.612,247.612;677.612,247.612;688.909,247;688.909,247;698.932,248.332;698.932,248.332;707.568,248.568;707.568,248.568;715.141,248.797;715.141,248.797;721.561,249.061;721.561,249.061;727.128,249.275;727.128,249.275;731.843,249.443;731.843,249.443;735.758,249.508;735.758,249.508;739.015,249.665;739.015,249.665;741.674,249.724;741.674,249.724;743.832,249.83;743.832,249.83;745.487,249.886;745.487,249.886;746.841,249.94;746.841,249.94;747.893,249.944;747.893,249.944;748.596,249.995;748.596,249.995;749.147,249.997;749.147,249.997;749.498,249.998;749.498,249.998;749.799,250.049;749.799,250.049;749.9,250.05;749.9,250.05;750.05,250;750.05,250;750.15,250.05;750.15,250.05;749.1,249.05;749.1,249.05;749,249;749,249;749,249.1;749,249.1;748.75,249;748.75,249;748.65,249.05;748.65,249.05;748.199,249.049;748.199,249.049;748.649,248.949;748.649,248.949;747.898,248.949;747.898,248.949;746.947,249.948;746.947,249.948;745.498,249.898;745.498,249.898;743.846,249.896;743.846,249.896;741.743,249.794;741.743,249.794;738.994,249.694;738.994,249.694;735.838,249.495;735.838,249.495;731.837,249.441;731.837,249.441;727.134,249.238;727.134,249.238;721.625,249.085;721.625,249.085;715.17,248.832;715.17,248.832;707.613,248.621;707.613,248.621;698.906,248.273;698.906,248.273;688.947,248.008;688.947,248.008;677.55,247.562;677.55,247.562;664.761,247.176;664.761,247.176;650.214,246.598;650.214,246.598;633.979,246.07;633.979,246.07;616.261,245.507;616.261,245.507;600.018,244.994;600.018,244.994;585.451,244.501;585.451,244.501;572.604,243.996;572.604,243.996;561.2,243.6;561.2,243.6;551.259,243.356;551.259,243.356;542.555,242;542.555,242;535.054,242.804;535.054,242.804;528.555,242.552;528.555,242.552;523.05,242.411;523.05,242.411;518.309,242.208;518.309,242.208;514.351,242.107;514.351,242.107;511.097,241.904;511.097,241.904;508.507,241.857;508.507,241.857;506.355,241.805;506.355,241.805;504.601,241.705;504.601,241.705;503.253,241.652;503.253,241.652;502.25,241.65;502.25,241.65;501.505,241.654;501.505,241.654;500.954,241.604;500.954,241.604;500.6,241.607;500.6,241.607;500.404,241.604;500.404,241.604;500.252,241.554;500.252,241.554;500.155,241.605;500.155,241.605;500.105,241.558;500.105,241.558;500.055,241.605;500.055,241.605;500.059,241.552;500.059,241.552;500.056,241.806;500.056,241.806;500.056,242.156;500.056,242.156;500.056,242.6;500.056,242.6;500.056,243.106;500.056,243.106;500.056,243.65;500.056,243.65;500.059,244.4;500.059,244.4;500.059,245.206;500.059,245.206;500.059,246.15;500.059,246.15;500.059,247.256;500.059,247.256;500.059,248.45;500.059,248.45;500.052,249.852;500.052,249.852;500.052,251.452;500.052,251.452;500.052,253.4;500.052,253.4;500.052,255.6;500.052,255.6;500.052,258.109;500.052,258.109;500.052,261.052;500.052,261.052;500.053,264.707;500.053,264.707;500.1,268.903;500.1,268.903;500.107,274.257;500.107,274.257;500.053,280.859;500.053,280.859;500.058,289.251;500.058,289.251;500.107,299.753;500.107,299.753;500.053,311.455;500.053,311.455;500.003,322.25;500.003,322.25;500.003,330.953;500.003,330.953;500.05,337.853;500.05,337.853;500.05,343.407;500.05,343.407;500,348;500,348;500.003,351.703;500.003,351.703;500.003,354.957;500.003,354.957;500.003,357.7;500.003,357.7;500.003,360.053;500.003,360.053;500.003,362.103;500.003,362.103;500.003,363.957;500.003,363.957;500.003,365.55;500.003,365.55;500.003,366.95;500.003,366.95;500.05,368.153;500.05,368.153;500.05,369.21;500.05,369.21;500.05,370.153;500.05,370.153;500.05,371.003;500.05,371.003;500.05,371.753;500.05,371.753;500.05,372.403;500.05,372.403;500.057,373.007;500.057,373.007;500.057,373.45;500.057,373.45;500.057,373.85;500.057,373.85;500.057,374.2;500.057,374.2;500.057,374.45;500.057,374.45;500.057,374.7;500.057,374.7;500.057,374.85;500.057,374.85;500.057,374.957;500.057,374.957;500.057,375.057;500.057,375.057;500,375.007;500,375.007" calcMode="discrete"/><animateTransform attributeName="transform" additive="sum" type="scale" repeatCount="indefinite" dur="12s" keyTimes="0;.36499;.365;.36699;.367;.36799;.368;.36899;.369;.37099;.371;.37199;.372;.37399;.374;.37499;.375;.37599;.376;.37799;.378;.37899;.379;.38099;.381;.38199;.382;.38299;.383;.38499;.385;.38599;.386;.38799;.388;.38899;.389;.38999;.39;.39199;.392;.39299;.393;.39399;.394;.39599;.396;.39699;.397;.39899;.399;.39999;.4;.40099;.401;.40299;.403;.40399;.404;.40599;.406;.40699;.407;.40799;.408;.40999;.41;.41099;.411;.41299;.413;.41399;.414;.41499;.415;.41699;.417;.41799;.418;.41899;.419;.42099;.421;.42199;.422;.42399;.424;.42499;.425;.42799;.428;.82799;.828;.83099;.831;.83199;.832;.83299;.833;.83499;.835;.83599;.836;.83799;.838;.83899;.839;.83999;.84;.84199;.842;.84299;.843;.84399;.844;.84599;.846;.84699;.847;.84899;.849;.84999;.85;.85099;.851;.85299;.853;.85399;.854;.85599;.856;.85699;.857;.85799;.858;.85999;.86;.86099;.861;.86199;.862;.86399;.864;.86499;.865;.86699;.867;.86799;.868;.86899;.869;.87099;.871;.87199;.872;.87399;.874;.87499;.875;.87599;.876;.87799;.878;.87899;.879;.88099;.881;.88199;.882;.88299;.883;.88499;.885;.88599;.886;.88799;.888;.88899;.889;.88999;.89;1" values=".135,.135;.135,.135;.136,.136;.136,.136;.137,.137;.137,.137;.138,.138;.138,.138;.14,.14;.14,.14;.142,.142;.142,.142;.146,.146;.146,.146;.151,.151;.151,.151;.157,.157;.157,.157;.164,.164;.164,.164;.173,.173;.173,.173;.184,.184;.184,.184;.198,.198;.198,.198;.214,.214;.214,.214;.233,.233;.233,.233;.256,.256;.256,.256;.282,.282;.282,.282;.312,.312;.312,.312;.347,.347;.347,.347;.386,.386;.386,.386;.43,.43;.43,.43;.481,.481;.481,.481;.537,.537;.537,.537;.598,.598;.598,.598;.654,.654;.654,.654;.705,.705;.705,.705;.749,.749;.749,.749;.788,.788;.788,.788;.823,.823;.823,.823;.853,.853;.853,.853;.879,.879;.879,.879;.901,.901;.901,.901;.921,.921;.921,.921;.937,.937;.937,.937;.95,.95;.95,.95;.962,.962;.962,.962;.971,.971;.971,.971;.978,.978;.978,.978;.984,.984;.984,.984;.989,.989;.989,.989;.992,.992;.992,.992;.995,.995;.995,.995;.997,.997;.997,.997;.998,.998;.998,.998;1,.999;1,.999;1,1;1,1;1,.999;1,.999;.998,.998;.998,.998;.997,.997;.997,.997;.995,.995;.995,.995;.992,.992;.992,.992;.989,.989;.989,.989;.984,.984;.984,.984;.978,.978;.978,.978;.971,.971;.971,.971;.962,.962;.962,.962;.95,.95;.95,.95;.937,.937;.937,.937;.921,.921;.921,.921;.901,.901;.901,.901;.879,.879;.879,.879;.853,.853;.853,.853;.823,.823;.823,.823;.788,.788;.788,.788;.749,.749;.749,.749;.705,.705;.705,.705;.654,.654;.654,.654;.598,.598;.598,.598;.537,.537;.537,.537;.481,.481;.481,.481;.43,.43;.43,.43;.386,.386;.386,.386;.347,.347;.347,.347;.312,.312;.312,.312;.282,.282;.282,.282;.256,.256;.256,.256;.233,.233;.233,.233;.214,.214;.214,.214;.198,.198;.198,.198;.184,.184;.184,.184;.173,.173;.173,.173;.164,.164;.164,.164;.157,.157;.157,.157;.151,.151;.151,.151;.146,.146;.146,.146;.143,.143;.143,.143;.14,.14;.14,.14;.138,.138;.138,.138;.137,.137;.137,.137;.136,.136;.136,.136;.135,.135;.135,.135" calcMode="discrete"/><animateTransform attributeName="transform" additive="sum" type="translate" repeatCount="indefinite" dur="12s" keyTimes="0;.23199;.232;.23899;.239;.23999;.24;.24599;.246;.24699;.247;.24899;.249;.25099;.251;.25299;.253;.25399;.254;.25599;.256;.25699;.257;.25799;.258;.26299;.263;.26499;.265;.26699;.267;.26799;.268;.26899;.269;.27099;.271;.27199;.272;.27399;.274;.27599;.276;.27799;.278;.27899;.279;.28099;.281;.28199;.282;.28299;.283;.28499;.285;.28599;.286;.28799;.288;.28899;.289;.28999;.29;.29199;.292;.29399;.294;.29599;.296;.29699;.297;.30099;.301;.30699;.307;.31799;.318;.31899;.319;.32099;.321;.32799;.328;.35799;.358;.36099;.361;.36299;.363;.36399;.364;.36499;.365;.36799;.368;.36899;.369;.37099;.371;.37199;.372;.37399;.374;.37499;.375;.37599;.376;.37799;.378;.37899;.379;.38099;.381;.38199;.382;.38299;.383;.38499;.385;.38599;.386;.38899;.389;.38999;.39;.39199;.392;.39299;.393;.39399;.394;.39599;.396;.39699;.397;.39899;.399;.40099;.401;.40299;.403;.40399;.404;.40599;.406;.40699;.407;.40799;.408;.40999;.41;.41099;.411;.41299;.413;.41499;.415;.41899;.419;.42099;.421;.42399;.424;.42499;.425;.42599;.426;.42799;.428;.42899;.429;.43099;.431;.82399;.824;.82499;.825;.82599;.826;.82799;.828;.82899;.829;.83099;.831;.83199;.832;.83299;.833;.83599;.836;.83799;.838;.83899;.839;.83999;.84;.84199;.842;.84299;.843;.84399;.844;.84699;.847;.84999;.85;.85099;.851;.85299;.853;.85399;.854;.85599;.856;.85699;.857;.85799;.858;.86099;.861;.86199;.862;.86399;.864;.86499;.865;.86699;.867;.86799;.868;.86899;.869;.87099;.871;.87199;.872;.87399;.874;.87499;.875;.87599;.876;.87799;.878;.87899;.879;.88099;.881;.88199;.882;.88299;.883;.88499;.885;.88599;.886;.88799;.888;.88899;.889;.88999;.89;.89199;.892;.89299;.893;.89399;.894;.89699;.897;.92799;.928;.93099;.931;.93199;.932;.93299;.933;.93499;.935;.93599;.936;.93799;.938;.93899;.939;.93999;.94;.94199;.942;.94399;.944;.94699;.947;.94899;.949;.94999;.95;.95099;.951;.95299;.953;.95399;.954;.95599;.956;.95699;.957;.95799;.958;.95999;.96;.96099;.961;.96299;.963;.96399;.964;.96499;.965;.96699;.967;.96799;.968;.96899;.969;.97099;.971;.97399;.974;.97499;.975;.97799;.978;.97899;.979;.98099;.981;.98599;.986;.98699;.987;.99599;.996;.99899;1;1" values="0,-.05;0,-.05;-.05,-.05;-.05,-.05;-.05,0;-.05,0;-.05,-.05;-.05,-.05;-.05,0;-.05,0;-.05,-.05;-.05,-.05;-.05,0;-.05,0;-.05,-.05;-.05,-.05;-1.15,-1.1;-1.15,-1.1;-1.15,-1.15;-1.15,-1.15;-1.15,-1.1;-1.15,-1.1;-1.15,-1.15;-1.15,-1.15;-1.1,-.75;-1.1,-.75;-.75,-.75;-.75,-.75;-.8,-1.15;-.8,-1.15;-.8,-1.1;-.8,-1.1;-.75,-1.1;-.75,-1.1;-.75,-.75;-.75,-.75;-.4,-.75;-.4,-.75;-1.1,-1.15;-1.1,-1.15;-1.15,-.8;-1.15,-.8;-.75,-1.15;-.75,-1.15;-.75,-.75;-.75,-.75;-.4,-.4;-.4,-.4;-1.15,-.75;-1.15,-.75;-.75,-.75;-.75,-.75;-.05,-.4;-.05,-.4;-.8,-.75;-.8,-.75;-.75,-.75;-.75,-.75;-.75,-1.1;-.75,-1.1;-.8,-1.1;-.8,-1.1;-1.1,-.8;-1.1,-.8;-1.15,-1.1;-1.15,-1.1;-1.1,-1.15;-1.1,-1.15;-1.1,-1.1;-1.1,-1.1;-.75,-.75;-.75,-.75;-.8,-.75;-.8,-.75;-.75,-1.15;-.75,-1.15;-.75,-1.1;-.75,-1.1;-.75,-1.15;-.75,-1.15;-.75,-1.1;-.75,-1.1;-1.55,-1.5;-1.55,-1.5;-1.9,-1.9;-1.9,-1.9;-1.5,-1.85;-1.5,-1.85;-1.5,-1.5;-1.5,-1.5;-1.1,-.8;-1.1,-.8;-1.5,-1.85;-1.5,-1.85;-1.45,-1.45;-1.45,-1.45;-1.45,-1.85;-1.45,-1.85;-1.8,-1.45;-1.8,-1.45;-1.75,-1.7;-1.75,-1.7;-1.65,-1.35;-1.65,-1.35;-1.6,-1.6;-1.6,-1.6;-.65,-.95;-.65,-.95;-1.45,-1.45;-1.45,-1.45;-1.4,-1.35;-1.4,-1.35;-1.3,-1.3;-1.3,-1.3;-1.45,-1.4;-1.45,-1.4;-1.3,-1.3;-1.3,-1.3;-1.2,-1.35;-1.2,-1.35;-1.1,-1.1;-1.1,-1.1;-.9,-.9;-.9,-.9;-1.05,-1.05;-1.05,-1.05;-.95,-1.05;-.95,-1.05;-1.05,-1.05;-1.05,-1.05;-1.05,-.95;-1.05,-.95;-1.05,-1.05;-1.05,-1.05;-1,-1.05;-1,-1.05;-.95,-.95;-.95,-.95;-.9,-.95;-.9,-.95;-.95,-.95;-.95,-.95;-.9,-.9;-.9,-.9;-.9,-.85;-.9,-.85;-.9,-.9;-.9,-.9;-.9,-.95;-.9,-.95;-.9,-.9;-.9,-.9;-.85,-.85;-.85,-.85;-.9,-.9;-.9,-.9;-.85,-.9;-.85,-.9;-.9,-.85;-.9,-.85;-.85,-.9;-.85,-.9;-.85,-.85;-.85,-.85;-.9,-.9;-.9,-.9;-.85,-.9;-.85,-.9;-.9,-.85;-.9,-.85;-.75,-.75;-.75,-.75;-.85,-.8;-.85,-.8;-.05,0;-.05,0;-.1,-.05;-.1,-.05;-.15,-.1;-.15,-.1;-.2,-.2;-.2,-.2;-.15,-.1;-.15,-.1;-.25,-.15;-.25,-.15;-.2,-.2;-.2,-.2;-.2,-.1;-.2,-.1;-.25,-.15;-.25,-.15;-.15,-.15;-.15,-.15;-.2,-.2;-.2,-.2;-.25,-.2;-.25,-.2;-.15,-.15;-.15,-.15;-.25,-.1;-.25,-.1;-.2,-.15;-.2,-.15;-.25,-.15;-.25,-.15;-.25,-.2;-.25,-.2;-.25,-.15;-.25,-.15;-.25,-.2;-.25,-.2;-.2,-.15;-.2,-.15;-.3,-.25;-.3,-.25;-.25,-.15;-.25,-.15;-.3,-.2;-.3,-.2;-.35,-.3;-.35,-.3;-.35,-.35;-.35,-.35;-.4,-.25;-.4,-.25;0,0;0,0;-.35,-.5;-.35,-.5;-.55,-.35;-.55,-.35;-.6,-.6;-.6,-.6;-.45,-.65;-.45,-.65;-.7,-.75;-.7,-.75;-.55,-.8;-.55,-.8;-.55,-.85;-.55,-.85;-.85,-.6;-.85,-.6;-.65,-.35;-.65,-.35;-.35,-.35;-.35,-.35;-1,-.7;-1,-.7;-1.05,-.7;-1.05,-.7;-.7,-1.05;-.7,-1.05;-.75,-1.1;-.75,-1.1;-.75,-.75;-.75,-.75;-1.1,-1.15;-1.1,-1.15;-.4,-.4;-.4,-.4;-.75,-.4;-.75,-.4;-1.15,-1.15;-1.15,-1.15;-1.15,-.8;-1.15,-.8;-1.15,-1.15;-1.15,-1.15;-1.55,-1.5;-1.55,-1.5;-1.9,-1.9;-1.9,-1.9;-1.9,-1.85;-1.9,-1.85;-1.9,-1.9;-1.9,-1.9;-1.9,-1.85;-1.9,-1.85;-1.55,-1.85;-1.55,-1.85;-1.55,-1.9;-1.55,-1.9;-1.55,-1.85;-1.55,-1.85;-1.55,-1.9;-1.55,-1.9;-1.55,-1.85;-1.55,-1.85;-1.5,-1.5;-1.5,-1.5;-1.5,-1.85;-1.5,-1.85;-1.5,-1.55;-1.5,-1.55;-1.5,-1.5;-1.5,-1.5;-1.5,-1.9;-1.5,-1.9;-1.85,-1.5;-1.85,-1.5;-1.9,-1.9;-1.9,-1.9;-1.5,-1.55;-1.5,-1.55;-.8,-.75;-.8,-.75;-1.9,-1.5;-1.9,-1.5;-1.5,-1.15;-1.5,-1.15;-1.5,-1.85;-1.5,-1.85;-1.5,-1.5;-1.5,-1.5;-1.85,-1.5;-1.85,-1.5;-1.85,-1.9;-1.85,-1.9;-1.85,-1.85;-1.85,-1.85;-1.5,-1.5;-1.5,-1.5;-1.5,-1.9;-1.5,-1.9;-1.5,-1.85;-1.5,-1.85;-1.5,-1.5;-1.5,-1.5;-1.5,-1.9;-1.5,-1.9;-1.5,-1.85;-1.5,-1.85;-1.85,-1.5;-1.85,-1.5;-1.85,-1.55;-1.85,-1.55;-1.85,-1.5;-1.85,-1.5;-1.9,-1.9;-1.9,-1.9;-1.9,-1.85;-1.9,-1.85;-1.9,-1.9;-1.9,-1.9;0,-.05;0,-.05" calcMode="discrete"/><path fill="#6F6F6F" stroke="none" d="M-38.5 -195.15L-40.3 -195.15 -40.3 -188.15 -38.5 -188.15 -38.5 -195.15M-34 -193.15Q-34 -193.8 -33.1 -193.8 -32.75 -193.8 -32.5 -193.65 -32.2 -193.45 -32.2 -193.1L-30.45 -193.1Q-30.5 -194.2 -31.3 -194.75 -32.05 -195.3 -33.15 -195.3 -34.2 -195.3 -35 -194.7 -35.75 -194.05 -35.75 -193.2 -35.75 -192.45 -35.45 -192 -35 -191.4 -33.75 -191.05L-32.8 -190.85Q-32 -190.65 -32.05 -190.15 -32.05 -189.85 -32.3 -189.65 -32.55 -189.5 -32.95 -189.45 -33.45 -189.45 -33.85 -189.7 -34.2 -190 -34.25 -190.35L-35.95 -190.35Q-35.95 -189.3 -35.1 -188.65 -34.25 -188 -33.15 -188 -31.95 -188 -31.15 -188.55 -30.25 -189.15 -30.25 -190.15 -30.25 -191.8 -32.1 -192.25L-33.3 -192.55Q-34 -192.75 -34 -193.15M-23.8 -193.7L-23.8 -195.15 -25.25 -195.15 -25.25 -197.85 -27.1 -197.85 -27.1 -195.15 -28.35 -195.15 -28.35 -193.7 -27.1 -193.7 -27.1 -188.15 -25.25 -188.15 -25.25 -193.7 -23.8 -193.7M-10.9 -194.3Q-11.95 -195.3 -13.5 -195.3 -15.05 -195.3 -16.1 -194.3 -17.15 -193.3 -17.15 -191.65 -17.15 -190.05 -16.1 -189.05 -15.05 -188 -13.5 -188 -12 -188 -10.9 -189.05 -9.85 -190.05 -9.85 -191.65 -9.85 -193.3 -10.9 -194.3M-13.5 -193.5Q-12.7 -193.5 -12.2 -193 -11.7 -192.5 -11.7 -191.65 -11.7 -190.85 -12.2 -190.3 -12.7 -189.8 -13.5 -189.8 -14.3 -189.8 -14.8 -190.3 -15.35 -190.85 -15.35 -191.65 -15.35 -192.5 -14.8 -193 -14.3 -193.5 -13.5 -193.5M-3.65 -198.95Q-5.1 -198.95 -5.85 -198.1 -6.6 -197.25 -6.6 -195.7L-6.6 -195.15 -7.95 -195.15 -7.95 -193.7 -6.6 -193.7 -6.6 -188.15 -4.8 -188.15 -4.8 -193.7 -3.3 -193.7 -3.3 -195.15 -4.8 -195.15 -4.8 -195.7Q-4.8 -197.2 -3.65 -197.2L-2.85 -197.2 -2.85 -198.95 -3.65 -198.95M-38.6 -198.65Q-38.9 -198.95 -39.4 -198.95 -39.9 -198.95 -40.25 -198.65 -40.6 -198.35 -40.6 -197.85 -40.6 -197.4 -40.25 -197.1 -39.9 -196.75 -39.4 -196.75 -38.9 -196.75 -38.6 -197.1 -38.25 -197.4 -38.25 -197.85 -38.25 -198.35 -38.6 -198.65M-43.4 -198.95L-45.2 -198.95 -45.2 -188.15 -43.4 -188.15 -43.4 -198.95M10.2 -189Q11.2 -190 11.2 -191.65 11.2 -193.3 10.2 -194.3 9.2 -195.3 7.8 -195.3 7.1 -195.3 6.5 -195 5.9 -194.7 5.6 -194.2L5.6 -195.15 3.8 -195.15 3.8 -184.75 5.6 -184.75 5.6 -189.1Q5.9 -188.6 6.5 -188.3 7.1 -188 7.8 -188 9.25 -188 10.2 -189M6.2 -193Q6.7 -193.55 7.5 -193.55 8.25 -193.55 8.8 -193 9.35 -192.45 9.35 -191.65 9.35 -190.8 8.8 -190.25 8.3 -189.75 7.5 -189.75 6.7 -189.75 6.2 -190.25 5.65 -190.8 5.65 -191.65 5.65 -192.45 6.2 -193M20.55 -191.05L20.6 -191.65Q20.6 -193.3 19.55 -194.3 18.55 -195.3 17.05 -195.3 15.5 -195.3 14.45 -194.3 13.4 -193.3 13.4 -191.65 13.4 -190.05 14.45 -189 15.5 -188 17.05 -188 18.1 -188 18.95 -188.4 19.85 -188.85 20.3 -189.7L18.9 -190.45Q18.4 -189.55 17.15 -189.55 16.35 -189.55 15.85 -189.95 15.3 -190.35 15.2 -191.05L20.55 -191.05M15.2 -192.3Q15.3 -192.95 15.8 -193.35 16.3 -193.75 17.05 -193.75 17.75 -193.75 18.2 -193.4 18.7 -193 18.8 -192.3L15.2 -192.3M28.8 -194.3Q27.8 -195.3 26.3 -195.3 24.75 -195.3 23.7 -194.3 22.65 -193.3 22.65 -191.65 22.65 -190.05 23.7 -189 24.75 -188 26.3 -188 27.35 -188 28.2 -188.4 29.1 -188.85 29.55 -189.7L28.15 -190.45Q27.65 -189.55 26.4 -189.55 25.6 -189.55 25.1 -189.95 24.55 -190.35 24.45 -191.05L29.8 -191.05 29.85 -191.65Q29.85 -193.3 28.8 -194.3M27.45 -193.4Q27.95 -193 28.05 -192.3L24.45 -192.3Q24.55 -192.95 25.05 -193.35 25.55 -193.75 26.3 -193.75 27 -193.75 27.45 -193.4M35.9 -193.6Q36.55 -193.6 37 -193.4L37.3 -195.05Q36.8 -195.3 36.15 -195.3 35.5 -195.3 34.95 -194.85 34.4 -194.4 34.15 -193.5L34.15 -195.15 32.35 -195.15 32.35 -188.15 34.15 -188.15 34.15 -190.65Q34.15 -193.6 35.9 -193.6M42.85 -192.25L41.65 -192.55Q40.95 -192.75 40.95 -193.15 40.95 -193.8 41.85 -193.8 42.2 -193.8 42.45 -193.65 42.75 -193.45 42.75 -193.1L44.5 -193.1Q44.45 -194.2 43.65 -194.75 42.9 -195.3 41.8 -195.3 40.75 -195.3 39.95 -194.7 39.2 -194.05 39.2 -193.2 39.2 -192.45 39.5 -192 39.95 -191.4 41.2 -191.05L42.15 -190.85Q42.95 -190.65 42.9 -190.15 42.9 -189.85 42.65 -189.65 42.4 -189.5 42 -189.45 41.5 -189.45 41.1 -189.7 40.75 -190 40.7 -190.35L39 -190.35Q39 -189.3 39.85 -188.65 40.7 -188 41.8 -188 43 -188 43.8 -188.55 44.7 -189.15 44.7 -190.15 44.7 -191.8 42.85 -192.25Z"/><path fill="#E3E6ED" stroke="none" d="M124.9 -125.05L125.05 -125.05 75.15 -174.95 75.15 -174.8 75.05 -174.9 75.05 -175 26 -175 -109.1 -175Q-125 -175 -125 -159.1L-125 -152.95 -125 159.15Q-125 175 -109.1 175L104.05 175 109.2 175Q125.05 175 125.05 159.15L125.05 -86.95 125.05 -124.9 125.05 -125 124.95 -125 124.9 -125.05Z"/><path fill="#A8A8B0" stroke="none" d="M-45.65 143Q-46.7 144 -46.7 145.65 -46.7 147.25 -45.65 148.3 -44.6 149.3 -43.15 149.3 -42.5 149.3 -41.9 149 -41.25 148.75 -40.95 148.25L-40.95 149.15 -39.15 149.15 -39.15 142.15 -40.95 142.15 -40.95 143Q-41.65 142 -43.15 142 -44.6 142 -45.65 143M-42.15 147.4Q-42.7 147.6 -43.25 147.5 -43.85 147.4 -44.25 147 -44.8 146.45 -44.8 145.65 -44.8 144.8 -44.25 144.3 -43.65 143.75 -42.9 143.75 -42.1 143.75 -41.55 144.25 -40.95 144.8 -40.95 145.65 -40.9 146.9 -42.15 147.4M-52.35 140.95Q-51.45 141.15 -51.45 142.05 -51.45 142.4 -51.75 142.8 -51.95 143.15 -52.6 143.15L-53.65 143.15 -53.65 144.8 -52.6 144.8Q-51.75 144.75 -51.3 145.3 -51.05 145.65 -51.05 146.05 -51.05 146.65 -51.5 147.1 -52 147.5 -52.7 147.5 -53.2 147.5 -53.6 147.2 -54.05 146.9 -54.3 146.4L-55.9 147.2Q-55.5 148.1 -54.65 148.65 -53.85 149.25 -52.85 149.3 -51.4 149.4 -50.3 148.6 -49.2 147.85 -49.05 146.5 -49 145.7 -49.5 144.9 -49.95 144.1 -50.7 143.85 -49.5 143.15 -49.5 141.9 -49.5 140.8 -50.3 140 -51.05 139.25 -52.35 139.15 -53.25 139.1 -54.1 139.5 -54.9 139.9 -55.3 140.6L-53.85 141.55Q-53.3 140.85 -52.35 140.95M-53.85 124.3Q-54.35 124.3 -54.7 124.65 -55.05 124.95 -55.05 125.45 -55.05 125.95 -54.7 126.25 -54.35 126.6 -53.85 126.6 -53.35 126.6 -53 126.25 -52.65 125.95 -52.65 125.45 -52.65 124.95 -53 124.6 -53.35 124.3 -53.85 124.3M-62.55 141.35Q-62.1 140.95 -61.55 140.95 -60.9 140.95 -60.5 141.3 -60.1 141.6 -60.1 142.1 -60.1 142.7 -60.7 143.4L-64.7 148.2 -64.7 149.15 -58.45 149.15 -58.45 147.4 -61.75 147.4 -59.35 144.6Q-58.3 143.45 -58.3 142.1 -58.3 140.85 -59.2 140 -60.15 139.15 -61.45 139.15 -62.75 139.15 -63.65 139.95 -64.55 140.75 -64.75 142.05L-63.05 142.35Q-62.95 141.75 -62.55 141.35M-75.6 140.1L-75.6 138.35 -76.4 138.35Q-77.85 138.35 -78.6 139.2 -79.35 140.05 -79.35 141.6L-79.35 142.15 -80.7 142.15 -80.7 143.6 -79.35 143.6 -79.35 149.15 -77.55 149.15 -77.55 143.6 -76.05 143.6 -76.05 142.15 -77.55 142.15 -77.55 141.6Q-77.55 140.1 -76.4 140.1L-75.6 140.1M-73.55 140.6L-72.1 141.55Q-71.55 140.85 -70.6 140.95 -69.7 141.15 -69.7 142.05 -69.7 142.4 -70 142.8 -70.2 143.15 -70.85 143.15L-71.9 143.15 -71.9 144.8 -70.85 144.8Q-70 144.75 -69.55 145.3 -69.3 145.65 -69.3 146.05 -69.3 146.65 -69.75 147.1 -70.25 147.5 -70.95 147.5 -71.45 147.5 -71.85 147.2 -72.3 146.9 -72.55 146.4L-74.15 147.2Q-73.75 148.1 -72.9 148.65 -72.1 149.25 -71.1 149.3 -69.65 149.4 -68.55 148.6 -67.45 147.85 -67.3 146.5 -67.25 145.7 -67.75 144.9 -68.2 144.1 -68.95 143.85 -67.75 143.15 -67.75 141.9 -67.75 140.8 -68.55 140 -69.3 139.25 -70.6 139.15 -71.5 139.1 -72.35 139.5 -73.15 139.9 -73.55 140.6M-73.55 119.05Q-73.55 120.05 -72.8 120.75 -74.3 121.6 -74.3 123.25 -74.3 124.65 -73.2 125.6 -72.15 126.6 -70.6 126.6 -69.1 126.6 -68.05 125.6 -67 124.65 -67 123.25 -67 121.6 -68.45 120.75 -67.7 120.05 -67.7 119.05 -67.7 117.95 -68.55 117.15 -69.4 116.35 -70.6 116.35 -71.85 116.35 -72.7 117.15 -73.55 117.95 -73.55 119.05M-71.75 119.1Q-71.75 118.7 -71.45 118.4 -71.1 118.1 -70.6 118.1 -70.15 118.1 -69.85 118.4 -69.5 118.7 -69.5 119.1 -69.5 119.55 -69.8 119.85 -70.1 120.2 -70.6 120.2 -71.1 120.2 -71.45 119.9 -71.75 119.55 -71.75 119.1M-72.45 123.2Q-72.45 122.55 -71.95 122.05 -71.5 121.55 -70.8 121.55L-70.5 121.55Q-69.85 121.55 -69.35 122.05 -68.85 122.5 -68.85 123.2 -68.85 123.85 -69.35 124.35 -69.9 124.85 -70.6 124.85 -71.35 124.85 -71.9 124.35 -72.45 123.85 -72.45 123.2M-80.5 119.65L-78.85 119 -78.85 126.45 -77 126.45 -77 116.4 -80.5 118 -80.5 119.65M-46.9 116.35Q-48.4 116.35 -49.4 117.25 -50.4 118.15 -50.4 119.55 -50.4 121.05 -49.5 122 -48.6 122.9 -47.35 122.9 -46.65 122.9 -46.05 122.55 -45.5 122.2 -45.35 121.8 -45.25 123.1 -45.75 123.95 -46.25 124.85 -47.25 124.85 -48.15 124.85 -48.6 123.95L-50.3 124.65Q-49.45 126.5 -47.35 126.6 -44.9 126.7 -43.95 124.4 -43.25 122.65 -43.45 119.8 -43.6 118.25 -44.55 117.35 -45.5 116.4 -46.9 116.35M-46.95 118.15Q-46.35 118.15 -45.9 118.6 -45.5 119.05 -45.5 119.7 -45.5 120.35 -45.95 120.75 -46.4 121.2 -47.05 121.15 -47.65 121.15 -48.1 120.7 -48.5 120.25 -48.5 119.65 -48.5 119 -48.05 118.6 -47.6 118.15 -46.95 118.15M-57.4 121.5Q-57.4 119.2 -58.15 117.85 -58.95 116.35 -61.05 116.35 -64.75 116.35 -64.75 121.5 -64.75 126.6 -61.05 126.6 -57.4 126.6 -57.4 121.5M-62.85 121.5Q-62.85 118.2 -61.05 118.2 -59.25 118.2 -59.25 121.5 -59.25 124.8 -61.05 124.8 -62.85 124.8 -62.85 121.5M-2.35 141.9Q-2.35 140.8 -3.15 140 -3.9 139.25 -5.2 139.15 -6.1 139.1 -6.95 139.5 -7.75 139.9 -8.15 140.6L-6.7 141.55Q-6.15 140.85 -5.2 140.95 -4.3 141.15 -4.3 142.05 -4.3 142.4 -4.6 142.8 -4.8 143.15 -5.45 143.15L-6.5 143.15 -6.5 144.8 -5.45 144.8Q-4.6 144.75 -4.15 145.3 -3.9 145.65 -3.9 146.05 -3.9 146.65 -4.35 147.1 -4.85 147.5 -5.55 147.5 -6.05 147.5 -6.45 147.2 -6.9 146.9 -7.15 146.4L-8.75 147.2Q-8.35 148.1 -7.5 148.65 -6.7 149.25 -5.7 149.3 -4.25 149.4 -3.15 148.6 -2.05 147.85 -1.9 146.5 -1.85 145.7 -2.35 144.9 -2.8 144.1 -3.55 143.85 -2.35 143.15 -2.35 141.9M-17.7 141.05L-13.4 141.05 -17.3 149.15 -15.2 149.15 -10.5 139.35 -17.7 139.35 -17.7 141.05M-.75 125.45Q-.75 124.95 -1.1 124.6 -1.45 124.3 -1.95 124.3 -2.45 124.3 -2.8 124.65 -3.15 124.95 -3.15 125.45 -3.15 125.95 -2.8 126.25 -2.45 126.6 -1.95 126.6 -1.45 126.6 -1.1 126.25 -.75 125.95 -.75 125.45M-21.4 140.1Q-22.3 139.2 -23.7 139.15 -25.2 139.15 -26.15 140.05 -27.15 140.9 -27.15 142.3 -27.2 143.8 -26.25 144.75 -25.35 145.65 -24.15 145.65 -23.45 145.65 -22.85 145.3 -22.3 144.95 -22.15 144.55 -22.1 145.8 -22.55 146.7 -23.05 147.6 -24.05 147.6 -24.95 147.6 -25.4 146.65L-27.05 147.4Q-26.25 149.2 -24.1 149.3 -21.7 149.4 -20.8 147.15 -20.1 145.4 -20.3 142.55 -20.45 141.05 -21.4 140.1M-24.8 141.35Q-24.4 140.95 -23.75 140.95 -23.15 140.95 -22.75 141.4 -22.3 141.85 -22.3 142.5 -22.3 143.1 -22.75 143.55 -23.2 143.95 -23.85 143.95 -24.45 143.9 -24.85 143.45 -25.3 143.05 -25.25 142.4 -25.25 141.8 -24.8 141.35M-36.4 141.05L-32.1 141.05 -36 149.15 -33.9 149.15 -29.2 139.35 -36.4 139.35 -36.4 141.05M-29.95 125.45Q-29.95 124.95 -30.3 124.6 -30.65 124.3 -31.15 124.3 -31.65 124.3 -32 124.65 -32.35 124.95 -32.35 125.45 -32.35 125.95 -32 126.25 -31.65 126.6 -31.15 126.6 -30.65 126.6 -30.3 126.25 -29.95 125.95 -29.95 125.45M-27.9 119.65L-26.25 119 -26.25 126.45 -24.4 126.45 -24.4 116.4 -27.9 118 -27.9 119.65M-35.55 117.2Q-36.5 116.35 -37.8 116.35 -39.15 116.35 -40.05 117.15 -40.95 117.95 -41.15 119.3L-39.45 119.6Q-39.35 118.95 -38.9 118.55 -38.5 118.15 -37.9 118.15 -37.25 118.15 -36.85 118.5 -36.45 118.85 -36.45 119.35 -36.45 119.95 -37.05 120.65L-41.1 125.5 -41.1 126.45 -34.8 126.45 -34.8 124.65 -38.15 124.65 -35.65 121.9Q-34.6 120.7 -34.6 119.35 -34.6 118.05 -35.55 117.2M-14.05 122.7L-15.4 122.7 -15.4 116.55 -17.15 116.55 -22.1 124.3 -17.2 124.3 -17.2 126.45 -15.4 126.45 -15.4 124.3 -14.05 124.3 -14.05 122.7M-17.2 119.2L-17.2 122.7 -19.4 122.7 -17.2 119.2M-12 119.3L-10.3 119.6Q-10.2 118.95 -9.75 118.55 -9.35 118.15 -8.75 118.15 -8.1 118.15 -7.7 118.5 -7.3 118.85 -7.3 119.35 -7.3 119.95 -7.9 120.65L-11.95 125.5 -11.95 126.45 -5.65 126.45 -5.65 124.65 -9 124.65 -6.5 121.9Q-5.45 120.7 -5.45 119.35 -5.45 118.05 -6.4 117.2 -7.35 116.35 -8.65 116.35 -10 116.35 -10.9 117.15 -11.8 117.95 -12 119.3M-91.6 101.85Q-91.9 101.5 -92.45 101.5 -92.9 101.5 -93.25 101.85 -93.6 102.2 -93.6 102.65 -93.6 103.15 -93.25 103.45 -92.9 103.8 -92.45 103.8 -91.9 103.8 -91.6 103.45 -91.25 103.15 -91.25 102.65 -91.25 102.15 -91.6 101.85M-97.4 93.85L-99.2 93.85 -104.05 101.5 -99.2 101.5 -99.2 103.65 -97.4 103.65 -97.4 101.5 -96.1 101.5 -96.1 99.9 -97.4 99.9 -97.4 93.85M-99.2 99.9L-101.4 99.9 -99.2 96.5 -99.2 99.9M-92.85 21.5Q-93.3 21.5 -93.65 21.85 -94 22.2 -94 22.65 -94 23.15 -93.65 23.45 -93.3 23.8 -92.85 23.8 -92.3 23.8 -92 23.45 -91.65 23.15 -91.65 22.65 -91.65 22.15 -92 21.85 -92.3 21.5 -92.85 21.5M-100.15 17.65L-101.2 17.65 -101.2 19.3 -100.15 19.3Q-99.3 19.25 -98.85 19.8 -98.6 20.15 -98.6 20.55 -98.6 21.15 -99.05 21.6 -99.55 22 -100.25 22 -100.75 22 -101.15 21.7 -101.6 21.4 -101.85 20.9L-103.45 21.7Q-103.05 22.6 -102.2 23.15 -101.4 23.75 -100.4 23.8 -98.95 23.9 -97.85 23.1 -96.75 22.35 -96.6 21 -96.55 20.2 -97.05 19.4 -97.5 18.6 -98.25 18.35 -97.05 17.65 -97.05 16.4 -97.05 15.3 -97.85 14.5 -98.6 13.75 -99.9 13.65 -100.8 13.6 -101.65 14 -102.45 14.4 -102.85 15.1L-101.4 16.05Q-100.85 15.35 -99.9 15.45 -99 15.65 -99 16.55 -99 16.9 -99.3 17.3 -99.5 17.65 -100.15 17.65M-32.75 59.35L-32.75 61.05 -28.45 61.05 -32.35 69.15 -30.25 69.15 -25.55 59.35 -32.75 59.35M-11.15 59.15Q-12.05 59.1 -12.9 59.5 -13.7 59.9 -14.1 60.6L-12.65 61.55Q-12.1 60.85 -11.15 60.95 -10.25 61.15 -10.25 62.05 -10.25 62.4 -10.55 62.8 -10.75 63.15 -11.4 63.15L-12.45 63.15 -12.45 64.8 -11.4 64.8Q-10.55 64.75 -10.1 65.3 -9.85 65.65 -9.85 66.05 -9.85 66.65 -10.3 67.1 -10.8 67.5 -11.5 67.5 -12 67.5 -12.4 67.2 -12.85 66.9 -13.1 66.4L-14.7 67.2Q-14.3 68.1 -13.45 68.65 -12.65 69.25 -11.65 69.3 -10.2 69.4 -9.1 68.6 -8 67.85 -7.85 66.5 -7.8 65.7 -8.3 64.9 -8.75 64.1 -9.5 63.85 -8.3 63.15 -8.3 61.9 -8.3 60.8 -9.1 60 -9.85 59.25 -11.15 59.15M-18 60Q-18.95 59.15 -20.25 59.15 -21.55 59.15 -22.45 59.95 -23.35 60.75 -23.55 62.05L-21.85 62.35Q-21.75 61.75 -21.35 61.35 -20.9 60.95 -20.35 60.95 -19.7 60.95 -19.3 61.3 -18.9 61.6 -18.9 62.1 -18.9 62.7 -19.5 63.4L-23.5 68.2 -23.5 69.15 -17.25 69.15 -17.25 67.4 -20.55 67.4 -18.15 64.6Q-17.1 63.45 -17.1 62.1 -17.1 60.85 -18 60M-80.35 59.35L-80.35 61.05 -76.05 61.05 -79.95 69.15 -77.85 69.15 -73.15 59.35 -80.35 59.35M-69.35 61.55Q-68.8 60.85 -67.85 60.95 -66.95 61.15 -66.95 62.05 -66.95 62.4 -67.25 62.8 -67.45 63.15 -68.1 63.15L-69.15 63.15 -69.15 64.8 -68.1 64.8Q-67.25 64.75 -66.8 65.3 -66.55 65.65 -66.55 66.05 -66.55 66.65 -67 67.1 -67.5 67.5 -68.2 67.5 -68.7 67.5 -69.1 67.2 -69.55 66.9 -69.8 66.4L-71.4 67.2Q-71 68.1 -70.15 68.65 -69.35 69.25 -68.35 69.3 -66.9 69.4 -65.8 68.6 -64.7 67.85 -64.55 66.5 -64.5 65.7 -65 64.9 -65.45 64.1 -66.2 63.85 -65 63.15 -65 61.9 -65 60.8 -65.8 60 -66.55 59.25 -67.85 59.15 -68.75 59.1 -69.6 59.5 -70.4 59.9 -70.8 60.6L-69.35 61.55M-41.9 63Q-42.9 64 -42.9 65.65 -42.9 67.3 -41.9 68.3 -40.9 69.3 -39.45 69.3 -38.75 69.3 -38.15 69 -37.55 68.7 -37.25 68.2L-37.25 69.15 -35.45 69.15 -35.45 58.35 -37.25 58.35 -37.25 63.1Q-37.85 62 -39.45 62 -40.9 62 -41.9 63M-37.3 65.65Q-37.3 66.5 -37.85 67 -38.4 67.55 -39.15 67.55 -39.95 67.55 -40.5 67 -41 66.45 -41 65.65 -41 64.8 -40.5 64.25 -39.95 63.75 -39.15 63.75 -38.45 63.75 -37.85 64.25 -37.3 64.8 -37.3 65.65M-55.55 61.85Q-55.55 60.75 -56.4 59.95 -57.2 59.15 -58.4 59.15 -59.65 59.15 -60.5 59.95 -61.3 60.75 -61.3 61.85 -61.3 62.8 -60.6 63.5 -62.05 64.35 -62.05 65.95 -62.05 67.35 -61 68.3 -59.9 69.3 -58.4 69.3 -56.95 69.3 -55.85 68.3 -54.8 67.35 -54.8 65.95 -54.8 64.35 -56.25 63.5 -55.55 62.8 -55.55 61.85M-59.25 61.2Q-58.9 60.85 -58.4 60.85 -57.95 60.85 -57.65 61.15 -57.3 61.45 -57.3 61.9 -57.3 62.35 -57.6 62.65 -57.9 62.95 -58.4 62.95 -58.9 62.95 -59.2 62.65 -59.55 62.35 -59.55 61.9 -59.55 61.45 -59.25 61.2M-58.6 64.3L-58.3 64.3Q-57.65 64.3 -57.15 64.8 -56.65 65.25 -56.65 65.9 -56.65 66.6 -57.15 67.1 -57.7 67.55 -58.4 67.55 -59.15 67.55 -59.7 67.1 -60.2 66.6 -60.2 65.9 -60.2 65.3 -59.75 64.8 -59.25 64.3 -58.6 64.3M-45.35 61.05Q-46.2 59.25 -48.3 59.15 -50.7 59.1 -51.65 61.35 -52.35 63.05 -52.1 65.9 -52 67.45 -51.05 68.35 -50.1 69.25 -48.75 69.3 -47.25 69.35 -46.25 68.45 -45.3 67.55 -45.25 66.15 -45.25 64.65 -46.15 63.75 -47.05 62.8 -48.3 62.8 -49 62.8 -49.55 63.15 -50.1 63.5 -50.25 63.95 -50.35 62.65 -49.85 61.8 -49.35 60.9 -48.35 60.9 -47.5 60.9 -47.05 61.8L-45.35 61.05M-49.65 64.95Q-49.2 64.5 -48.6 64.55 -48 64.55 -47.55 65 -47.15 65.4 -47.15 66.05 -47.15 66.65 -47.6 67.1 -48.05 67.5 -48.65 67.5 -49.25 67.5 -49.7 67.05 -50.15 66.65 -50.15 66 -50.1 65.35 -49.65 64.95M-42.6 39.35Q-42.6 39.95 -43.2 40.65L-47.25 45.5 -47.25 46.45 -40.95 46.45 -40.95 44.65 -44.3 44.65 -41.8 41.9Q-40.75 40.7 -40.75 39.35 -40.75 38.05 -41.7 37.2 -42.65 36.35 -43.95 36.35 -45.3 36.35 -46.2 37.15 -47.1 37.95 -47.3 39.3L-45.6 39.6Q-45.5 38.95 -45.05 38.55 -44.65 38.15 -44.05 38.15 -43.4 38.15 -43 38.5 -42.6 38.85 -42.6 39.35M-51.55 44.65Q-51.9 44.95 -51.9 45.45 -51.9 45.95 -51.55 46.25 -51.2 46.6 -50.7 46.6 -50.2 46.6 -49.85 46.25 -49.5 45.95 -49.5 45.45 -49.5 44.95 -49.85 44.6 -50.2 44.3 -50.7 44.3 -51.2 44.3 -51.55 44.65M-55.35 36.55L-57.1 36.55 -62.05 44.3 -57.15 44.3 -57.15 46.45 -55.35 46.45 -55.35 44.3 -54 44.3 -54 42.7 -55.35 42.7 -55.35 36.55M-59.35 42.7L-57.15 39.2 -57.15 42.7 -59.35 42.7M-67.55 46.6Q-63.9 46.6 -63.9 41.5 -63.9 39.2 -64.65 37.85 -65.45 36.35 -67.55 36.35 -71.25 36.35 -71.25 41.5 -71.25 46.6 -67.55 46.6M-69.35 41.5Q-69.35 38.2 -67.55 38.2 -65.75 38.2 -65.75 41.5 -65.75 44.8 -67.55 44.8 -69.35 44.8 -69.35 41.5M-74.6 41.9Q-73.55 40.7 -73.55 39.35 -73.55 38.05 -74.5 37.2 -75.45 36.35 -76.75 36.35 -78.1 36.35 -79 37.15 -79.9 37.95 -80.1 39.3L-78.4 39.6Q-78.3 38.95 -77.85 38.55 -77.45 38.15 -76.85 38.15 -76.2 38.15 -75.8 38.5 -75.4 38.85 -75.4 39.35 -75.4 39.95 -76 40.65L-80.05 45.5 -80.05 46.45 -73.75 46.45 -73.75 44.65 -77.1 44.65 -74.6 41.9M-2.65 39.05Q-2.65 37.95 -3.5 37.15 -4.35 36.35 -5.55 36.35 -6.8 36.35 -7.65 37.15 -8.5 37.95 -8.5 39.05 -8.5 40.05 -7.75 40.75 -9.25 41.6 -9.25 43.25 -9.25 44.65 -8.15 45.6 -7.1 46.6 -5.55 46.6 -4.05 46.6 -3 45.6 -1.95 44.65 -1.95 43.25 -1.95 41.6 -3.4 40.75 -2.65 40.05 -2.65 39.05M-4.3 42.05Q-3.8 42.5 -3.8 43.2 -3.8 43.85 -4.3 44.35 -4.85 44.85 -5.55 44.85 -6.3 44.85 -6.85 44.35 -7.4 43.85 -7.4 43.2 -7.4 42.55 -6.9 42.05 -6.45 41.55 -5.75 41.55L-5.45 41.55Q-4.8 41.55 -4.3 42.05M-4.8 38.4Q-4.45 38.7 -4.45 39.1 -4.45 39.55 -4.75 39.85 -5.05 40.2 -5.55 40.2 -6.05 40.2 -6.4 39.9 -6.7 39.55 -6.7 39.1 -6.7 38.7 -6.4 38.4 -6.05 38.1 -5.55 38.1 -5.1 38.1 -4.8 38.4M-18.7 46.6Q-18.2 46.6 -17.85 46.25 -17.5 45.95 -17.5 45.45 -17.5 44.95 -17.85 44.6 -18.2 44.3 -18.7 44.3 -19.2 44.3 -19.55 44.65 -19.9 44.95 -19.9 45.45 -19.9 45.95 -19.55 46.25 -19.2 46.6 -18.7 46.6M-15.5 38L-15.5 39.65 -13.85 39 -13.85 46.45 -12 46.45 -12 36.4 -15.5 38M-38.4 41.5Q-38.4 46.6 -34.7 46.6 -31.05 46.6 -31.05 41.5 -31.05 39.2 -31.8 37.85 -32.6 36.35 -34.7 36.35 -38.4 36.35 -38.4 41.5M-36.5 41.5Q-36.5 38.2 -34.7 38.2 -32.9 38.2 -32.9 41.5 -32.9 44.8 -34.7 44.8 -36.5 44.8 -36.5 41.5M-25.45 36.35Q-26.4 36.3 -27.2 36.7 -28 37.1 -28.45 37.85L-27 38.8Q-26.4 38.05 -25.45 38.2 -24.55 38.35 -24.55 39.3 -24.55 39.65 -24.85 40.05 -25.1 40.4 -25.7 40.4L-26.75 40.4 -26.75 42.05 -25.7 42.05Q-24.85 42 -24.4 42.55 -24.15 42.95 -24.15 43.3 -24.15 43.95 -24.6 44.35 -25.1 44.8 -25.8 44.8 -26.3 44.8 -26.75 44.45 -27.2 44.15 -27.4 43.65L-29.05 44.5Q-28.6 45.4 -27.8 45.95 -26.95 46.55 -25.95 46.6 -24.5 46.7 -23.4 45.9 -22.3 45.1 -22.15 43.75 -22.05 42.95 -22.55 42.15 -23.05 41.35 -23.8 41.05 -22.55 40.35 -22.55 39.15 -22.55 38 -23.35 37.2 -24.15 36.4 -25.45 36.35M-8.9 -13.85Q-8.9 -15.35 -9.8 -16.25 -10.7 -17.2 -11.95 -17.2 -12.65 -17.2 -13.2 -16.85 -13.75 -16.5 -13.9 -16.05 -14 -17.35 -13.5 -18.2 -13 -19.1 -12 -19.1 -11.15 -19.1 -10.7 -18.2L-9 -18.95Q-9.85 -20.75 -11.95 -20.85 -14.35 -20.9 -15.3 -18.65 -16 -16.95 -15.75 -14.1 -15.65 -12.55 -14.7 -11.65 -13.75 -10.75 -12.4 -10.7 -10.9 -10.65 -9.9 -11.55 -8.95 -12.45 -8.9 -13.85M-13.8 -14Q-13.75 -14.65 -13.3 -15.05 -12.85 -15.5 -12.25 -15.45 -11.65 -15.45 -11.2 -15 -10.8 -14.6 -10.8 -13.95 -10.8 -13.35 -11.25 -12.9 -11.7 -12.5 -12.3 -12.5 -12.9 -12.5 -13.35 -12.95 -13.8 -13.35 -13.8 -14M-28.55 -17.45Q-28.7 -18.95 -29.65 -19.9 -30.55 -20.8 -31.95 -20.85 -33.45 -20.85 -34.4 -19.95 -35.4 -19.1 -35.4 -17.7 -35.45 -16.2 -34.5 -15.25 -33.6 -14.35 -32.4 -14.35 -31.7 -14.35 -31.1 -14.7 -30.55 -15.05 -30.4 -15.45 -30.35 -14.2 -30.8 -13.3 -31.3 -12.4 -32.3 -12.4 -33.2 -12.4 -33.65 -13.35L-35.3 -12.6Q-34.5 -10.8 -32.35 -10.7 -29.95 -10.6 -29.05 -12.85 -28.35 -14.6 -28.55 -17.45M-33.05 -18.65Q-32.65 -19.05 -32 -19.05 -31.4 -19.05 -31 -18.6 -30.55 -18.15 -30.55 -17.5 -30.55 -16.9 -31 -16.45 -31.45 -16.05 -32.1 -16.05 -32.7 -16.1 -33.1 -16.55 -33.55 -16.95 -33.5 -17.6 -33.5 -18.2 -33.05 -18.65M-26.3 -13L-21.45 -13 -21.45 -10.85 -19.65 -10.85 -19.65 -13 -18.35 -13 -18.35 -14.6 -19.65 -14.6 -19.65 -20.65 -21.45 -20.65 -26.3 -13M-21.45 -18L-21.45 -14.6 -23.65 -14.6 -21.45 -18M-30.85 -34.55Q-30.85 -34.05 -30.5 -33.75 -30.15 -33.4 -29.65 -33.4 -29.15 -33.4 -28.8 -33.75 -28.45 -34.05 -28.45 -34.55 -28.45 -35.05 -28.8 -35.4 -29.15 -35.7 -29.65 -35.7 -30.15 -35.7 -30.5 -35.35 -30.85 -35.05 -30.85 -34.55M-38.75 -42.85Q-39.6 -42.05 -39.6 -40.95 -39.6 -39.95 -38.85 -39.25 -40.35 -38.4 -40.35 -36.75 -40.35 -35.35 -39.25 -34.4 -38.2 -33.4 -36.65 -33.4 -35.15 -33.4 -34.1 -34.4 -33.05 -35.35 -33.05 -36.75 -33.05 -38.4 -34.5 -39.25 -33.75 -39.95 -33.75 -40.95 -33.75 -42.05 -34.6 -42.85 -35.45 -43.65 -36.65 -43.65 -37.9 -43.65 -38.75 -42.85M-35.9 -41.6Q-35.55 -41.3 -35.55 -40.9 -35.55 -40.45 -35.85 -40.15 -36.15 -39.8 -36.65 -39.8 -37.15 -39.8 -37.5 -40.1 -37.8 -40.45 -37.8 -40.9 -37.8 -41.3 -37.5 -41.6 -37.15 -41.9 -36.65 -41.9 -36.2 -41.9 -35.9 -41.6M-36.85 -38.45L-36.55 -38.45Q-35.9 -38.45 -35.4 -37.95 -34.9 -37.5 -34.9 -36.8 -34.9 -36.15 -35.4 -35.65 -35.95 -35.15 -36.65 -35.15 -37.4 -35.15 -37.95 -35.65 -38.5 -36.15 -38.5 -36.8 -38.5 -37.45 -38 -37.95 -37.55 -38.45 -36.85 -38.45M-26.4 -40.35L-24.75 -41 -24.75 -33.55 -22.9 -33.55 -22.9 -43.6 -26.4 -42 -26.4 -40.35M-12.55 -37.3L-13.9 -37.3 -13.9 -43.45 -15.65 -43.45 -20.6 -35.7 -15.7 -35.7 -15.7 -33.55 -13.9 -33.55 -13.9 -35.7 -12.55 -35.7 -12.55 -37.3M-15.7 -40.8L-15.7 -37.3 -17.9 -37.3 -15.7 -40.8M-8.8 -40.4Q-8.7 -41.05 -8.25 -41.45 -7.85 -41.85 -7.25 -41.85 -6.6 -41.85 -6.2 -41.5 -5.8 -41.15 -5.8 -40.65 -5.8 -40.05 -6.4 -39.35L-10.45 -34.5 -10.45 -33.55 -4.15 -33.55 -4.15 -35.35 -7.5 -35.35 -5 -38.1Q-3.95 -39.3 -3.95 -40.65 -3.95 -41.95 -4.9 -42.8 -5.85 -43.65 -7.15 -43.65 -8.5 -43.65 -9.4 -42.85 -10.3 -42.05 -10.5 -40.7L-8.8 -40.4M-47.9 -17Q-48.95 -18 -50.35 -18 -51.05 -18 -51.65 -17.7 -52.25 -17.45 -52.55 -16.9L-52.55 -21.65 -54.35 -21.65 -54.35 -10.85 -52.55 -10.85 -52.55 -11.8Q-52.25 -11.3 -51.65 -11 -51.05 -10.7 -50.35 -10.7 -48.9 -10.7 -47.9 -11.7 -46.9 -12.7 -46.9 -14.35 -46.9 -16 -47.9 -17M-48.8 -14.35Q-48.8 -13.55 -49.35 -13 -49.85 -12.45 -50.65 -12.45 -51.4 -12.45 -51.95 -13 -52.5 -13.55 -52.5 -14.35 -52.5 -15.25 -51.95 -15.75 -51.4 -16.25 -50.65 -16.25 -49.85 -16.25 -49.35 -15.75 -48.8 -15.2 -48.8 -14.35M-42.35 -18.65Q-41.9 -19.05 -41.35 -19.05 -40.7 -19.05 -40.3 -18.7 -39.9 -18.4 -39.9 -17.9 -39.9 -17.3 -40.5 -16.6L-44.5 -11.8 -44.5 -10.85 -38.25 -10.85 -38.25 -12.6 -41.55 -12.6 -39.15 -15.4Q-38.1 -16.55 -38.1 -17.9 -38.1 -19.15 -39 -20 -39.95 -20.85 -41.25 -20.85 -42.55 -20.85 -43.45 -20.05 -44.35 -19.25 -44.55 -17.95L-42.85 -17.65Q-42.75 -18.25 -42.35 -18.65M-78.75 -20.5Q-79.55 -20.1 -79.95 -19.4L-78.5 -18.45Q-77.95 -19.15 -77 -19.05 -76.1 -18.85 -76.1 -17.95 -76.1 -17.6 -76.4 -17.2 -76.6 -16.85 -77.25 -16.85L-78.3 -16.85 -78.3 -15.2 -77.25 -15.2Q-76.4 -15.25 -75.95 -14.7 -75.7 -14.35 -75.7 -13.95 -75.7 -13.35 -76.15 -12.9 -76.65 -12.5 -77.35 -12.5 -77.85 -12.5 -78.25 -12.8 -78.7 -13.1 -78.95 -13.6L-80.55 -12.8Q-80.15 -11.9 -79.3 -11.35 -78.5 -10.75 -77.5 -10.7 -76.05 -10.6 -74.95 -11.4 -73.85 -12.15 -73.7 -13.5 -73.65 -14.3 -74.15 -15.1 -74.6 -15.9 -75.35 -16.15 -74.15 -16.85 -74.15 -18.1 -74.15 -19.2 -74.95 -20 -75.7 -20.75 -77 -20.85 -77.9 -20.9 -78.75 -20.5M-61.45 -18Q-62.9 -18 -63.95 -17 -65 -16 -65 -14.35 -65 -12.75 -63.95 -11.7 -62.9 -10.7 -61.45 -10.7 -60.8 -10.7 -60.2 -11 -59.55 -11.25 -59.25 -11.75L-59.25 -10.85 -57.45 -10.85 -57.45 -17.85 -59.25 -17.85 -59.25 -17Q-59.95 -18 -61.45 -18M-61.55 -12.5Q-62.15 -12.6 -62.55 -13 -63.1 -13.55 -63.1 -14.35 -63.1 -15.2 -62.55 -15.7 -61.95 -16.25 -61.2 -16.25 -60.4 -16.25 -59.85 -15.75 -59.25 -15.2 -59.25 -14.35 -59.2 -13.1 -60.45 -12.6 -61 -12.4 -61.55 -12.5M-67.3 -19.9L-66.5 -19.9 -66.5 -21.65 -67.3 -21.65Q-68.75 -21.65 -69.5 -20.8 -70.25 -19.95 -70.25 -18.4L-70.25 -17.85 -71.6 -17.85 -71.6 -16.4 -70.25 -16.4 -70.25 -10.85 -68.45 -10.85 -68.45 -16.4 -66.95 -16.4 -66.95 -17.85 -68.45 -17.85 -68.45 -18.4Q-68.45 -19.9 -67.3 -19.9M-71.4 -43.45L-71.4 -41.7 -67.1 -41.7 -71.05 -33.55 -68.9 -33.55 -64.15 -43.45 -71.4 -43.45M-78.4 -41.2Q-77.8 -41.95 -76.85 -41.8 -75.95 -41.65 -75.95 -40.7 -75.95 -40.35 -76.25 -39.95 -76.5 -39.6 -77.1 -39.6L-78.15 -39.6 -78.15 -37.95 -77.1 -37.95Q-76.25 -38 -75.8 -37.45 -75.55 -37.05 -75.55 -36.7 -75.55 -36.05 -76 -35.65 -76.5 -35.2 -77.2 -35.2 -77.7 -35.2 -78.15 -35.55 -78.6 -35.85 -78.8 -36.35L-80.45 -35.5Q-80 -34.6 -79.2 -34.05 -78.35 -33.45 -77.35 -33.4 -75.9 -33.3 -74.8 -34.1 -73.7 -34.9 -73.55 -36.25 -73.45 -37.05 -73.95 -37.85 -74.45 -38.65 -75.2 -38.95 -73.95 -39.65 -73.95 -40.85 -73.95 -42 -74.75 -42.8 -75.55 -43.6 -76.85 -43.65 -77.8 -43.7 -78.6 -43.3 -79.4 -42.9 -79.85 -42.15L-78.4 -41.2M-60.5 -33.75Q-60.15 -34.05 -60.15 -34.55 -60.15 -35.05 -60.5 -35.4 -60.85 -35.7 -61.35 -35.7 -61.85 -35.7 -62.2 -35.35 -62.55 -35.05 -62.55 -34.55 -62.55 -34.05 -62.2 -33.75 -61.85 -33.4 -61.35 -33.4 -60.85 -33.4 -60.5 -33.75M-56.8 -42.85Q-57.7 -42.05 -57.9 -40.7L-56.2 -40.4Q-56.1 -41.05 -55.65 -41.45 -55.25 -41.85 -54.65 -41.85 -54 -41.85 -53.6 -41.5 -53.2 -41.15 -53.2 -40.65 -53.2 -40.05 -53.8 -39.35L-57.85 -34.5 -57.85 -33.55 -51.55 -33.55 -51.55 -35.35 -54.9 -35.35 -52.4 -38.1Q-51.35 -39.3 -51.35 -40.65 -51.35 -41.95 -52.3 -42.8 -53.25 -43.65 -54.55 -43.65 -55.9 -43.65 -56.8 -42.85M-47.1 -37.95L-46.05 -37.95Q-45.2 -38 -44.75 -37.45 -44.5 -37.05 -44.5 -36.7 -44.5 -36.05 -44.95 -35.65 -45.45 -35.2 -46.15 -35.2 -46.65 -35.2 -47.1 -35.55 -47.55 -35.85 -47.75 -36.35L-49.4 -35.5Q-48.95 -34.6 -48.15 -34.05 -47.3 -33.45 -46.3 -33.4 -44.85 -33.3 -43.75 -34.1 -42.65 -34.9 -42.5 -36.25 -42.4 -37.05 -42.9 -37.85 -43.4 -38.65 -44.15 -38.95 -42.9 -39.65 -42.9 -40.85 -42.9 -42 -43.7 -42.8 -44.5 -43.6 -45.8 -43.65 -46.75 -43.7 -47.55 -43.3 -48.35 -42.9 -48.8 -42.15L-47.35 -41.2Q-46.75 -41.95 -45.8 -41.8 -44.9 -41.65 -44.9 -40.7 -44.9 -40.35 -45.2 -39.95 -45.45 -39.6 -46.05 -39.6L-47.1 -39.6 -47.1 -37.95M-56.9 -93.75L-56.85 -94.35Q-56.85 -96 -57.9 -97 -58.9 -98 -60.4 -98 -61.95 -98 -63 -97 -64.05 -96 -64.05 -94.35 -64.05 -92.75 -63 -91.7 -61.95 -90.7 -60.4 -90.7 -59.35 -90.7 -58.5 -91.1 -57.6 -91.55 -57.15 -92.4L-58.55 -93.15Q-59.05 -92.25 -60.3 -92.25 -61.1 -92.25 -61.6 -92.65 -62.15 -93.05 -62.25 -93.75L-56.9 -93.75M-59.25 -96.1Q-58.75 -95.7 -58.65 -95L-62.25 -95Q-62.15 -95.65 -61.65 -96.05 -61.15 -96.45 -60.4 -96.45 -59.7 -96.45 -59.25 -96.1M-8.9 -93.85Q-8.9 -95.35 -9.8 -96.25 -10.7 -97.2 -11.95 -97.2 -12.65 -97.2 -13.2 -96.85 -13.75 -96.5 -13.9 -96.05 -14 -97.35 -13.5 -98.2 -13 -99.1 -12 -99.1 -11.15 -99.1 -10.7 -98.2L-9 -98.95Q-9.85 -100.75 -11.95 -100.85 -14.35 -100.9 -15.3 -98.65 -16 -96.95 -15.75 -94.1 -15.65 -92.55 -14.7 -91.65 -13.75 -90.75 -12.4 -90.7 -10.9 -90.65 -9.9 -91.55 -8.95 -92.45 -8.9 -93.85M-13.8 -94Q-13.75 -94.65 -13.3 -95.05 -12.85 -95.5 -12.25 -95.45 -11.65 -95.45 -11.2 -95 -10.8 -94.6 -10.8 -93.95 -10.8 -93.35 -11.25 -92.9 -11.7 -92.5 -12.3 -92.5 -12.9 -92.5 -13.35 -92.95 -13.8 -93.35 -13.8 -94M-92.9 -58.5Q-93.35 -58.5 -93.7 -58.15 -94.05 -57.8 -94.05 -57.35 -94.05 -56.85 -93.7 -56.55 -93.35 -56.2 -92.9 -56.2 -92.35 -56.2 -92.05 -56.55 -91.7 -56.85 -91.7 -57.35 -91.7 -57.85 -92.05 -58.15 -92.35 -58.5 -92.9 -58.5M-103.15 -57.3L-103.15 -56.35 -96.9 -56.35 -96.9 -58.1 -100.2 -58.1 -97.8 -60.9Q-96.75 -62.05 -96.75 -63.4 -96.75 -64.65 -97.65 -65.5 -98.6 -66.35 -99.9 -66.35 -101.2 -66.35 -102.1 -65.55 -103 -64.75 -103.2 -63.45L-101.5 -63.15Q-101.4 -63.75 -101 -64.15 -100.55 -64.55 -100 -64.55 -99.35 -64.55 -98.95 -64.2 -98.55 -63.9 -98.55 -63.4 -98.55 -62.8 -99.15 -62.1L-103.15 -57.3M-93.4 -138.15Q-93.7 -138.5 -94.25 -138.5 -94.7 -138.5 -95.05 -138.15 -95.4 -137.8 -95.4 -137.35 -95.4 -136.85 -95.05 -136.55 -94.7 -136.2 -94.25 -136.2 -93.7 -136.2 -93.4 -136.55 -93.05 -136.85 -93.05 -137.35 -93.05 -137.85 -93.4 -138.15M-100.4 -136.35L-98.55 -136.35 -98.55 -146.3 -102.05 -144.75 -102.05 -143.1 -100.4 -143.75 -100.4 -136.35M-19.65 -100.65L-21.45 -100.65 -26.3 -93 -21.45 -93 -21.45 -90.85 -19.65 -90.85 -19.65 -93 -18.35 -93 -18.35 -94.6 -19.65 -94.6 -19.65 -100.65M-23.65 -94.6L-21.45 -98 -21.45 -94.6 -23.65 -94.6M-1 -100Q-1.75 -100.75 -3.05 -100.85 -3.95 -100.9 -4.8 -100.5 -5.6 -100.1 -6 -99.4L-4.55 -98.45Q-4 -99.15 -3.05 -99.05 -2.15 -98.85 -2.15 -97.95 -2.15 -97.6 -2.45 -97.2 -2.65 -96.85 -3.3 -96.85L-4.35 -96.85 -4.35 -95.2 -3.3 -95.2Q-2.45 -95.25 -2 -94.7 -1.75 -94.35 -1.75 -93.95 -1.75 -93.35 -2.2 -92.9 -2.7 -92.5 -3.4 -92.5 -3.9 -92.5 -4.3 -92.8 -4.75 -93.1 -5 -93.6L-6.6 -92.8Q-6.2 -91.9 -5.35 -91.35 -4.55 -90.75 -3.55 -90.7 -2.1 -90.6 -1 -91.4 .1 -92.15 .25 -93.5 .3 -94.3 -.2 -95.1 -.65 -95.9 -1.4 -96.15 -.2 -96.85 -.2 -98.1 -.2 -99.2 -1 -100M-16.45 -122.15Q-17.25 -123.65 -19.35 -123.65 -23.05 -123.65 -23.05 -118.5 -23.05 -113.4 -19.35 -113.4 -15.7 -113.4 -15.7 -118.5 -15.7 -120.8 -16.45 -122.15M-19.35 -121.8Q-17.55 -121.8 -17.55 -118.5 -17.55 -115.2 -19.35 -115.2 -21.15 -115.2 -21.15 -118.5 -21.15 -121.8 -19.35 -121.8M-3.65 -115.35Q-4 -115.05 -4 -114.55 -4 -114.05 -3.65 -113.75 -3.3 -113.4 -2.8 -113.4 -2.3 -113.4 -1.95 -113.75 -1.6 -114.05 -1.6 -114.55 -1.6 -115.05 -1.95 -115.4 -2.3 -115.7 -2.8 -115.7 -3.3 -115.7 -3.65 -115.35M-9.95 -118.65Q-9.1 -118.65 -8.55 -118.2 -8 -117.75 -8 -116.95 -8 -116.2 -8.6 -115.75 -9.2 -115.25 -10.15 -115.25 -10.65 -115.25 -11.2 -115.55 -11.7 -115.9 -12 -116.45L-13.55 -115.5Q-13.05 -114.55 -12.1 -113.95 -11.15 -113.4 -10.15 -113.4 -8.35 -113.4 -7.25 -114.4 -6.15 -115.35 -6.15 -116.95 -6.15 -118.5 -7.1 -119.35 -8.05 -120.25 -9.45 -120.25 -10.7 -120.25 -11.3 -119.7L-10.95 -121.75 -6.8 -121.75 -6.8 -123.45 -12.45 -123.45 -13.25 -118.3 -12.2 -117.65Q-11.25 -118.65 -9.95 -118.65M-31.95 -100.85Q-33.45 -100.85 -34.4 -99.95 -35.4 -99.1 -35.4 -97.7 -35.45 -96.2 -34.5 -95.25 -33.6 -94.35 -32.4 -94.35 -31.7 -94.35 -31.1 -94.7 -30.55 -95.05 -30.4 -95.45 -30.35 -94.2 -30.8 -93.3 -31.3 -92.4 -32.3 -92.4 -33.2 -92.4 -33.65 -93.35L-35.3 -92.6Q-34.5 -90.8 -32.35 -90.7 -29.95 -90.6 -29.05 -92.85 -28.35 -94.6 -28.55 -97.45 -28.7 -98.95 -29.65 -99.9 -30.55 -100.8 -31.95 -100.85M-31 -98.6Q-30.55 -98.15 -30.55 -97.5 -30.55 -96.9 -31 -96.45 -31.45 -96.05 -32.1 -96.05 -32.7 -96.1 -33.1 -96.55 -33.55 -96.95 -33.5 -97.6 -33.5 -98.2 -33.05 -98.65 -32.65 -99.05 -32 -99.05 -31.4 -99.05 -31 -98.6M-36.2 -115.35Q-36.55 -115.05 -36.55 -114.55 -36.55 -114.05 -36.2 -113.75 -35.85 -113.4 -35.35 -113.4 -34.85 -113.4 -34.5 -113.75 -34.15 -114.05 -34.15 -114.55 -34.15 -115.05 -34.5 -115.4 -34.85 -115.7 -35.35 -115.7 -35.85 -115.7 -36.2 -115.35M-27.2 -120.65Q-27.2 -120.05 -27.8 -119.35L-31.85 -114.5 -31.85 -113.55 -25.55 -113.55 -25.55 -115.35 -28.9 -115.35 -26.4 -118.1Q-25.35 -119.3 -25.35 -120.65 -25.35 -121.95 -26.3 -122.8 -27.25 -123.65 -28.55 -123.65 -29.9 -123.65 -30.8 -122.85 -31.7 -122.05 -31.9 -120.7L-30.2 -120.4Q-30.1 -121.05 -29.65 -121.45 -29.25 -121.85 -28.65 -121.85 -28 -121.85 -27.6 -121.5 -27.2 -121.15 -27.2 -120.65M-41.25 -100.85Q-42.55 -100.85 -43.45 -100.05 -44.35 -99.25 -44.55 -97.95L-42.85 -97.65Q-42.75 -98.25 -42.35 -98.65 -41.9 -99.05 -41.35 -99.05 -40.7 -99.05 -40.3 -98.7 -39.9 -98.4 -39.9 -97.9 -39.9 -97.3 -40.5 -96.6L-44.5 -91.8 -44.5 -90.85 -38.25 -90.85 -38.25 -92.6 -41.55 -92.6 -39.15 -95.4Q-38.1 -96.55 -38.1 -97.9 -38.1 -99.15 -39 -100 -39.95 -100.85 -41.25 -100.85M-52.55 -101.65L-54.35 -101.65 -54.35 -90.85 -52.55 -90.85 -52.55 -91.8Q-52.25 -91.3 -51.65 -91 -51.05 -90.7 -50.35 -90.7 -48.9 -90.7 -47.9 -91.7 -46.9 -92.7 -46.9 -94.35 -46.9 -96 -47.9 -97 -48.95 -98 -50.35 -98 -51.05 -98 -51.65 -97.7 -52.25 -97.45 -52.55 -96.9L-52.55 -101.65M-49.35 -95.75Q-48.8 -95.2 -48.8 -94.35 -48.8 -93.55 -49.35 -93 -49.85 -92.45 -50.65 -92.45 -51.4 -92.45 -51.95 -93 -52.5 -93.55 -52.5 -94.35 -52.5 -95.25 -51.95 -95.75 -51.4 -96.25 -50.65 -96.25 -49.85 -96.25 -49.35 -95.75M-60.45 -122L-60.45 -120.35 -58.8 -121 -58.8 -113.55 -56.95 -113.55 -56.95 -123.6 -60.45 -122M-49.45 -120.65Q-49.45 -120.05 -50.05 -119.35L-54.1 -114.5 -54.1 -113.55 -47.8 -113.55 -47.8 -115.35 -51.15 -115.35 -48.65 -118.1Q-47.6 -119.3 -47.6 -120.65 -47.6 -121.95 -48.55 -122.8 -49.5 -123.65 -50.8 -123.65 -52.15 -123.65 -53.05 -122.85 -53.95 -122.05 -54.15 -120.7L-52.45 -120.4Q-52.35 -121.05 -51.9 -121.45 -51.5 -121.85 -50.9 -121.85 -50.25 -121.85 -49.85 -121.5 -49.45 -121.15 -49.45 -120.65M-45.45 -121.7L-41.15 -121.7 -45.1 -113.55 -42.95 -113.55 -38.2 -123.45 -45.45 -123.45 -45.45 -121.7M-67.2 -99.35Q-68.05 -100.85 -70.1 -100.85 -73.75 -100.85 -73.75 -95.75 -73.75 -90.7 -70.1 -90.7 -66.5 -90.7 -66.5 -95.75 -66.5 -98 -67.2 -99.35M-68.35 -95.75Q-68.35 -92.5 -70.1 -92.5 -71.9 -92.5 -71.9 -95.75 -71.9 -99.05 -70.1 -99.05 -68.35 -99.05 -68.35 -95.75M-76.95 -100.8L-80.45 -99.25 -80.45 -97.6 -78.8 -98.25 -78.8 -90.85 -76.95 -90.85 -76.95 -100.8M-73.25 -120.2Q-73.4 -121.75 -74.35 -122.65 -75.3 -123.6 -76.7 -123.65 -78.2 -123.65 -79.2 -122.75 -80.2 -121.85 -80.2 -120.45 -80.2 -118.95 -79.3 -118 -78.4 -117.1 -77.15 -117.1 -76.45 -117.1 -75.85 -117.45 -75.3 -117.8 -75.15 -118.2 -75.05 -116.9 -75.55 -116.05 -76.05 -115.15 -77.05 -115.15 -77.95 -115.15 -78.4 -116.05L-80.1 -115.35Q-79.25 -113.5 -77.15 -113.4 -74.7 -113.3 -73.75 -115.6 -73.05 -117.35 -73.25 -120.2M-75.3 -120.3Q-75.3 -119.65 -75.75 -119.25 -76.2 -118.8 -76.85 -118.85 -77.45 -118.85 -77.9 -119.3 -78.3 -119.75 -78.3 -120.35 -78.3 -121 -77.85 -121.4 -77.4 -121.85 -76.75 -121.85 -76.15 -121.85 -75.7 -121.4 -75.3 -120.95 -75.3 -120.3M-62.8 -113.75Q-62.45 -114.05 -62.45 -114.55 -62.45 -115.05 -62.8 -115.4 -63.15 -115.7 -63.65 -115.7 -64.15 -115.7 -64.5 -115.35 -64.85 -115.05 -64.85 -114.55 -64.85 -114.05 -64.5 -113.75 -64.15 -113.4 -63.65 -113.4 -63.15 -113.4 -62.8 -113.75M-69.55 -113.55L-67.7 -113.55 -67.7 -123.6 -71.2 -122 -71.2 -120.35 -69.55 -121 -69.55 -113.55M89.65 147.3Q89.3 147 88.8 147 88.3 147 87.95 147.35 87.6 147.65 87.6 148.15 87.6 148.65 87.95 148.95 88.3 149.3 88.8 149.3 89.3 149.3 89.65 148.95 89.8 148.8 89.9 148.65 90 148.4 90 148.15 90 147.9 89.9 147.65 89.8 147.45 89.65 147.3M84.65 147.3Q84.3 147 83.8 147 83.3 147 82.95 147.35 82.6 147.65 82.6 148.15 82.6 148.65 82.95 148.95 83.3 149.3 83.8 149.3 84.3 149.3 84.65 148.95 85 148.65 85 148.15 85 147.65 84.65 147.3M39.95 138.35L38.15 138.35 38.15 143.1Q37.55 142 35.95 142 34.5 142 33.5 143 32.5 144 32.5 145.65 32.5 147.3 33.5 148.3 34.5 149.3 35.95 149.3 36.65 149.3 37.25 149 37.85 148.7 38.15 148.2L38.15 149.15 39.95 149.15 39.95 138.35M34.4 145.65Q34.4 144.8 34.9 144.25 35.45 143.75 36.25 143.75 36.95 143.75 37.55 144.25 38.1 144.8 38.1 145.65 38.1 146.5 37.55 147 37 147.55 36.25 147.55 35.45 147.55 34.9 147 34.4 146.45 34.4 145.65M29.6 139.2L26.1 140.75 26.1 142.4 27.75 141.75 27.75 149.15 29.6 149.15 29.6 139.2M19.5 142.15L19.5 143.6 20.85 143.6 20.85 149.15 22.65 149.15 22.65 143.6 24.15 143.6 24.15 142.15 22.65 142.15 22.65 141.6Q22.65 140.1 23.8 140.1L24.6 140.1 24.6 138.35 23.8 138.35Q22.35 138.35 21.6 139.2 20.85 140.05 20.85 141.6L20.85 142.15 19.5 142.15M15.6 141.8L17.3 141.05Q16.45 139.25 14.35 139.15 11.95 139.1 11 141.35 10.3 143.05 10.55 145.9 10.65 147.45 11.6 148.35 12.55 149.25 13.9 149.3 15.4 149.35 16.4 148.45 17.35 147.55 17.4 146.15 17.4 144.65 16.5 143.75 15.6 142.8 14.35 142.8 13.65 142.8 13.1 143.15 12.55 143.5 12.4 143.95 12.3 142.65 12.8 141.8 13.3 140.9 14.3 140.9 15.15 140.9 15.6 141.8M14.05 144.55Q14.65 144.55 15.1 145 15.5 145.4 15.5 146.05 15.5 146.65 15.05 147.1 14.6 147.5 14 147.5 13.4 147.5 12.95 147.05 12.5 146.65 12.5 146 12.55 145.35 13 144.95 13.45 144.5 14.05 144.55M7.1 141.85Q7.1 140.75 6.25 139.95 5.45 139.15 4.25 139.15 3 139.15 2.15 139.95 1.35 140.75 1.35 141.85 1.35 142.8 2.05 143.5 .6 144.35 .6 145.95 .6 147.35 1.65 148.3 2.75 149.3 4.25 149.3 5.7 149.3 6.8 148.3 7.85 147.35 7.85 145.95 7.85 144.35 6.4 143.5 7.1 142.8 7.1 141.85M4.25 140.85Q4.7 140.85 5 141.15 5.35 141.45 5.35 141.9 5.35 142.35 5.05 142.65 4.75 142.95 4.25 142.95 3.75 142.95 3.45 142.65 3.1 142.35 3.1 141.9 3.1 141.45 3.4 141.2 3.75 140.85 4.25 140.85M2.9 144.8Q3.4 144.3 4.05 144.3L4.35 144.3Q5 144.3 5.5 144.8 6 145.25 6 145.9 6 146.6 5.5 147.1 4.95 147.55 4.25 147.55 3.5 147.55 2.95 147.1 2.45 146.6 2.45 145.9 2.45 145.3 2.9 144.8M17.85 122.7L16.5 122.7 16.5 116.55 14.75 116.55 9.8 124.3 14.7 124.3 14.7 126.45 16.5 126.45 16.5 124.3 17.85 124.3 17.85 122.7M14.7 119.2L14.7 122.7 12.5 122.7 14.7 119.2M4.85 116.35Q3.5 116.35 2.6 117.15 1.7 117.95 1.5 119.3L3.2 119.6Q3.3 118.95 3.75 118.55 4.15 118.15 4.75 118.15 5.4 118.15 5.8 118.5 6.2 118.85 6.2 119.35 6.2 119.95 5.6 120.65L1.55 125.5 1.55 126.45 7.85 126.45 7.85 124.65 4.5 124.65 7 121.9Q8.05 120.7 8.05 119.35 8.05 118.05 7.1 117.2 6.15 116.35 4.85 116.35M26.6 117.85Q25.8 116.35 23.7 116.35 20 116.35 20 121.5 20 126.6 23.7 126.6 27.35 126.6 27.35 121.5 27.35 119.2 26.6 117.85M23.7 118.2Q25.5 118.2 25.5 121.5 25.5 124.8 23.7 124.8 21.9 124.8 21.9 121.5 21.9 118.2 23.7 118.2M78.8 147Q78.3 147 77.95 147.35 77.6 147.65 77.6 148.15 77.6 148.65 77.95 148.95 78.3 149.3 78.8 149.3 79.3 149.3 79.65 148.95 80 148.65 80 148.15 80 147.65 79.65 147.3 79.3 147 78.8 147M70.45 147.15Q69.95 146.8 69.6 146.25L68.05 147.25Q68.6 148.15 69.55 148.75 70.45 149.3 71.5 149.3 73.25 149.3 74.3 148.3 75.4 147.35 75.4 145.8 75.4 144.25 74.45 143.4 73.55 142.5 72.15 142.5 70.95 142.5 70.3 143.05L70.65 141.05 74.8 141.05 74.8 139.35 69.2 139.35 68.35 144.45 69.4 145.1Q70.35 144.1 71.7 144.1 72.5 144.1 73.05 144.55 73.55 145 73.55 145.8 73.55 146.5 73 147 72.4 147.5 71.5 147.5 70.95 147.5 70.45 147.15M66.5 140.1L66.5 138.35 65.7 138.35Q64.25 138.35 63.5 139.2 62.75 140.05 62.75 141.6L62.75 142.15 61.4 142.15 61.4 143.6 62.75 143.6 62.75 149.15 64.55 149.15 64.55 143.6 66.05 143.6 66.05 142.15 64.55 142.15 64.55 141.6Q64.55 140.1 65.7 140.1L66.5 140.1M55.6 139.15Q51.95 139.15 51.95 144.25 51.95 149.3 55.6 149.3 59.2 149.3 59.2 144.25 59.2 142 58.5 140.65 57.65 139.15 55.6 139.15M57.35 144.25Q57.35 147.5 55.6 147.5 53.8 147.5 53.8 144.25 53.8 140.95 55.6 140.95 57.35 140.95 57.35 144.25M42.65 139.35L42.65 141.05 46.95 141.05 43.05 149.15 45.15 149.15 49.85 139.35 42.65 139.35M44.75 59.2Q44 60.05 44 61.6L44 62.15 42.65 62.15 42.65 63.6 44 63.6 44 69.15 45.8 69.15 45.8 63.6 47.3 63.6 47.3 62.15 45.8 62.15 45.8 61.6Q45.8 60.1 46.95 60.1L47.75 60.1 47.75 58.35 46.95 58.35Q45.5 58.35 44.75 59.2M51.25 61.55Q51.8 60.85 52.75 60.95 53.65 61.15 53.65 62.05 53.65 62.4 53.35 62.8 53.15 63.15 52.5 63.15L51.45 63.15 51.45 64.8 52.5 64.8Q53.35 64.75 53.8 65.3 54.05 65.65 54.05 66.05 54.05 66.65 53.6 67.1 53.1 67.5 52.4 67.5 51.9 67.5 51.5 67.2 51.05 66.9 50.8 66.4L49.2 67.2Q49.6 68.1 50.45 68.65 51.25 69.25 52.25 69.3 53.7 69.4 54.8 68.6 55.9 67.85 56.05 66.5 56.1 65.7 55.6 64.9 55.15 64.1 54.4 63.85 55.6 63.15 55.6 61.9 55.6 60.8 54.8 60 54.05 59.25 52.75 59.15 51.85 59.1 51 59.5 50.2 59.9 49.8 60.6L51.25 61.55M79.85 67.3Q79.5 67 79 67 78.5 67 78.15 67.35 77.8 67.65 77.8 68.15 77.8 68.65 78.15 68.95 78.5 69.3 79 69.3 79.5 69.3 79.85 68.95 80.2 68.65 80.2 68.15 80.2 67.65 79.85 67.3M64.4 60.1Q63.5 59.2 62.1 59.15 60.6 59.15 59.65 60.05 58.65 60.9 58.65 62.3 58.6 63.8 59.55 64.75 60.45 65.65 61.65 65.65 62.35 65.65 62.95 65.3 63.5 64.95 63.65 64.55 63.7 65.8 63.25 66.7 62.75 67.6 61.75 67.6 60.85 67.6 60.4 66.65L58.75 67.4Q59.55 69.2 61.7 69.3 64.1 69.4 65 67.15 65.7 65.4 65.5 62.55 65.35 61.05 64.4 60.1M61 61.35Q61.4 60.95 62.05 60.95 62.65 60.95 63.05 61.4 63.5 61.85 63.5 62.5 63.5 63.1 63.05 63.55 62.6 63.95 61.95 63.95 61.35 63.9 60.95 63.45 60.5 63.05 60.55 62.4 60.55 61.8 61 61.35M74.8 61.05L74.8 59.35 69.2 59.35 68.35 64.45 69.4 65.1Q70.35 64.1 71.7 64.1 72.5 64.1 73.05 64.55 73.55 65 73.55 65.8 73.55 66.5 73 67 72.4 67.5 71.5 67.5 70.95 67.5 70.45 67.15 69.95 66.8 69.6 66.25L68.05 67.25Q68.6 68.15 69.55 68.75 70.45 69.3 71.5 69.3 73.25 69.3 74.3 68.3 75.4 67.35 75.4 65.8 75.4 64.25 74.45 63.4 73.55 62.5 72.15 62.5 70.95 62.5 70.3 63.05L70.65 61.05 74.8 61.05M2.05 64.25Q2.05 62 1.35 60.65 .5 59.15 -1.55 59.15 -5.2 59.15 -5.2 64.25 -5.2 69.3 -1.55 69.3 2.05 69.3 2.05 64.25M-1.55 67.5Q-3.35 67.5 -3.35 64.25 -3.35 60.95 -1.55 60.95 .2 60.95 .2 64.25 .2 67.5 -1.55 67.5M9.35 58.35L8.55 58.35Q7.1 58.35 6.35 59.2 5.6 60.05 5.6 61.6L5.6 62.15 4.25 62.15 4.25 63.6 5.6 63.6 5.6 69.15 7.4 69.15 7.4 63.6 8.9 63.6 8.9 62.15 7.4 62.15 7.4 61.6Q7.4 60.1 8.55 60.1L9.35 60.1 9.35 58.35M14.35 59.2L10.85 60.75 10.85 62.4 12.5 61.75 12.5 69.15 14.35 69.15 14.35 59.2M24.8 62.15L23 62.15 23 63Q22.3 62 20.8 62 19.35 62 18.3 63 17.25 64 17.25 65.65 17.25 67.25 18.3 68.3 19.35 69.3 20.8 69.3 21.45 69.3 22.05 69 22.7 68.75 23 68.25L23 69.15 24.8 69.15 24.8 62.15M22.4 64.25Q23 64.8 23 65.65 23.05 66.9 21.8 67.4 21.25 67.6 20.7 67.5 20.1 67.4 19.7 67 19.15 66.45 19.15 65.65 19.15 64.8 19.7 64.3 20.3 63.75 21.05 63.75 21.85 63.75 22.4 64.25M27.55 59.35L27.55 61.05 31.85 61.05 27.95 69.15 30.05 69.15 34.75 59.35 27.55 59.35M38.4 59.2Q37.65 60.05 37.65 61.6L37.65 62.15 36.3 62.15 36.3 63.6 37.65 63.6 37.65 69.15 39.45 69.15 39.45 63.6 40.95 63.6 40.95 62.15 39.45 62.15 39.45 61.6Q39.45 60.1 40.6 60.1L41.4 60.1 41.4 58.35 40.6 58.35Q39.15 58.35 38.4 59.2M11.1 44.3Q10.6 44.3 10.25 44.65 9.9 44.95 9.9 45.45 9.9 45.95 10.25 46.25 10.6 46.6 11.1 46.6 11.6 46.6 11.95 46.25 12.3 45.95 12.3 45.45 12.3 44.95 11.95 44.6 11.6 44.3 11.1 44.3M19.45 41.8Q20 42.25 20 43.05 20 43.8 19.4 44.25 18.8 44.75 17.85 44.75 17.35 44.75 16.8 44.45 16.3 44.1 16 43.55L14.45 44.5Q14.95 45.45 15.9 46.05 16.85 46.6 17.85 46.6 19.65 46.6 20.75 45.6 21.85 44.65 21.85 43.05 21.85 41.5 20.9 40.65 19.95 39.75 18.55 39.75 17.3 39.75 16.7 40.3L17.05 38.25 21.2 38.25 21.2 36.55 15.55 36.55 14.75 41.7 15.8 42.35Q16.75 41.35 18.05 41.35 18.9 41.35 19.45 41.8M6.45 36.55L4.7 36.55 -.25 44.3 4.65 44.3 4.65 46.45 6.45 46.45 6.45 44.3 7.8 44.3 7.8 42.7 6.45 42.7 6.45 36.55M4.65 39.2L4.65 42.7 2.45 42.7 4.65 39.2M84.85 67.3Q84.5 67 84 67 83.5 67 83.15 67.35 82.8 67.65 82.8 68.15 82.8 68.65 83.15 68.95 83.5 69.3 84 69.3 84.5 69.3 84.85 68.95 85.2 68.65 85.2 68.15 85.2 67.65 84.85 67.3M89.85 67.3Q89.5 67 89 67 88.5 67 88.15 67.35 87.8 67.65 87.8 68.15 87.8 68.65 88.15 68.95 88.5 69.3 89 69.3 89.5 69.3 89.85 68.95 90 68.8 90.1 68.65 90.2 68.4 90.2 68.15 90.2 67.9 90.1 67.65 90 67.45 89.85 67.3M82.6 -13Q82.1 -13 81.75 -12.65 81.4 -12.35 81.4 -11.85 81.4 -11.35 81.75 -11.05 82.1 -10.7 82.6 -10.7 83.1 -10.7 83.45 -11.05 83.8 -11.35 83.8 -11.85 83.8 -12.35 83.45 -12.7 83.1 -13 82.6 -13M87.6 -13Q87.1 -13 86.75 -12.65 86.4 -12.35 86.4 -11.85 86.4 -11.35 86.75 -11.05 87.1 -10.7 87.6 -10.7 88.1 -10.7 88.45 -11.05 88.6 -11.2 88.7 -11.35 88.8 -11.6 88.8 -11.85 88.8 -12.1 88.7 -12.35 88.6 -12.55 88.45 -12.7 88.1 -13 87.6 -13M86.7 -92.65Q86.35 -92.35 86.35 -91.85 86.35 -91.35 86.7 -91.05 87.05 -90.7 87.55 -90.7 88.05 -90.7 88.4 -91.05 88.55 -91.2 88.65 -91.35 88.75 -91.6 88.75 -91.85 88.75 -92.1 88.65 -92.35 88.55 -92.55 88.4 -92.7 88.05 -93 87.55 -93 87.05 -93 86.7 -92.65M83.75 -91.85Q83.75 -92.35 83.4 -92.7 83.05 -93 82.55 -93 82.05 -93 81.7 -92.65 81.35 -92.35 81.35 -91.85 81.35 -91.35 81.7 -91.05 82.05 -90.7 82.55 -90.7 83.05 -90.7 83.4 -91.05 83.75 -91.35 83.75 -91.85M71.95 -17.9Q71.95 -17.3 71.35 -16.6L67.35 -11.8 67.35 -10.85 73.6 -10.85 73.6 -12.6 70.3 -12.6 72.7 -15.4Q73.75 -16.55 73.75 -17.9 73.75 -19.15 72.85 -20 71.9 -20.85 70.6 -20.85 69.3 -20.85 68.4 -20.05 67.5 -19.25 67.3 -17.95L69 -17.65Q69.1 -18.25 69.5 -18.65 69.95 -19.05 70.5 -19.05 71.15 -19.05 71.55 -18.7 71.95 -18.4 71.95 -17.9M78.45 -12.7Q78.1 -13 77.6 -13 77.1 -13 76.75 -12.65 76.4 -12.35 76.4 -11.85 76.4 -11.35 76.75 -11.05 77.1 -10.7 77.6 -10.7 78.1 -10.7 78.45 -11.05 78.8 -11.35 78.8 -11.85 78.8 -12.35 78.45 -12.7M46.25 -15.75Q46.25 -18 45.55 -19.35 44.7 -20.85 42.65 -20.85 39 -20.85 39 -15.75 39 -10.7 42.65 -10.7 46.25 -10.7 46.25 -15.75M40.85 -15.75Q40.85 -19.05 42.65 -19.05 44.4 -19.05 44.4 -15.75 44.4 -12.5 42.65 -12.5 40.85 -12.5 40.85 -15.75M55.6 -12.4L54.2 -13.15Q53.7 -12.25 52.45 -12.25 51.65 -12.25 51.15 -12.65 50.6 -13.05 50.5 -13.75L55.85 -13.75 55.9 -14.35Q55.9 -16 54.85 -17 53.85 -18 52.35 -18 50.8 -18 49.75 -17 48.7 -16 48.7 -14.35 48.7 -12.75 49.75 -11.7 50.8 -10.7 52.35 -10.7 53.4 -10.7 54.25 -11.1 55.15 -11.55 55.6 -12.4M52.35 -16.45Q53.05 -16.45 53.5 -16.1 54 -15.7 54.1 -15L50.5 -15Q50.6 -15.65 51.1 -16.05 51.6 -16.45 52.35 -16.45M59.7 -20.5Q58.9 -20.1 58.5 -19.4L59.95 -18.45Q60.5 -19.15 61.45 -19.05 62.35 -18.85 62.35 -17.95 62.35 -17.6 62.05 -17.2 61.85 -16.85 61.2 -16.85L60.15 -16.85 60.15 -15.2 61.2 -15.2Q62.05 -15.25 62.5 -14.7 62.75 -14.35 62.75 -13.95 62.75 -13.35 62.3 -12.9 61.8 -12.5 61.1 -12.5 60.6 -12.5 60.2 -12.8 59.75 -13.1 59.5 -13.6L57.9 -12.8Q58.3 -11.9 59.15 -11.35 59.95 -10.75 60.95 -10.7 62.4 -10.6 63.5 -11.4 64.6 -12.15 64.75 -13.5 64.8 -14.3 64.3 -15.1 63.85 -15.9 63.1 -16.15 64.3 -16.85 64.3 -18.1 64.3 -19.2 63.5 -20 62.75 -20.75 61.45 -20.85 60.55 -20.9 59.7 -20.5M32.3 -19.25L32.3 -17.6 33.95 -18.25 33.95 -10.85 35.8 -10.85 35.8 -20.8 32.3 -19.25M30.8 -19.9L30.8 -21.65 30 -21.65Q28.55 -21.65 27.8 -20.8 27.05 -19.95 27.05 -18.4L27.05 -17.85 25.7 -17.85 25.7 -16.4 27.05 -16.4 27.05 -10.85 28.85 -10.85 28.85 -16.4 30.35 -16.4 30.35 -17.85 28.85 -17.85 28.85 -18.4Q28.85 -19.9 30 -19.9L30.8 -19.9M3.45 -17.6L5.1 -18.25 5.1 -10.85 6.95 -10.85 6.95 -20.8 3.45 -19.25 3.45 -17.6M1 -15.75Q1 -18 .3 -19.35 -.55 -20.85 -2.6 -20.85 -6.25 -20.85 -6.25 -15.75 -6.25 -10.7 -2.6 -10.7 1 -10.7 1 -15.75M-2.6 -12.5Q-4.4 -12.5 -4.4 -15.75 -4.4 -19.05 -2.6 -19.05 -.85 -19.05 -.85 -15.75 -.85 -12.5 -2.6 -12.5M13.9 -21.65Q12.45 -21.65 11.7 -20.8 10.95 -19.95 10.95 -18.4L10.95 -17.85 9.6 -17.85 9.6 -16.4 10.95 -16.4 10.95 -10.85 12.75 -10.85 12.75 -16.4 14.25 -16.4 14.25 -17.85 12.75 -17.85 12.75 -18.4Q12.75 -19.9 13.9 -19.9L14.7 -19.9 14.7 -21.65 13.9 -21.65M20 -20.85Q18.75 -20.85 17.9 -20.05 17.1 -19.25 17.1 -18.15 17.1 -17.2 17.8 -16.5 16.35 -15.65 16.35 -14.05 16.35 -12.65 17.4 -11.7 18.5 -10.7 20 -10.7 21.45 -10.7 22.55 -11.7 23.6 -12.65 23.6 -14.05 23.6 -15.65 22.15 -16.5 22.85 -17.2 22.85 -18.15 22.85 -19.25 22 -20.05 21.2 -20.85 20 -20.85M19.15 -18.8Q19.5 -19.15 20 -19.15 20.45 -19.15 20.75 -18.85 21.1 -18.55 21.1 -18.1 21.1 -17.65 20.8 -17.35 20.5 -17.05 20 -17.05 19.5 -17.05 19.2 -17.35 18.85 -17.65 18.85 -18.1 18.85 -18.55 19.15 -18.8M19.8 -15.7L20.1 -15.7Q20.75 -15.7 21.25 -15.2 21.75 -14.75 21.75 -14.1 21.75 -13.4 21.25 -12.9 20.7 -12.45 20 -12.45 19.25 -12.45 18.7 -12.9 18.2 -13.4 18.2 -14.1 18.2 -14.7 18.65 -15.2 19.15 -15.7 19.8 -15.7M.4 -33.75Q.75 -34.05 .75 -34.55 .75 -35.05 .4 -35.4 .05 -35.7 -.45 -35.7 -.95 -35.7 -1.3 -35.35 -1.65 -35.05 -1.65 -34.55 -1.65 -34.05 -1.3 -33.75 -.95 -33.4 -.45 -33.4 .05 -33.4 .4 -33.75M3.7 -40.95Q3.7 -39.95 4.45 -39.25 2.95 -38.4 2.95 -36.75 2.95 -35.35 4.05 -34.4 5.1 -33.4 6.65 -33.4 8.15 -33.4 9.2 -34.4 10.25 -35.35 10.25 -36.75 10.25 -38.4 8.8 -39.25 9.55 -39.95 9.55 -40.95 9.55 -42.05 8.7 -42.85 7.85 -43.65 6.65 -43.65 5.4 -43.65 4.55 -42.85 3.7 -42.05 3.7 -40.95M5.5 -40.9Q5.5 -41.3 5.8 -41.6 6.15 -41.9 6.65 -41.9 7.1 -41.9 7.4 -41.6 7.75 -41.3 7.75 -40.9 7.75 -40.45 7.45 -40.15 7.15 -39.8 6.65 -39.8 6.15 -39.8 5.8 -40.1 5.5 -40.45 5.5 -40.9M5.3 -37.95Q5.75 -38.45 6.45 -38.45L6.75 -38.45Q7.4 -38.45 7.9 -37.95 8.4 -37.5 8.4 -36.8 8.4 -36.15 7.9 -35.65 7.35 -35.15 6.65 -35.15 5.9 -35.15 5.35 -35.65 4.8 -36.15 4.8 -36.8 4.8 -37.45 5.3 -37.95M14.4 -38.85Q14.35 -40.1 14.8 -41 15.3 -41.9 16.35 -41.9 17.25 -41.9 17.65 -41L19.4 -41.7Q18.5 -43.55 16.4 -43.65 13.95 -43.7 13.05 -41.45 12.3 -39.7 12.55 -36.85 12.65 -35.3 13.6 -34.35 14.55 -33.4 15.95 -33.4 17.45 -33.35 18.45 -34.3 19.45 -35.2 19.45 -36.6 19.5 -38.1 18.55 -39 17.65 -39.95 16.4 -39.95 15.7 -39.95 15.1 -39.6 14.55 -39.25 14.4 -38.85M16.1 -38.2Q16.7 -38.2 17.15 -37.75 17.55 -37.3 17.55 -36.7 17.55 -36.05 17.1 -35.6 16.65 -35.2 16.05 -35.2 15.4 -35.2 15 -35.65 14.55 -36.1 14.55 -36.75 14.6 -37.35 15.05 -37.8 15.5 -38.25 16.1 -38.2M14.7 -97Q14 -98 12.5 -98 11.05 -98 10 -97 8.95 -96 8.95 -94.35 8.95 -92.75 10 -91.7 11.05 -90.7 12.5 -90.7 13.15 -90.7 13.75 -91 14.4 -91.25 14.7 -91.75L14.7 -90.85 16.5 -90.85 16.5 -97.85 14.7 -97.85 14.7 -97M11.4 -93Q10.85 -93.55 10.85 -94.35 10.85 -95.2 11.4 -95.7 12 -96.25 12.75 -96.25 13.55 -96.25 14.1 -95.75 14.7 -95.2 14.7 -94.35 14.75 -93.1 13.5 -92.6 12.95 -92.4 12.4 -92.5 11.8 -92.6 11.4 -93M77.55 -90.7Q78.05 -90.7 78.4 -91.05 78.75 -91.35 78.75 -91.85 78.75 -92.35 78.4 -92.7 78.05 -93 77.55 -93 77.05 -93 76.7 -92.65 76.35 -92.35 76.35 -91.85 76.35 -91.35 76.7 -91.05 77.05 -90.7 77.55 -90.7M42.1 -99.35Q41.25 -100.85 39.2 -100.85 35.55 -100.85 35.55 -95.75 35.55 -90.7 39.2 -90.7 42.8 -90.7 42.8 -95.75 42.8 -98 42.1 -99.35M39.2 -92.5Q37.4 -92.5 37.4 -95.75 37.4 -99.05 39.2 -99.05 40.95 -99.05 40.95 -95.75 40.95 -92.5 39.2 -92.5M70.65 -100.85Q69.35 -100.85 68.45 -100.05 67.55 -99.25 67.35 -97.95L69.05 -97.65Q69.15 -98.25 69.55 -98.65 70 -99.05 70.55 -99.05 71.2 -99.05 71.6 -98.7 72 -98.4 72 -97.9 72 -97.3 71.4 -96.6L67.4 -91.8 67.4 -90.85 73.65 -90.85 73.65 -92.6 70.35 -92.6 72.75 -95.4Q73.8 -96.55 73.8 -97.9 73.8 -99.15 72.9 -100 71.95 -100.85 70.65 -100.85M48.75 -100.8L45.25 -99.25 45.25 -97.6 46.9 -98.25 46.9 -90.85 48.75 -90.85 48.75 -100.8M56.5 -101.65L55.7 -101.65Q54.25 -101.65 53.5 -100.8 52.75 -99.95 52.75 -98.4L52.75 -97.85 51.4 -97.85 51.4 -96.4 52.75 -96.4 52.75 -90.85 54.55 -90.85 54.55 -96.4 56.05 -96.4 56.05 -97.85 54.55 -97.85 54.55 -98.4Q54.55 -99.9 55.7 -99.9L56.5 -99.9 56.5 -101.65M59.75 -100.5Q58.95 -100.1 58.55 -99.4L60 -98.45Q60.55 -99.15 61.5 -99.05 62.4 -98.85 62.4 -97.95 62.4 -97.6 62.1 -97.2 61.9 -96.85 61.25 -96.85L60.2 -96.85 60.2 -95.2 61.25 -95.2Q62.1 -95.25 62.55 -94.7 62.8 -94.35 62.8 -93.95 62.8 -93.35 62.35 -92.9 61.85 -92.5 61.15 -92.5 60.65 -92.5 60.25 -92.8 59.8 -93.1 59.55 -93.6L57.95 -92.8Q58.35 -91.9 59.2 -91.35 60 -90.75 61 -90.7 62.45 -90.6 63.55 -91.4 64.65 -92.15 64.8 -93.5 64.85 -94.3 64.35 -95.1 63.9 -95.9 63.15 -96.15 64.35 -96.85 64.35 -98.1 64.35 -99.2 63.55 -100 62.8 -100.75 61.5 -100.85 60.6 -100.9 59.75 -100.5M32.95 -99.9L33.75 -99.9 33.75 -101.65 32.95 -101.65Q31.5 -101.65 30.75 -100.8 30 -99.95 30 -98.4L30 -97.85 28.65 -97.85 28.65 -96.4 30 -96.4 30 -90.85 31.8 -90.85 31.8 -96.4 33.3 -96.4 33.3 -97.85 31.8 -97.85 31.8 -98.4Q31.8 -99.9 32.95 -99.9M24.95 -100.05Q24.15 -100.85 22.95 -100.85 21.7 -100.85 20.85 -100.05 20.05 -99.25 20.05 -98.15 20.05 -97.2 20.75 -96.5 19.3 -95.65 19.3 -94.05 19.3 -92.65 20.35 -91.7 21.45 -90.7 22.95 -90.7 24.4 -90.7 25.5 -91.7 26.55 -92.65 26.55 -94.05 26.55 -95.65 25.1 -96.5 25.8 -97.2 25.8 -98.15 25.8 -99.25 24.95 -100.05M23.75 -97.35Q23.45 -97.05 22.95 -97.05 22.45 -97.05 22.15 -97.35 21.8 -97.65 21.8 -98.1 21.8 -98.55 22.1 -98.8 22.45 -99.15 22.95 -99.15 23.4 -99.15 23.7 -98.85 24.05 -98.55 24.05 -98.1 24.05 -97.65 23.75 -97.35M21.65 -92.9Q21.15 -93.4 21.15 -94.1 21.15 -94.7 21.6 -95.2 22.1 -95.7 22.75 -95.7L23.05 -95.7Q23.7 -95.7 24.2 -95.2 24.7 -94.75 24.7 -94.1 24.7 -93.4 24.2 -92.9 23.65 -92.45 22.95 -92.45 22.2 -92.45 21.65 -92.9M6.65 -101.65Q5.2 -101.65 4.45 -100.8 3.7 -99.95 3.7 -98.4L3.7 -97.85 2.35 -97.85 2.35 -96.4 3.7 -96.4 3.7 -90.85 5.5 -90.85 5.5 -96.4 7 -96.4 7 -97.85 5.5 -97.85 5.5 -98.4Q5.5 -99.9 6.65 -99.9L7.45 -99.9 7.45 -101.65 6.65 -101.65M6.15 -118.1Q7.2 -119.3 7.2 -120.65 7.2 -121.95 6.25 -122.8 5.3 -123.65 4 -123.65 2.65 -123.65 1.75 -122.85 .85 -122.05 .65 -120.7L2.35 -120.4Q2.45 -121.05 2.9 -121.45 3.3 -121.85 3.9 -121.85 4.55 -121.85 4.95 -121.5 5.35 -121.15 5.35 -120.65 5.35 -120.05 4.75 -119.35L.7 -114.5 .7 -113.55 7 -113.55 7 -115.35 3.65 -115.35 6.15 -118.1M10.85 -113.55L12.7 -113.55 12.7 -123.6 9.2 -122 9.2 -120.35 10.85 -121 10.85 -113.55M18.8 -121.8Q19.7 -121.65 19.7 -120.7 19.7 -120.35 19.4 -119.95 19.15 -119.6 18.55 -119.6L17.5 -119.6 17.5 -117.95 18.55 -117.95Q19.4 -118 19.85 -117.45 20.1 -117.05 20.1 -116.7 20.1 -116.05 19.65 -115.65 19.15 -115.2 18.45 -115.2 17.95 -115.2 17.5 -115.55 17.05 -115.85 16.85 -116.35L15.2 -115.5Q15.65 -114.6 16.45 -114.05 17.3 -113.45 18.3 -113.4 19.75 -113.3 20.85 -114.1 21.95 -114.9 22.1 -116.25 22.2 -117.05 21.7 -117.85 21.2 -118.65 20.45 -118.95 21.7 -119.65 21.7 -120.85 21.7 -122 20.9 -122.8 20.1 -123.6 18.8 -123.65 17.85 -123.7 17.05 -123.3 16.25 -122.9 15.8 -122.15L17.25 -121.2Q17.85 -121.95 18.8 -121.8Z"/><path fill="#6F6F6F" stroke="none" d="M-50.15 92.85L-51.95 92.85 -51.95 103.65 -50.15 103.65 -50.15 92.85M-46 96.65L-47.95 96.65 -45.25 103.1 -46.85 107.05 -44.9 107.05 -40.55 96.65 -42.5 96.65 -44.3 101 -46 96.65M-55 96.65L-56.8 96.65 -56.8 103.65 -55 103.65 -55 96.65M-55.9 92.85Q-56.4 92.85 -56.75 93.15 -57.1 93.45 -57.1 93.95 -57.1 94.4 -56.75 94.7 -56.4 95.05 -55.9 95.05 -55.4 95.05 -55.1 94.7 -54.75 94.4 -54.75 93.95 -54.75 93.45 -55.1 93.15 -55.4 92.85 -55.9 92.85M-68.95 96.65L-70.75 96.65 -70.75 103.65 -68.95 103.65 -68.95 99.9Q-68.95 98.3 -67.45 98.3 -66.9 98.3 -66.55 98.7 -66.2 99.1 -66.15 99.8L-66.15 103.65 -64.35 103.65 -64.35 99.9Q-64.35 99.15 -63.95 98.7 -63.55 98.3 -62.9 98.3 -62.35 98.3 -61.95 98.7 -61.6 99.1 -61.6 99.85L-61.6 103.65 -59.8 103.65 -59.8 99.65Q-59.8 98.1 -60.5 97.3 -61.2 96.5 -62.5 96.5 -63.95 96.5 -64.7 97.8 -65.25 96.6 -66.9 96.5 -67.55 96.5 -68.1 96.8 -68.7 97.1 -68.95 97.7L-68.95 96.65M-74.2 97.7L-78.15 97.7 -78.15 95 -73.65 95 -73.65 93.3 -80.05 93.3 -80.05 103.65 -73.5 103.65 -73.5 101.95 -78.15 101.95 -78.15 99.4 -74.2 99.4 -74.2 97.7M-61.5 16.65L-63.3 16.65 -63.3 17.5Q-64 16.5 -65.5 16.5 -66.95 16.5 -68 17.5 -69.05 18.5 -69.05 20.15 -69.05 21.75 -68 22.8 -66.95 23.8 -65.5 23.8 -64.85 23.8 -64.25 23.5 -63.6 23.25 -63.3 22.75L-63.3 23.65 -61.5 23.65 -61.5 16.65M-67.15 20.15Q-67.15 19.3 -66.6 18.8 -66 18.25 -65.25 18.25 -64.45 18.25 -63.9 18.75 -63.3 19.3 -63.3 20.15 -63.25 21.4 -64.5 21.9 -65.05 22.1 -65.6 22 -66.2 21.9 -66.6 21.5 -67.15 20.95 -67.15 20.15M-71.35 18.5Q-71.35 16.25 -72.6 14.8 -73.85 13.3 -76.05 13.3L-80.05 13.3 -80.05 23.65 -76.05 23.65Q-73.85 23.65 -72.6 22.2 -71.35 20.75 -71.35 18.5M-74 16.05Q-73.3 17 -73.3 18.5 -73.3 19.95 -74 20.95 -74.7 21.9 -76.05 21.9L-78.15 21.9 -78.15 15.05 -76.05 15.05Q-74.7 15.05 -74 16.05M-52.55 17.25Q-53.25 16.5 -54.5 16.5 -55.15 16.5 -55.7 16.8 -56.3 17.15 -56.6 17.7L-56.6 16.65 -58.4 16.65 -58.4 23.65 -56.6 23.65 -56.6 19.9Q-56.6 18.3 -55.05 18.3 -53.7 18.3 -53.7 19.85L-53.7 23.65 -51.9 23.65 -51.9 19.5Q-51.9 18.05 -52.55 17.25M-51.35 -63.35L-53.15 -63.35 -53.15 -56.35 -51.35 -56.35 -51.35 -63.35M-52.25 -67.15Q-52.75 -67.15 -53.1 -66.85 -53.45 -66.55 -53.45 -66.05 -53.45 -65.6 -53.1 -65.3 -52.75 -64.95 -52.25 -64.95 -51.75 -64.95 -51.45 -65.3 -51.1 -65.6 -51.1 -66.05 -51.1 -66.55 -51.45 -66.85 -51.75 -67.15 -52.25 -67.15M-58.5 -63.35L-60.3 -63.35 -60.3 -56.35 -58.5 -56.35 -58.5 -58.85Q-58.5 -61.8 -56.75 -61.8 -56.1 -61.8 -55.65 -61.6L-55.35 -63.25Q-55.85 -63.5 -56.5 -63.5 -57.15 -63.5 -57.7 -63.05 -58.25 -62.6 -58.5 -61.7L-58.5 -63.35M-46.5 -67.15L-48.3 -67.15 -48.3 -56.35 -46.5 -56.35 -46.5 -67.15M-75.5 -66.8Q-77.7 -66.8 -79.2 -65.25 -80.7 -63.7 -80.7 -61.5 -80.7 -59.3 -79.2 -57.75 -77.7 -56.2 -75.5 -56.2 -74.2 -56.2 -73.05 -56.75 -71.95 -57.3 -71.3 -58.3L-72.8 -59.4Q-73.8 -58 -75.5 -58 -76.9 -58 -77.85 -59 -78.75 -60.05 -78.75 -61.5 -78.75 -62.95 -77.85 -63.95 -76.85 -65 -75.5 -65 -73.85 -65 -72.85 -63.65L-71.35 -64.75Q-72.05 -65.7 -73.1 -66.25 -74.2 -66.8 -75.5 -66.8M-67.9 -63.35L-69.85 -63.35 -67.15 -56.9 -68.75 -52.95 -66.8 -52.95 -62.45 -63.35 -64.4 -63.35 -66.2 -59 -67.9 -63.35M-73.05 -143.9Q-73.05 -145.15 -73.85 -145.95 -74.65 -146.7 -76 -146.7L-80.05 -146.7 -80.05 -136.35 -75.7 -136.35Q-74.25 -136.35 -73.35 -137.25 -72.5 -138.15 -72.5 -139.45 -72.5 -140.2 -73 -140.95 -73.5 -141.65 -74.4 -141.85 -73.05 -142.4 -73.05 -143.9M-75.05 -143.8Q-75.05 -143.25 -75.35 -142.9 -75.65 -142.55 -76.15 -142.55L-78.15 -142.55 -78.15 -145 -76.2 -145Q-75.05 -145 -75.05 -143.8M-78.15 -138.05L-78.15 -140.95 -75.85 -140.95Q-75.25 -140.95 -74.85 -140.5 -74.5 -140.05 -74.5 -139.5 -74.5 -138.9 -74.85 -138.5 -75.2 -138.05 -75.8 -138.05L-78.15 -138.05M-66.6 -143.5Q-68.15 -143.5 -69.2 -142.5 -70.25 -141.5 -70.25 -139.85 -70.25 -138.25 -69.2 -137.25 -68.15 -136.2 -66.6 -136.2 -65.1 -136.2 -64 -137.25 -62.95 -138.25 -62.95 -139.85 -62.95 -141.5 -64 -142.5 -65.05 -143.5 -66.6 -143.5M-66.6 -138Q-67.4 -138 -67.9 -138.5 -68.45 -139.05 -68.45 -139.85 -68.45 -140.7 -67.9 -141.2 -67.4 -141.7 -66.6 -141.7 -65.8 -141.7 -65.3 -141.2 -64.8 -140.7 -64.8 -139.85 -64.8 -139.05 -65.3 -138.5 -65.8 -138 -66.6 -138M-58.55 -147.15L-60.35 -147.15 -60.35 -136.35 -58.55 -136.35 -58.55 -137.3Q-58.25 -136.8 -57.65 -136.5 -57.05 -136.2 -56.35 -136.2 -54.9 -136.2 -53.9 -137.2 -52.9 -138.2 -52.9 -139.85 -52.9 -141.5 -53.9 -142.5 -54.95 -143.5 -56.35 -143.5 -57.05 -143.5 -57.65 -143.2 -58.25 -142.95 -58.55 -142.4L-58.55 -147.15M-57.95 -141.25Q-57.4 -141.75 -56.65 -141.75 -55.85 -141.75 -55.35 -141.25 -54.8 -140.7 -54.8 -139.85 -54.8 -139.05 -55.35 -138.5 -55.85 -137.95 -56.65 -137.95 -57.4 -137.95 -57.95 -138.5 -58.5 -139.05 -58.5 -139.85 -58.5 -140.75 -57.95 -141.25Z"/><path fill="#C9CCD2" stroke="none" d="M90 -125.05L125.05 -125.05 75.15 -174.95 75.15 -139.95Q75.65 -125.55 90 -125.05Z"/></g><animate attributeName="display" repeatCount="indefinite" dur="12s" keyTimes="0;.231;1" values="none;inline;inline"/></g><g><g id="Symbol-41" transform="matrix(.135 0 0 .135 500 375)"><animateTransform attributeName="transform" additive="replace" type="translate" repeatCount="indefinite" dur="12s" keyTimes="0;.00099;.001;.00699;.007;.00999;.01;.01099;.011;.01199;.012;.01399;.014;.01499;.015;.01699;.017;.01799;.018;.01899;.019;.02099;.021;.02199;.022;.02399;.024;.02499;.025;.02599;.026;.02799;.028;.02899;.029;.03099;.031;.03199;.032;.03299;.033;.03499;.035;.03599;.036;.03799;.038;.03899;.039;.03999;.04;.04199;.042;.04299;.043;.04399;.044;.04599;.046;.04699;.047;.04899;.049;.04999;.05;.05099;.051;.05299;.053;.05399;.054;.05599;.056;.05699;.057;.05799;.058;.05999;.06;.06099;.061;.06299;.063;.06399;.064;.06499;.065;.06699;.067;.06799;.068;.06899;.069;.07099;.071;.07199;.072;.07399;.074;.07499;.075;.07599;.076;.07799;.078;.07899;.079;.08099;.081;.08199;.082;.08299;.083;.08499;.085;.08599;.086;.08799;.088;.08899;.089;.09199;.092;.09699;.097;.15399;.154;.15599;.156;.15699;.157;.15799;.158;.15999;.16;.16099;.161;.16299;.163;.16399;.164;.16499;.165;.16699;.167;.16799;.168;.16899;.169;.17099;.171;.17199;.172;.17399;.174;.17499;.175;.17599;.176;.17799;.178;.17899;.179;.18099;.181;.18199;.182;.18299;.183;.18499;.185;.18599;.186;.18799;.188;.18899;.189;.18999;.19;.19199;.192;.19299;.193;.19399;.194;.19599;.196;.19699;.197;.19899;.199;.19999;.2;.20099;.201;.20299;.203;.20399;.204;.20599;.206;.20699;.207;.20799;.208;.20999;.21;.21099;.211;.21299;.213;.21399;.214;.21499;.215;.21699;.217;.21799;.218;.21899;.219;.22099;.221;.22199;.222;.22399;.224;.22499;.225;.22599;.226;.22799;.228;.22899;.229;1" values="500,375;500,375;500.05,375;500.05,375;500.05,374.95;500.05,374.95;500.05,374.9;500.05,374.9;500.05,374.8;500.05,374.8;500.05,374.7;500.05,374.7;500.05,374.55;500.05,374.55;500.05,374.35;500.05,374.35;500.05,374.1;500.05,374.1;500.05,373.75;500.05,373.75;500.05,373.3;500.05,373.3;500.05,372.75;500.05,372.75;500.05,372.1;500.05,372.1;500.05,371.3;500.05,371.3;500.05,370.35;500.05,370.35;500.05,369.2;500.05,369.2;500.05,367.9;500.05,367.9;500.05,366.35;500.05,366.35;500.05,364.6;500.05,364.6;500.05,362.6;500.05,362.6;500.05,360.25;500.05,360.25;500.05,357.65;500.05,357.65;500.05,354.7;500.05,354.7;500.05,351.4;500.05,351.4;500.05,347.7;500.05,347.7;500.05,343.6;500.05,343.6;500.05,339.05;500.05,339.05;500.05,334;500.05,334;500.05,328.45;500.05,328.45;500.05,322.35;500.05,322.35;500.05,315.65;500.05,315.65;500.05,308.4;500.05,308.4;500.1,301.1;500.1,301.1;500.1,294.4;500.1,294.4;500.1,288.3;500.1,288.3;500.1,282.75;500.1,282.75;500.1,277.7;500.1,277.7;500.1,273.15;500.1,273.15;500.1,269.05;500.1,269.05;500.1,265.35;500.1,265.35;500.1,262.05;500.1,262.05;500.1,259.1;500.1,259.1;500.1,256.5;500.1,256.5;500.1,254.2;500.1,254.2;500.1,252.15;500.1,252.15;500.1,250.4;500.1,250.4;500.1,248.85;500.1,248.85;500.1,247.55;500.1,247.55;500.1,246.4;500.1,246.4;500.1,245.45;500.1,245.45;500.1,244.65;500.1,244.65;500.1,244;500.1,244;500.1,243.45;500.1,243.45;500.1,243;500.1,243;500.1,242.65;500.1,242.65;500.1,242.4;500.1,242.4;500.1,242.2;500.1,242.2;500.1,242.05;500.1,242.05;500.1,241.95;500.1,241.95;500.1,241.85;500.1,241.85;500.1,241.8;500.1,241.8;500.1,241.75;500.1,241.75;500.05,241.75;500.05,241.75;500.05,241.7;500.05,241.7;500.05,241.55;500.05,241.55;500.05,241.35;500.05,241.35;500.05,241.05;500.05,241.05;500.05,240.75;500.05,240.75;500.05,240.35;500.05,240.35;500.05,239.9;500.05,239.9;500.05,239.35;500.05,239.35;500.05,238.7;500.05,238.7;500.05,237.95;500.05,237.95;500.05,237.1;500.05,237.1;500.05,236.1;500.05,236.1;500.05,234.95;500.05,234.95;500.05,233.65;500.05,233.65;500.05,232.15;500.05,232.15;500.05,230.45;500.05,230.45;500.05,228.45;500.05,228.45;500.05,226.1;500.05,226.1;500.05,223.35;500.05,223.35;500.05,220.1;500.05,220.1;500.05,216.1;500.05,216.1;500.05,211.2;500.05,211.2;500.05,205.05;500.05,205.05;500.05,197.2;500.05,197.2;500.05,187.65;500.05,187.65;500,177.6;500,177.6;500,168.8;500,168.8;500,161.7;500,161.7;500,156.1;500,156.1;500,151.55;500,151.55;500,147.8;500,147.8;500,144.65;500,144.65;500,142;500,142;500,139.7;500,139.7;500,137.7;500,137.7;500,136;500,136;500,134.45;500,134.45;500,133.1;500,133.1;500,131.95;500,131.95;500,130.9;500,130.9;500,130;500,130;500,129.15;500,129.15;500,128.45;500,128.45;500,127.85;500,127.85;500,127.3;500,127.3;500,126.8;500,126.8;500,126.4;500,126.4;500,126.05;500,126.05;500,125.8;500,125.8;500,125.55;500,125.55;500,125.35;500,125.35;500,125.2;500,125.2;500,125.1;500,125.1;500,125.05;500,125.05;500,125;500,125" calcMode="discrete"/><animateTransform attributeName="transform" additive="sum" type="scale" repeatCount="indefinite" dur="12s" keyTimes="0;1" values=".135,.135;.135,.135" calcMode="discrete"/><path fill="#E3E6ED" stroke="none" d="M124.9 -125.05L125.05 -125.05 75.15 -174.95 75.15 -174.8 75.05 -174.9 75.05 -175 26 -175 -109.1 -175Q-125 -175 -125 -159.1L-125 159.15Q-125 175 -109.1 175L109.2 175Q125.05 175 125.05 159.15L125.05 -86.95 125.05 -124.9 125.05 -125 124.95 -125 124.9 -125.05Z"/><g id="Symbol-43" transform="translate(100.1 -150)"><path fill="#C9CCD2" stroke="none" d="M-24.95 10.05Q-24.45 24.45 -10.1 24.95L24.95 24.95 -24.95 -24.95 -24.95 10.05Z"/></g><g id="Symbol-44" transform="matrix(2.391 0 0 2.391 4.75 .1)"><path fill="#6F6F6F" stroke="none" d="M.75 31.8Q2.95 29.65 2.95 26.55 2.95 23.45 .75 21.35 -1.5 19.2 -4.65 19.2 -7.8 19.2 -10 21.35 -12.2 23.45 -12.2 26.55 -12.2 29.65 -10 31.8 -7.8 33.9 -4.65 33.9 -1.5 33.9 .75 31.8M16.25 -3.7Q19.95 -8.65 19.95 -15.25 19.95 -23.65 14.25 -28.8 8.65 -33.95 -.1 -33.95 -8.85 -33.95 -14.4 -28.5 -19.9 -23 -19.9 -13.9L-8.25 -13.9Q-8.25 -17.65 -6 -19.9 -3.7 -22.25 -.1 -22.25 3.35 -22.25 5.8 -20.25 8.25 -18.3 8.25 -15.35 8.25 -10.7 4.55 -9.1L-1.1 -6.25 -5.15 -3.6Q-7.5 -1.95 -8.35 -.2 -10.7 4.25 -10.7 10.6L-10.5 13.75 .9 13.75 1.1 10.6Q1.1 4.7 6.7 2.9 12.65 1.1 16.25 -3.7Z"/></g></g><animate attributeName="display" repeatCount="indefinite" dur="12s" keyTimes="0;.231;1" values="inline;none;none"/></g><g id="Peer" transform="translate(500 375)"><path fill="#1559D9" stroke="none" d="M35.35 -35.35Q20.7 -50 0 -50 -20.7 -50 -35.35 -35.35 -50 -20.7 -50 0 -50 20.7 -35.35 35.35 -20.7 50 0 50 20.7 50 35.35 35.35 50 20.7 50 0 50 -20.7 35.35 -35.35Z"/><path fill="#FFF" stroke="none" d="M-8.7 -10.5L-11.85 -10.5 -11.85 8.25 -8.7 8.25 -8.7 -10.5M-.95 -3.9L-4.1 -3.9 -4.1 8.25 -.95 8.25 -.95 -3.9M-2.5 -6.7Q-1.7 -6.7 -1.1 -7.25 -.5 -7.8 -.5 -8.6 -.5 -9.4 -1.1 -9.95 -1.7 -10.5 -2.5 -10.5 -3.35 -10.5 -3.95 -9.95 -4.6 -9.4 -4.6 -8.6 -4.6 -7.8 -3.95 -7.25 -3.35 -6.7 -2.5 -6.7M-21.35 -9.65L-24.95 -9.65 -31.65 8.25 -28.1 8.25 -26.45 3.9 -19.8 3.9 -18.15 8.25 -14.65 8.25 -21.35 -9.65M-20.9 1L-25.35 1 -23.15 -5.85 -20.9 1M28.05 -2.4Q26.3 -4.15 23.65 -4.15 21 -4.15 19.15 -2.4 17.35 -.65 17.35 2.15 17.35 4.95 19.15 6.75 21 8.5 23.65 8.5 25.5 8.5 27 7.8 28.55 7 29.3 5.55L26.9 4.3Q26.05 5.85 23.85 5.85 22.5 5.85 21.55 5.15 20.65 4.4 20.5 3.25L29.75 3.25 29.8 2.15Q29.8 -.65 28.05 -2.4M21.5 -.8Q22.4 -1.5 23.65 -1.5 24.85 -1.5 25.7 -.85 26.55 -.15 26.7 1.1L20.45 1.1Q20.65 -.1 21.5 -.8M9.35 -4.15Q6.65 -4.15 4.75 -2.4 2.8 -.6 2.8 2.15 2.8 4.9 4.75 6.7 6.65 8.5 9.35 8.5 12.65 8.5 14.45 6.1L11.9 4.25Q11 5.45 9.35 5.45 8 5.45 7 4.55 5.95 3.55 5.95 2.15 5.95 .7 7 -.2 8 -1.1 9.35 -1.1 11 -1.1 11.9 .1L14.4 -1.8Q12.6 -4.15 9.35 -4.15Z"/></g><g id="DNS" transform="translate(500 125)"><path fill="#6F6F6F" stroke="none" d="M-17.5 32.1Q-12.05 45.6 -4.15 48.85 -3.25 49.15 -3.25 48.05L-3.25 31.95Q-3.25 31.15 -4 31.15L-16.7 31.15Q-17.8 31.15 -17.5 32.1M-24.3 31.6Q-24.45 31.15 -25.1 31.15L-37.05 31.15Q-37.5 31.15 -37.8 31.6 -37.95 32.1 -37.65 32.4 -29.6 41.7 -18.6 46.05 -18.1 46.35 -17.8 45.75 -17.5 45.25 -17.8 44.8 -22 38.45 -24.3 31.6M-26.65 23.85Q-28.6 15.5 -28.8 14.3 -29.95 8.55 -30.2 3.85 -30.2 3.25 -30.95 3.25L-48.65 3.25Q-49.45 3.25 -49.45 4 -48.5 14.85 -43.25 24.5 -42.95 24.95 -42.45 24.95L-27.35 24.95Q-26.357 24.924 -26.65 23.85M-17.5 -31.95Q-17.8 -30.9 -16.7 -30.9L-4 -30.9Q-3.25 -30.9 -3.25 -31.65L-3.25 -47.95Q-3.25 -49.05 -4.15 -48.7 -12.05 -45.45 -17.5 -31.95M-17.8 -45.6Q-18.1 -46.1 -18.6 -45.95 -29.6 -41.6 -37.65 -32.3 -37.95 -31.95 -37.8 -31.35 -37.5 -30.9 -37.05 -30.9L-25.1 -30.9Q-24.65 -30.9 -24.3 -31.5 -22 -38.35 -17.8 -44.7 -17.5 -45.15 -17.8 -45.6M-43.25 -24.35Q-48.5 -14.75 -49.45 -3.9 -49.45 -2.95 -48.65 -2.95L-30.95 -2.95Q-30.65 -2.95 -30.4 -3.25 -30.2 -3.5 -30.2 -3.75 -29.95 -8.45 -28.8 -14.2 -28.6 -15.4 -26.65 -23.75 -26.359 -24.670 -27.35 -24.7L-42.45 -24.7Q-43.1 -24.7 -43.25 -24.35M17.7 44.8Q17.4 45.25 17.7 45.75 18 46.35 18.5 46.05 29.5 41.7 37.55 32.4 37.85 32.1 37.7 31.6 37.4 31.15 36.95 31.15L25 31.15Q24.55 31.15 24.2 31.6 21.9 38.45 17.7 44.8M17.4 32.1Q17.7 31.15 16.65 31.15L3.75 31.15Q3 31.15 3 31.95L3 48.05Q3 48.35 3.3 48.7 3.75 49 4.05 48.85 11.95 45.6 17.4 32.1M42.35 24.95Q43 24.95 43.15 24.5 48.4 14.85 49.35 4 49.35 3.25 48.55 3.25L30.85 3.25Q30.1 3.25 30.1 3.85 29.9 8.55 28.75 14.3 28.6 14.95 26.55 23.85 26.25 24.95 27.35 24.95L42.35 24.95M27.35 -24.7Q26.4 -24.7 26.55 -23.75 28.6 -14.85 28.75 -14.2 29.9 -8.45 30.1 -3.75 30.1 -3.5 30.3 -3.25 30.55 -2.95 30.85 -2.95L48.55 -2.95Q49.35 -2.95 49.35 -3.9 48.4 -14.75 43.15 -24.35 43 -24.7 42.35 -24.7L27.35 -24.7M20.05 -24.2Q19.9 -24.7 19.25 -24.7L-19.4 -24.7Q-19.805 -24.692 -20.15 -24.2 -22.15 -16.1 -22.5 -14.45 -23.75 -8.65 -24 -3.9L-24 4Q-23.75 8.75 -22.5 14.6 -22.15 16.35 -20.15 24.35 -19.805 24.940 -19.4 24.95L19.25 24.95Q19.75 24.95 20.05 24.35 22.3 15 22.45 14.4 23.7 8.7 23.9 4.4L23.9 -3.95Q23.65 -8.4 22.45 -14.1 22.05 -16.15 20.05 -24.2M3.3 -48.55Q3 -48.25 3 -47.95L3 -31.65Q3 -30.9 3.75 -30.9L16.65 -30.9Q17.7 -30.9 17.4 -31.95 11.95 -45.45 4.05 -48.7 3.75 -48.85 3.3 -48.55M24.2 -31.5Q24.55 -30.9 25 -30.9L36.95 -30.9Q37.4 -30.9 37.7 -31.35 37.85 -31.95 37.55 -32.3 29.5 -41.6 18.5 -45.95 18 -46.1 17.7 -45.6 17.4 -45.15 17.7 -44.7 21.9 -38.35 24.2 -31.5Z"/><g id="Symbol-42" transform="matrix(.88 0 0 .88 0 -.7)"><path fill="#FFF" stroke="none" d="M-9.2 -6.5Q-11.35 -9.05 -15.1 -9.05L-22.1 -9.05 -22.1 8.9 -15.1 8.9Q-11.35 8.9 -9.2 6.4 -7 3.85 -7 0 -7 -3.95 -9.2 -6.5M-15.1 -6Q-12.8 -6 -11.6 -4.3 -10.35 -2.6 -10.35 0 -10.35 2.5 -11.6 4.2 -12.8 5.85 -15.1 5.85L-18.8 5.85 -18.8 -6 -15.1 -6M12.45 -7.75Q10.7 -6.3 10.7 -4 10.7 -.3 15.2 1L17.4 1.6Q20 2.3 19.9 4.05 19.85 5 19.05 5.6 18.2 6.2 16.9 6.2 15.6 6.2 14.7 5.45 13.9 4.75 13.8 3.65L10.5 3.65Q10.5 6 12.3 7.6 14.1 9.2 16.9 9.2 19.5 9.2 21.3 7.85 23.1 6.5 23.25 4.1 23.55 .05 18.35 -1.35L16.1 -2Q14 -2.6 14 -4.05 14 -5 14.75 -5.6 15.5 -6.15 16.65 -6.15 17.9 -6.15 18.65 -5.55 19.35 -4.9 19.35 -3.8L22.7 -3.8Q22.7 -6.3 21 -7.75 19.3 -9.25 16.7 -9.25 14.2 -9.25 12.45 -7.75M8.45 -9.05L5.1 -9.05 5.1 2.6 -1.7 -9.05 -4.8 -9.05 -4.8 8.9 -1.5 8.9 -1.5 -2.9 5.4 8.9 8.45 8.9 8.45 -9.05Z"/></g></g></g></svg>