<?xml version="1.0" encoding="utf-8"?><svg id="4kf" image-rendering="auto" baseProfile="basic" version="1.1" x="0px" y="0px" width="1000" height="500" xmlns="http://www.w3.org/2000/svg" xmlns:xlink="http://www.w3.org/1999/xlink"><defs><g id="Peer-copy-4" overflow="visible"><path fill="#E3E6ED" stroke="none" d="M35.35 -35.35Q20.7 -50 0 -50 -20.7 -50 -35.35 -35.35 -50 -20.7 -50 0 -50 20.7 -35.35 35.35 -20.7 50 0 50 20.7 50 35.35 35.35 50 20.7 50 0 50 -20.7 35.35 -35.35Z"/></g></defs><g id="Scene-1" overflow="visible"><g id="Symbol-66" transform="translate(499.4 250.9)"><animate attributeName="opacity" repeatCount="indefinite" dur="11s" keyTimes="0;.54099;.541;.54199;.542;.54399;.544;.54499;.545;.54699;.547;.54799;.548;.54999;.55;.55199;.552;.55299;.553;.55499;.555;.55599;.556;.55799;.558;.55899;.559;.56099;.561;.56199;.562;.56399;.564;.56499;.565;.56699;.567;.56799;.568;.56999;.57;.57099;.571;.57299;.573;.57399;.574;.57599;.576;.57699;.577;.57899;.579;.57999;.58;.58199;.582;.58299;.583;.58499;.585;.58599;.586;.58799;.588;.58899;.589;.59099;.591;.59199;.592;.59399;.594;.59499;.595;.59699;.597;.59799;.598;.59999;.6;.60199;.602;.60299;.603;.60499;.605;.60599;.606;.60799;.608;.60899;.609;.61099;.611;.61199;.612;.61399;.614;.61499;.615;.61699;.617;.61799;.618;.61999;.62;.62099;.621;.62299;.623;.62399;.624;.62599;.626;.62699;.627;.62899;.629;.62999;.63;.90499;.905;.90599;.906;.90799;.908;.90899;.909;.91099;.911;.91199;.912;.91399;.914;.91499;.915;.91699;.917;.91799;.918;.91999;.92;.92099;.921;.92299;.923;.92399;.924;.92599;.926;.92699;.927;.92899;.929;.92999;.93;.93199;.932;.93299;.933;.93499;.935;.93599;.936;.93799;.938;.93899;.939;.94099;.941;.94199;.942;.94399;.944;.94499;.945;.94699;.947;.94799;.948;.94999;.95;.95199;.952;.95299;.953;.95499;.955;.95599;.956;.95799;.958;.95899;.959;.96099;.961;.96199;.962;.96399;.964;.96499;.965;.96699;.967;.96799;.968;.96999;.97;.97099;.971;.97299;.973;.97399;.974;.97599;.976;.97699;.977;.97899;.979;.97999;.98;.98199;.982;.98299;.983;.98499;.985;.98599;.986;.98799;.988;.98899;.989;.99099;.991;.99199;.992;.99399;.994;.99499;.995;.99699;.997;.99799;.998;1" values="0;0;.02;.02;.04;.04;.05;.05;.07;.07;.08;.08;.1;.1;.12;.12;.13;.13;.15;.15;.17;.17;.18;.18;.2;.2;.21;.21;.23;.23;.25;.25;.27;.27;.29;.29;.3;.3;.32;.32;.33;.33;.35;.35;.37;.37;.38;.38;.4;.4;.42;.42;.43;.43;.45;.45;.46;.46;.48;.48;.5;.5;.52;.52;.54;.54;.55;.55;.57;.57;.58;.58;.6;.6;.62;.62;.63;.63;.65;.65;.67;.67;.68;.68;.7;.7;.71;.71;.73;.73;.75;.75;.77;.77;.79;.79;.8;.8;.82;.82;.83;.83;.85;.85;.87;.87;.88;.88;.9;.9;.92;.92;.93;.93;.95;.95;.96;.96;.98;.98;1;1;.98;.98;.97;.97;.95;.95;.94;.94;.92;.92;.91;.91;.89;.89;.87;.87;.86;.86;.84;.84;.82;.82;.81;.81;.79;.79;.78;.78;.76;.76;.75;.75;.73;.73;.71;.71;.7;.7;.68;.68;.67;.67;.65;.65;.64;.64;.62;.62;.6;.6;.59;.59;.57;.57;.55;.55;.54;.54;.52;.52;.51;.51;.49;.49;.48;.48;.46;.46;.45;.45;.43;.43;.41;.41;.4;.4;.38;.38;.36;.36;.35;.35;.33;.33;.32;.32;.3;.3;.29;.29;.27;.27;.25;.25;.24;.24;.22;.22;.21;.21;.19;.19;.18;.18;.16;.16;.14;.14;.13;.13;.11;.11;.09;.09;.08;.08;.06;.06;.05;.05;.03;.03;.02;.02;0;0" calcMode="discrete"/><path fill="#E3E6ED" stroke="none" d="M164.2 -255.25Q164.044 -255.839 163.5 -256.15 162.944 -256.412 162.35 -256.25 161.761 -256.044 161.45 -255.5 161.187 -254.944 161.35 -254.35L183.7 -182.65 -51.3 -150.65 18.6 -253.95Q18.944 -254.466 18.8 -255.1 18.711 -255.691 18.2 -256.05 17.683 -256.396 17.05 -256.3 16.459 -256.160 16.1 -255.65L-54.7 -151 -168.4 -255.9Q-168.833 -256.323 -169.45 -256.3 -170.073 -256.278 -170.5 -255.85 -170.923 -255.367 -170.9 -254.75 -170.877 -254.127 -170.45 -253.7L-57.6 -149.6 -292 -104.1 -267.1 -254.55Q-266.968 -255.164 -267.35 -255.7 -267.688 -256.176 -268.3 -256.3 -268.915 -256.382 -269.45 -256.05 -269.926 -255.661 -270.05 -255.05L-294.9 -104.85 -503.4 -255.15Q-503.884 -255.480 -504.5 -255.4 -505.110 -255.277 -505.5 -254.8 -505.831 -254.265 -505.75 -253.65 -505.627 -253.040 -505.15 -252.7L-299.5 -104.45 -504.1 -130.15Q-504.686 -130.216 -505.2 -129.85 -505.656 -129.441 -505.75 -128.85 -505.804 -128.213 -505.45 -127.75 -505.040 -127.231 -504.45 -127.15L-298.3 -101.25 -427.15 -23 -503.4 -76.9Q-503.886 -77.231 -504.5 -77.15 -505.112 -77.026 -505.5 -76.55 -505.832 -76.013 -505.75 -75.4 -505.626 -74.788 -505.15 -74.45L-429.5 -21 -505.35 56.5Q-505.758 56.951 -505.75 57.55 -505.743 58.191 -505.3 58.6 -504.849 59.058 -504.25 59.05 -503.608 59.042 -503.2 58.6L-427.6 -18.65 -354.7 128.2 -504.35 134.75Q-504.934 134.772 -505.35 135.2 -505.773 135.694 -505.75 136.3 -505.728 136.935 -505.3 137.35 -504.806 137.773 -504.2 137.75L-356.8 131.3 -505.2 252Q-505.683 252.426 -505.75 253.05 -505.803 253.666 -505.4 254.15 -505.011 254.634 -504.4 254.7 -503.784 254.765 -503.3 254.35L-352.55 131.75 -255.9 255.7Q-255.490 256.217 -254.9 256.3 -254.263 256.367 -253.8 255.95 -253.280 255.590 -253.2 254.95 -253.133 254.364 -253.55 253.85L-348.55 132 -159.65 176.45 -102.85 255.65Q-102.460 256.175 -101.85 256.25 -101.234 256.382 -100.75 256 -100.222 255.661 -100.15 255.05 -100.018 254.436 -100.4 253.9L-155.85 176.65 102.25 176.65 40.4 253.85Q40.033 254.349 40.1 254.95 40.179 255.588 40.65 255.95 41.160 256.366 41.75 256.3 42.387 256.231 42.75 255.75L105.45 177.45 175.8 255.8Q176.249 256.263 176.85 256.3 177.489 256.337 177.95 255.9 178.414 255.501 178.45 254.85 178.486 254.261 178.05 253.8L108.05 175.8 338.6 97.05 307.1 254.5Q307.004 255.106 307.35 255.6 307.694 256.147 308.3 256.25 308.907 256.396 309.4 256.05 309.946 255.706 310.05 255.1L341.55 97.65 503.25 239.3Q503.727 239.738 504.35 239.7 504.966 239.650 505.35 239.15 505.788 238.712 505.75 238.1 505.711 237.483 505.25 237.05L342.9 94.8 505.25 -48.5Q505.712 -48.884 505.75 -49.5 505.787 -50.125 505.35 -50.6 504.965 -51.063 504.35 -51.1 503.725 -51.137 503.25 -50.75L343.05 90.6 392.1 -133.3 504.4 -143.8Q505.009 -143.865 505.4 -144.35 505.802 -144.831 505.75 -145.45 505.685 -146.059 505.2 -146.45 504.718 -146.852 504.1 -146.8L392.55 -136.4 406.85 -254.65Q406.916 -255.237 406.5 -255.75 406.140 -256.219 405.5 -256.3 404.912 -256.366 404.4 -256 403.930 -255.590 403.85 -255L389.5 -136.55 189.55 -182.05 306.65 -253.55Q307.203 -253.849 307.35 -254.45 307.498 -255.047 307.15 -255.6 306.850 -256.104 306.25 -256.25 305.653 -256.397 305.1 -256.1L186.5 -183.7 164.2 -255.25M152.7 -3.25L186.8 -179.6 386.7 -134.1 152.7 -3.25M183.75 -179.65L149.6 -2.95 -50.5 -147.75 183.75 -179.65M153.85 -.45L388.65 -131.8 339.55 92.6 153.85 -.45M107.55 172.8L151.6 1.8 336.7 94.55 107.55 172.8M148.3 2.7L104.25 173.65 -153.05 173.65 148.3 2.7M-291.6 -101.1L-54.8 -147.15 147.85 -.5 -158.1 173.05 -291.6 -101.1M-425.25 -20.65L-296.15 -99.05 -352.75 125.3 -425.25 -20.65M-161.5 172.95L-350.5 128.5 -293.35 -97.85 -161.5 172.95Z"/><use xlink:href="#Peer-copy-4" transform="matrix(.75 0 0 .75 -352.35 132.3)"/><use xlink:href="#Peer-copy-4" transform="matrix(.75 0 0 .75 340.4 94.6)"/><use xlink:href="#Peer-copy-4" transform="matrix(.75 0 0 .75 390.65 -134.9)"/><use xlink:href="#Peer-copy-4" transform="matrix(.75 0 0 .75 185.5 -181.6)"/><use xlink:href="#Peer-copy-4" transform="matrix(.75 0 0 .75 -427.35 -21.4)"/><use xlink:href="#Peer-copy-4" transform="matrix(.75 0 0 .75 102.25 174.95)"/></g><g display="none"><g id="Symbol-65" transform="translate(325.3 264.1)"><animate attributeName="opacity" repeatCount="indefinite" dur="11s" keyTimes="0;.16399;.164;.16499;.165;.16699;.167;.16799;.168;.16999;.17;.17099;.171;.17299;.173;.17399;.174;.17599;.176;.17699;.177;.17899;.179;.17999;.18;.18199;.182;.18299;.183;.18499;.185;.18599;.186;.18799;.188;.18899;.189;.19099;.191;.19199;.192;.19399;.194;.19499;.195;.19699;.197;.19799;.198;.19999;.2;.20199;.202;.20299;.203;.20499;.205;.20599;.206;.20799;.208;.20899;.209;.21099;.211;.21199;.212;.21399;.214;.21499;.215;.21699;.217;.21799;.218;.21999;.22;.22099;.221;.22299;.223;.22399;.224;.22599;.226;.22699;.227;.22899;.229;.22999;.23;.23199;.232;.23299;.233;.23499;.235;.23599;.236;.23799;.238;.23899;.239;.24099;.241;.24199;.242;.24399;.244;.24499;.245;.24699;.247;.24799;.248;.24999;.25;.25199;.252;.35899;.359;.36099;.361;.36199;.362;.36399;.364;.36499;.365;.36699;.367;.36799;.368;.36999;.37;.37099;.371;.37299;.373;.37399;.374;.37599;.376;.37699;.377;.37899;.379;.37999;.38;.38199;.382;.38299;.383;.38499;.385;.38599;.386;.38799;.388;.38899;.389;.39099;.391;.39199;.392;.39399;.394;.39499;.395;.39699;.397;.39799;.398;.39999;.4;.40199;.402;.40299;.403;.40499;.405;.40599;.406;.40799;.408;.40899;.409;.41099;.411;.41199;.412;.41399;.414;.41499;.415;.41699;.417;.41799;.418;.41999;.42;.42099;.421;.42299;.423;.42399;.424;.42599;.426;.42699;.427;.42899;.429;.42999;.43;.43199;.432;.43299;.433;.43499;.435;.43599;.436;.43799;.438;.43899;.439;.44099;.441;.44199;.442;.44399;.444;.44499;.445;.44699;.447;.44799;.448;1" values="0;0;.02;.02;.04;.04;.05;.05;.07;.07;.09;.09;.1;.1;.12;.12;.14;.14;.15;.15;.17;.17;.19;.19;.2;.2;.22;.22;.24;.24;.25;.25;.27;.27;.29;.29;.3;.3;.32;.32;.34;.34;.36;.36;.37;.37;.39;.39;.41;.41;.42;.42;.44;.44;.46;.46;.47;.47;.49;.49;.51;.51;.53;.53;.54;.54;.56;.56;.58;.58;.59;.59;.61;.61;.63;.63;.64;.64;.66;.66;.68;.68;.7;.7;.71;.71;.73;.73;.75;.75;.76;.76;.78;.78;.8;.8;.81;.81;.83;.83;.85;.85;.86;.86;.88;.88;.9;.9;.91;.91;.93;.93;.95;.95;.96;.96;.98;.98;1;1;.98;.98;.96;.96;.95;.95;.93;.93;.92;.92;.9;.9;.88;.88;.87;.87;.85;.85;.83;.83;.82;.82;.8;.8;.79;.79;.77;.77;.75;.75;.73;.73;.71;.71;.7;.7;.68;.68;.67;.67;.65;.65;.63;.63;.62;.62;.6;.6;.58;.58;.57;.57;.55;.55;.54;.54;.52;.52;.5;.5;.48;.48;.46;.46;.45;.45;.43;.43;.42;.42;.4;.4;.38;.38;.37;.37;.35;.35;.33;.33;.32;.32;.3;.3;.29;.29;.27;.27;.25;.25;.23;.23;.21;.21;.2;.2;.18;.18;.17;.17;.15;.15;.13;.13;.12;.12;.1;.1;.08;.08;.07;.07;.05;.05;.04;.04;.02;.02;0;0" calcMode="discrete"/><path fill="#F78F48" stroke="none" d="M120.8 -163.7Q120.093 -164.141 119.25 -163.95 118.400 -163.758 117.9 -163.05L24.15 -16.55 -118.5 -117.15Q-119.206 -117.625 -120.05 -117.5 -120.913 -117.318 -121.45 -116.6 -121.925 -115.895 -121.8 -115.05 -121.616 -114.187 -120.9 -113.7L22.6 -12.5 13.25 161.85Q13.211 162.707 13.8 163.35 14.370 164.000 15.2 164.05 16.095 164.089 16.75 163.5 17.399 162.917 17.45 162.05L26.8 -12.9 121.45 -160.8Q121.940 -161.507 121.75 -162.35 121.560 -163.200 120.8 -163.7Z"/></g><animate attributeName="display" repeatCount="indefinite" dur="11s" keyTimes="0;.162;1" values="none;inline;inline"/></g><g display="none"><g id="Symbol-65-copy" transform="translate(325.3 264.1)"><animate attributeName="opacity" repeatCount="indefinite" dur="11s" keyTimes="0;.35899;.359;.36099;.361;.36199;.362;.36399;.364;.36499;.365;.36699;.367;.36799;.368;.36999;.37;.37099;.371;.37299;.373;.37399;.374;.37599;.376;.37699;.377;.37899;.379;.37999;.38;.38199;.382;.38299;.383;.38499;.385;.38599;.386;.38799;.388;.38899;.389;.39099;.391;.39199;.392;.39399;.394;.39499;.395;.39699;.397;.39799;.398;.39999;.4;.40199;.402;.40299;.403;.40499;.405;.40599;.406;.40799;.408;.40899;.409;.41099;.411;.41199;.412;.41399;.414;.41499;.415;.41699;.417;.41799;.418;.41999;.42;.42099;.421;.42299;.423;.42399;.424;.42599;.426;.42699;.427;.42899;.429;.42999;.43;.43199;.432;.43299;.433;.43499;.435;.43599;.436;.43799;.438;.43899;.439;.44099;.441;.44199;.442;.44399;.444;.44499;.445;.44699;.447;.44799;.448;.90499;.905;.90599;.906;.90799;.908;.90899;.909;.91099;.911;.91199;.912;.91399;.914;.91499;.915;.91699;.917;.91799;.918;.91999;.92;.92099;.921;.92299;.923;.92399;.924;.92599;.926;.92699;.927;.92899;.929;.92999;.93;.93199;.932;.93299;.933;.93499;.935;.93599;.936;.93799;.938;.93899;.939;.94099;.941;.94199;.942;.94399;.944;.94499;.945;.94699;.947;.94799;.948;.94999;.95;.95199;.952;.95299;.953;.95499;.955;.95599;.956;.95799;.958;.95899;.959;.96099;.961;.96199;.962;.96399;.964;.96499;.965;.96699;.967;.96799;.968;.96999;.97;.97099;.971;.97299;.973;.97399;.974;.97599;.976;.97699;.977;.97899;.979;.97999;.98;.98199;.982;.98299;.983;.98499;.985;.98599;.986;.98799;.988;.98899;.989;.99099;.991;.99199;.992;.99399;.994;.99499;.995;.99699;.997;.99799;.998;1" values="0;0;.02;.02;.04;.04;.05;.05;.07;.07;.08;.08;.1;.1;.12;.12;.13;.13;.15;.15;.17;.17;.18;.18;.2;.2;.21;.21;.23;.23;.25;.25;.27;.27;.29;.29;.3;.3;.32;.32;.33;.33;.35;.35;.37;.37;.38;.38;.4;.4;.42;.42;.43;.43;.45;.45;.46;.46;.48;.48;.5;.5;.52;.52;.54;.54;.55;.55;.57;.57;.58;.58;.6;.6;.62;.62;.63;.63;.65;.65;.67;.67;.68;.68;.7;.7;.71;.71;.73;.73;.75;.75;.77;.77;.79;.79;.8;.8;.82;.82;.83;.83;.85;.85;.87;.87;.88;.88;.9;.9;.92;.92;.93;.93;.95;.95;.96;.96;.98;.98;1;1;.98;.98;.97;.97;.95;.95;.94;.94;.92;.92;.91;.91;.89;.89;.87;.87;.86;.86;.84;.84;.82;.82;.81;.81;.79;.79;.78;.78;.76;.76;.75;.75;.73;.73;.71;.71;.7;.7;.68;.68;.67;.67;.65;.65;.64;.64;.62;.62;.6;.6;.59;.59;.57;.57;.55;.55;.54;.54;.52;.52;.51;.51;.49;.49;.48;.48;.46;.46;.45;.45;.43;.43;.41;.41;.4;.4;.38;.38;.36;.36;.35;.35;.33;.33;.32;.32;.3;.3;.29;.29;.27;.27;.25;.25;.24;.24;.22;.22;.21;.21;.19;.19;.18;.18;.16;.16;.14;.14;.13;.13;.11;.11;.09;.09;.08;.08;.06;.06;.05;.05;.03;.03;.02;.02;0;0" calcMode="discrete"/><path fill="#52BC8E" stroke="none" d="M120.8 -163.7Q120.093 -164.141 119.25 -163.95 118.400 -163.758 117.9 -163.05L24.15 -16.55 -118.5 -117.15Q-119.206 -117.625 -120.05 -117.5 -120.913 -117.318 -121.45 -116.6 -121.925 -115.895 -121.8 -115.05 -121.616 -114.187 -120.9 -113.7L22.6 -12.5 13.25 161.85Q13.211 162.707 13.8 163.35 14.370 164.000 15.2 164.05 16.095 164.089 16.75 163.5 17.399 162.917 17.45 162.05L26.8 -12.9 121.45 -160.8Q121.940 -161.507 121.75 -162.35 121.560 -163.200 120.8 -163.7Z"/></g><animate attributeName="display" repeatCount="indefinite" dur="11s" keyTimes="0;.358;1" values="none;inline;inline"/></g><g display="none"><g id="Peer-copy-3" transform="matrix(.05 0 0 .05 205.55 148.65)"><animateTransform attributeName="transform" additive="replace" type="translate" repeatCount="indefinite" dur="11s" keyTimes="0;.09399;.094;.09499;.095;.09699;.097;.09799;.098;.09999;.1;.10199;.102;.10299;.103;.10499;.105;.10599;.106;.10799;.108;.10899;.109;.11099;.111;.11199;.112;.11399;.114;.11499;.115;.11699;.117;.11799;.118;.11999;.12;.12099;.121;.12299;.123;.12399;.124;.12599;.126;.12699;.127;.12899;.129;.12999;.13;.13199;.132;.13299;.133;.13499;.135;.13599;.136;.13799;.138;.13899;.139;.14099;.141;.14199;.142;.14399;.144;.14499;.145;.14699;.147;.14799;.148;.14999;.15;.15199;.152;.15299;.153;.15499;.155;.15599;.156;.15799;.158;.15899;.159;1" values="205.6,148.702;205.6,148.702;205.65,148.75;205.65,148.75;205.602,148.702;205.602,148.702;205.599,148.753;205.599,148.753;205.65,148.7;205.65,148.7;205.601,148.701;205.601,148.701;205.608,148.752;205.608,148.752;205.654,148.758;205.654,148.758;205.654,148.754;205.654,148.754;205.653,148.753;205.653,148.753;205.62,148.706;205.62,148.706;205.607,148.764;205.607,148.764;205.655,148.777;205.655,148.777;205.639,148.765;205.639,148.765;205.683,148.724;205.683,148.724;205.615,148.732;205.615,148.732;205.625,148.763;205.625,148.763;205.615,148.765;205.615,148.765;205.625,148.725;205.625,148.725;205.672,148.708;205.672,148.708;205.631,148.712;205.631,148.712;205.67,148.77;205.67,148.77;205.683,148.724;205.683,148.724;205.614,148.772;205.614,148.772;205.661,148.74;205.661,148.74;205.614,148.772;205.614,148.772;205.683,148.724;205.683,148.724;205.67,148.77;205.67,148.77;205.631,148.712;205.631,148.712;205.672,148.708;205.672,148.708;205.675,148.691;205.675,148.691;205.615,148.765;205.615,148.765;205.625,148.763;205.625,148.763;205.691,148.741;205.691,148.741;205.675,148.725;205.675,148.725;205.615,148.765;205.615,148.765;205.592,148.692;205.592,148.692;205.615,148.765;205.615,148.765;205.675,148.725;205.675,148.725;205.691,148.741;205.691,148.741;205.625,148.763;205.625,148.763;205.666,148.753;205.666,148.753;205.613,148.713;205.613,148.713;205.666,148.753;205.666,148.753;205.625,148.725;205.625,148.725" calcMode="discrete"/><animateTransform attributeName="transform" additive="sum" type="scale" repeatCount="indefinite" dur="11s" keyTimes="0;.09399;.094;.09499;.095;.09699;.097;.09799;.098;.09999;.1;.10199;.102;.10299;.103;.10499;.105;.10599;.106;.10799;.108;.10899;.109;.11099;.111;.11199;.112;.11399;.114;.11499;.115;.11699;.117;.11799;.118;.11999;.12;.12099;.121;.12299;.123;.12399;.124;.12599;.126;.12699;.127;.12899;.129;.12999;.13;.13199;.132;.13299;.133;.13499;.135;.13599;.136;.13799;.138;.13899;.139;.14099;.141;.14199;.142;.14399;.144;.14499;.145;.14699;.147;.14799;.148;.14999;.15;.15199;.152;.15299;.153;.15499;.155;.15599;.156;.15799;.158;.15899;.159;1" values=".05,.05;.05,.05;.053,.053;.053,.053;.061,.061;.061,.061;.075,.075;.075,.075;.094,.094;.094,.094;.118,.118;.118,.118;.148,.148;.148,.148;.184,.184;.184,.184;.225,.225;.225,.225;.271,.271;.271,.271;.323,.323;.323,.323;.381,.381;.381,.381;.444,.444;.444,.444;.512,.512;.512,.512;.586,.586;.586,.586;.665,.665;.665,.665;.75,.75;.75,.75;.709,.709;.709,.709;.674,.674;.674,.674;.643,.643;.643,.643;.619,.619;.619,.619;.6,.6;.6,.6;.586,.586;.586,.586;.578,.578;.578,.578;.575,.575;.575,.575;.578,.578;.578,.578;.586,.586;.586,.586;.6,.6;.6,.6;.619,.619;.619,.619;.643,.643;.643,.643;.674,.674;.674,.674;.709,.709;.709,.709;.75,.75;.75,.75;.731,.731;.731,.731;.717,.717;.717,.717;.709,.709;.709,.709;.706,.706;.706,.706;.709,.709;.709,.709;.717,.717;.717,.717;.731,.731;.731,.731;.75,.75;.75,.75;.742,.742;.742,.742;.739,.739;.739,.739;.742,.742;.742,.742;.75,.75;.75,.75" calcMode="discrete"/><animateTransform attributeName="transform" additive="sum" type="translate" repeatCount="indefinite" dur="11s" keyTimes="0;.09399;.094;.09499;.095;.09699;.097;.09799;.098;.09999;.1;.10199;.102;.10299;.103;.10499;.105;.10599;.106;.10799;.108;.10899;.109;.11099;.111;.11199;.112;.11399;.114;.11499;.115;.11699;.117;.11799;.118;.12099;.121;.12299;.123;.12399;.124;.12599;.126;.12699;.127;.12899;.129;.12999;.13;.13199;.132;.13299;.133;.13499;.135;.13599;.136;.13799;.138;.13899;.139;.14099;.141;.14199;.142;.14699;.147;.14799;.148;.15299;.153;.15599;.156;.15799;.158;.15899;.159;1" values="-2,-2.05;-2,-2.05;-2.85,-2.85;-2.85,-2.85;-2.5,-2.5;-2.5,-2.5;-2,-2.05;-2,-2.05;-1.6,-1.6;-1.6,-1.6;-1.7,-1.7;-1.7,-1.7;-1.4,-1.7;-1.4,-1.7;-1.65,-1.4;-1.65,-1.4;-1.35,-1.35;-1.35,-1.35;-1.3,-1.3;-1.3,-1.3;-1.3,-1.1;-1.3,-1.1;-1.2,-1.35;-1.2,-1.35;-1.25,-1.3;-1.25,-1.3;-1.15,-1.2;-1.15,-1.2;-1.25,-1.15;-1.25,-1.15;-1.15,-1.1;-1.15,-1.1;-1.1,-1.15;-1.1,-1.15;-1.15,-1.15;-1.15,-1.15;-1.2,-1.1;-1.2,-1.1;-1.1,-1.15;-1.1,-1.15;-1.2,-1.2;-1.2,-1.2;-1.25,-1.15;-1.25,-1.15;-1.15,-1.25;-1.15,-1.25;-1.15,-1.2;-1.15,-1.2;-1.15,-1.25;-1.15,-1.25;-1.25,-1.15;-1.25,-1.15;-1.2,-1.2;-1.2,-1.2;-1.1,-1.15;-1.1,-1.15;-1.2,-1.1;-1.2,-1.1;-1.15,-1.1;-1.15,-1.1;-1.15,-1.15;-1.15,-1.15;-1.1,-1.15;-1.1,-1.15;-1.15,-1.15;-1.15,-1.15;-1.05,-1.05;-1.05,-1.05;-1.15,-1.15;-1.15,-1.15;-1.1,-1.15;-1.1,-1.15;-1.1,-1.1;-1.1,-1.1;-1.1,-1.15;-1.1,-1.15;-.3,-.3;-.3,-.3" calcMode="discrete"/><animate attributeName="opacity" repeatCount="indefinite" dur="11s" keyTimes="0;.09399;.094;.09499;.095;.09699;.097;.09799;.098;.09999;.1;.10199;.102;.10299;.103;.10499;.105;.10599;.106;.10799;.108;.10899;.109;.11099;.111;.11199;.112;.11399;.114;.11499;.115;.11699;.117;.11799;.118;.11999;.12;.12099;.121;.12299;.123;.12399;.124;.12599;.126;.12699;.127;.13199;.132;.13599;.136;.90499;.905;.90599;.906;.90799;.908;.90899;.909;.91099;.911;.91199;.912;.91399;.914;.91499;.915;.91699;.917;.91799;.918;.91999;.92;.92099;.921;.92299;.923;.92399;.924;.92599;.926;.92699;.927;.92899;.929;.92999;.93;.93199;.932;.93299;.933;.93499;.935;.93599;.936;.93799;.938;.93899;.939;.94099;.941;.94199;.942;.94399;.944;.94499;.945;.94699;.947;.94799;.948;.94999;.95;.95199;.952;.95299;.953;.95499;.955;.95599;.956;.95799;.958;.95899;.959;.96099;.961;.96199;.962;.96399;.964;.96499;.965;.96699;.967;.96799;.968;.96999;.97;.97099;.971;.97299;.973;.97399;.974;.97599;.976;.97699;.977;.97899;.979;.97999;.98;.98199;.982;.98299;.983;.98499;.985;.98599;.986;.98799;.988;.98899;.989;.99099;.991;.99199;.992;.99399;.994;.99499;.995;.99699;.997;.99799;.998;1" values="0;0;.11;.11;.21;.21;.3;.3;.38;.38;.45;.45;.52;.52;.58;.58;.63;.63;.68;.68;.72;.72;.76;.76;.8;.8;.83;.83;.85;.85;.88;.88;.89;.89;.91;.91;.93;.93;.94;.94;.95;.95;.96;.96;.97;.97;.98;.98;.99;.99;1;1;.98;.98;.97;.97;.95;.95;.94;.94;.92;.92;.91;.91;.89;.89;.87;.87;.86;.86;.84;.84;.82;.82;.81;.81;.79;.79;.78;.78;.76;.76;.75;.75;.73;.73;.71;.71;.7;.7;.68;.68;.67;.67;.65;.65;.64;.64;.62;.62;.6;.6;.59;.59;.57;.57;.55;.55;.54;.54;.52;.52;.51;.51;.49;.49;.48;.48;.46;.46;.45;.45;.43;.43;.41;.41;.4;.4;.38;.38;.36;.36;.35;.35;.33;.33;.32;.32;.3;.3;.29;.29;.27;.27;.25;.25;.24;.24;.22;.22;.21;.21;.19;.19;.18;.18;.16;.16;.14;.14;.13;.13;.11;.11;.09;.09;.08;.08;.06;.06;.05;.05;.03;.03;.02;.02;0;0" calcMode="discrete"/><path fill="#630DA6" stroke="none" d="M35.35 -35.35Q20.7 -50 0 -50 -20.7 -50 -35.35 -35.35 -50 -20.7 -50 0 -50 20.7 -35.35 35.35 -20.7 50 0 50 20.7 50 35.35 35.35 50 20.7 50 0 50 -20.7 35.35 -35.35Z"/><path fill="#FFF" stroke="none" d="M-8.05 -1.1Q-8.05 -5.05 -10.25 -7.55 -12.4 -10.1 -16.15 -10.1L-23.15 -10.1 -23.15 7.8 -16.15 7.8Q-12.4 7.8 -10.25 5.3 -8.05 2.75 -8.05 -1.1M-16.15 -7.1Q-13.85 -7.1 -12.65 -5.4 -11.4 -3.7 -11.4 -1.1 -11.4 1.4 -12.65 3.1 -13.85 4.75 -16.15 4.75L-19.85 4.75 -19.85 -7.1 -16.15 -7.1M19.15 -4.6Q18.05 -4.6 17.05 -4.05 16 -3.5 15.5 -2.55L15.5 -4.35 12.35 -4.35 12.35 7.8 15.5 7.8 15.5 1.3Q15.5 -1.5 18.15 -1.5 20.5 -1.5 20.5 1.2L20.5 7.8 23.65 7.8 23.65 .6Q23.65 -1.9 22.5 -3.3 21.3 -4.6 19.15 -4.6M8.05 -4.35L4.85 -4.35 4.85 -2.85Q3.7 -4.6 1.1 -4.6 -1.45 -4.6 -3.3 -2.85 -5.1 -1.1 -5.1 1.7 -5.1 4.5 -3.25 6.3 -1.45 8.05 1.1 8.05 2.15 8.05 3.2 7.55 4.35 7.05 4.85 6.25L4.85 7.8 8.05 7.8 8.05 -4.35M1.5 -1.55Q2.9 -1.55 3.85 -.7 4.85 .2 4.85 1.7 4.95 3.95 2.8 4.75 1.85 5.1 .85 4.95 -.15 4.8 -.85 4.1 -1.85 3.15 -1.85 1.7 -1.85 .3 -.85 -.65 .2 -1.55 1.5 -1.55Z"/></g><animate attributeName="display" repeatCount="indefinite" dur="11s" keyTimes="0;.092;1" values="none;inline;inline"/></g><g display="none"><g id="Peer-copy-2" transform="matrix(.05 0 0 .05 340.6 426)"><animateTransform attributeName="transform" additive="replace" type="translate" repeatCount="indefinite" dur="11s" keyTimes="0;.09099;.091;.09199;.092;.09399;.094;.09499;.095;.09699;.097;.09799;.098;.09999;.1;.10199;.102;.10299;.103;.10499;.105;.10599;.106;.10799;.108;.10899;.109;.11099;.111;.11199;.112;.11399;.114;.11499;.115;.11699;.117;.11799;.118;.11999;.12;.12099;.121;.12299;.123;.12399;.124;.12599;.126;.12699;.127;.12899;.129;.12999;.13;.13199;.132;.13299;.133;.13499;.135;.13599;.136;.13799;.138;.13899;.139;.14099;.141;.14199;.142;.14399;.144;.14499;.145;.14699;.147;.14799;.148;.14999;.15;.15199;.152;.15299;.153;.15499;.155;.15599;.156;1" values="340.652,426.052;340.652,426.052;340.65,426.103;340.65,426.103;340.65,426.05;340.65,426.05;340.653,426.103;340.653,426.103;340.65,426.05;340.65,426.05;340.701,426.101;340.701,426.101;340.65,426.102;340.65,426.102;340.648,426.098;340.648,426.098;340.654,426.065;340.654,426.065;340.703,426.067;340.703,426.067;340.654,426.12;340.654,426.12;340.707,426.057;340.707,426.057;340.705,426.077;340.705,426.077;340.715,426.065;340.715,426.065;340.674,426.074;340.674,426.074;340.682,426.065;340.682,426.065;340.713,426.113;340.713,426.113;340.665,426.065;340.665,426.065;340.725,426.041;340.725,426.041;340.658,426.072;340.658,426.072;340.662,426.062;340.662,426.062;340.66,426.07;340.66,426.07;340.674,426.074;340.674,426.074;340.664,426.114;340.664,426.114;340.711,426.061;340.711,426.061;340.664,426.114;340.664,426.114;340.674,426.074;340.674,426.074;340.66,426.07;340.66,426.07;340.662,426.062;340.662,426.062;340.658,426.072;340.658,426.072;340.725,426.125;340.725,426.125;340.665,426.065;340.665,426.065;340.7,426.038;340.7,426.038;340.654,426.054;340.654,426.054;340.675,426.125;340.675,426.125;340.665,426.065;340.665,426.065;340.748,426.062;340.748,426.062;340.665,426.065;340.665,426.065;340.675,426.125;340.675,426.125;340.654,426.054;340.654,426.054;340.7,426.038;340.7,426.038;340.703,426.066;340.703,426.066;340.663,426.087;340.663,426.087;340.703,426.066;340.703,426.066;340.663,426.063;340.663,426.063" calcMode="discrete"/><animateTransform attributeName="transform" additive="sum" type="scale" repeatCount="indefinite" dur="11s" keyTimes="0;.09099;.091;.09199;.092;.09399;.094;.09499;.095;.09699;.097;.09799;.098;.09999;.1;.10199;.102;.10299;.103;.10499;.105;.10599;.106;.10799;.108;.10899;.109;.11099;.111;.11199;.112;.11399;.114;.11499;.115;.11699;.117;.11799;.118;.11999;.12;.12099;.121;.12299;.123;.12399;.124;.12599;.126;.12699;.127;.12899;.129;.12999;.13;.13199;.132;.13299;.133;.13499;.135;.13599;.136;.13799;.138;.13899;.139;.14099;.141;.14199;.142;.14399;.144;.14499;.145;.14699;.147;.14799;.148;.14999;.15;.15199;.152;.15299;.153;.15499;.155;.15599;.156;1" values=".05,.05;.05,.05;.053,.053;.053,.053;.061,.061;.061,.061;.075,.075;.075,.075;.094,.094;.094,.094;.118,.118;.118,.118;.148,.148;.148,.148;.184,.184;.184,.184;.225,.225;.225,.225;.271,.271;.271,.271;.323,.323;.323,.323;.381,.381;.381,.381;.444,.444;.444,.444;.512,.512;.512,.512;.586,.586;.586,.586;.665,.665;.665,.665;.75,.75;.75,.75;.709,.709;.709,.709;.674,.674;.674,.674;.643,.643;.643,.643;.619,.619;.619,.619;.6,.6;.6,.6;.586,.586;.586,.586;.578,.578;.578,.578;.575,.575;.575,.575;.578,.578;.578,.578;.586,.586;.586,.586;.6,.6;.6,.6;.619,.619;.619,.619;.643,.643;.643,.643;.674,.674;.674,.674;.709,.709;.709,.709;.75,.75;.75,.75;.731,.731;.731,.731;.717,.717;.717,.717;.709,.709;.709,.709;.706,.706;.706,.706;.709,.709;.709,.709;.717,.717;.717,.717;.731,.731;.731,.731;.75,.75;.75,.75;.742,.742;.742,.742;.739,.739;.739,.739;.742,.742;.742,.742;.75,.75;.75,.75" calcMode="discrete"/><animateTransform attributeName="transform" additive="sum" type="translate" repeatCount="indefinite" dur="11s" keyTimes="0;.09099;.091;.09199;.092;.09399;.094;.09499;.095;.09699;.097;.09799;.098;.09999;.1;.10199;.102;.10299;.103;.10499;.105;.10599;.106;.10799;.108;.10899;.109;.11099;.111;.11199;.112;.11399;.114;.11699;.117;.11799;.118;.11999;.12;.12099;.121;.12299;.123;.12999;.13;.13199;.132;.13299;.133;.13499;.135;.13799;.138;.13899;.139;.14099;.141;.14399;.144;.14499;.145;.14799;.148;.14999;.15;.15199;.152;.15299;.153;.15499;.155;.15599;.156;1" values="-2.05,-2.05;-2.05,-2.05;-1.9,-2.9;-1.9,-2.9;-1.65,-1.65;-1.65,-1.65;-2.05,-2.05;-2.05,-2.05;-1.6,-1.6;-1.6,-1.6;-1.7,-1.7;-1.7,-1.7;-1.35,-1.7;-1.35,-1.7;-1.35,-1.35;-1.35,-1.35;-1.35,-1.4;-1.35,-1.4;-1.3,-1.35;-1.3,-1.35;-1.25,-1.3;-1.25,-1.3;-1.2,-1.2;-1.2,-1.2;-1.25,-1.3;-1.25,-1.3;-1.2,-1.2;-1.2,-1.2;-1.15,-1.15;-1.15,-1.15;-1.1,-1.15;-1.1,-1.15;-1.15,-1.15;-1.15,-1.15;-1.15,-1.1;-1.15,-1.1;-1.1,-1.2;-1.1,-1.2;-1.15,-1.15;-1.15,-1.15;-1.1,-1.2;-1.1,-1.2;-1.15,-1.15;-1.15,-1.15;-1.1,-1.2;-1.1,-1.2;-1.15,-1.15;-1.15,-1.15;-1.1,-1.2;-1.1,-1.2;-1.15,-1.15;-1.15,-1.15;-1.2,-1.05;-1.2,-1.05;-1.1,-1.1;-1.1,-1.1;-1.15,-1.15;-1.15,-1.15;-1.2,-1.15;-1.2,-1.15;-1.15,-1.15;-1.15,-1.15;-1.1,-1.1;-1.1,-1.1;-1.2,-1.05;-1.2,-1.05;-1.15,-1.1;-1.15,-1.1;-1.1,-1.2;-1.1,-1.2;-1.15,-1.1;-1.15,-1.1;-.35,-.35;-.35,-.35" calcMode="discrete"/><animate attributeName="opacity" repeatCount="indefinite" dur="11s" keyTimes="0;.09099;.091;.09199;.092;.09399;.094;.09499;.095;.09699;.097;.09799;.098;.09999;.1;.10199;.102;.10299;.103;.10499;.105;.10599;.106;.10799;.108;.10899;.109;.11099;.111;.11199;.112;.11399;.114;.11499;.115;.11699;.117;.11799;.118;.11999;.12;.12099;.121;.12299;.123;.12399;.124;.12899;.129;.13299;.133;.90499;.905;.90599;.906;.90799;.908;.90899;.909;.91099;.911;.91199;.912;.91399;.914;.91499;.915;.91699;.917;.91799;.918;.91999;.92;.92099;.921;.92299;.923;.92399;.924;.92599;.926;.92699;.927;.92899;.929;.92999;.93;.93199;.932;.93299;.933;.93499;.935;.93599;.936;.93799;.938;.93899;.939;.94099;.941;.94199;.942;.94399;.944;.94499;.945;.94699;.947;.94799;.948;.94999;.95;.95199;.952;.95299;.953;.95499;.955;.95599;.956;.95799;.958;.95899;.959;.96099;.961;.96199;.962;.96399;.964;.96499;.965;.96699;.967;.96799;.968;.96999;.97;.97099;.971;.97299;.973;.97399;.974;.97599;.976;.97699;.977;.97899;.979;.97999;.98;.98199;.982;.98299;.983;.98499;.985;.98599;.986;.98799;.988;.98899;.989;.99099;.991;.99199;.992;.99399;.994;.99499;.995;.99699;.997;.99799;.998;1" values="0;0;.11;.11;.21;.21;.3;.3;.38;.38;.45;.45;.52;.52;.58;.58;.63;.63;.68;.68;.72;.72;.76;.76;.8;.8;.83;.83;.85;.85;.88;.88;.89;.89;.91;.91;.93;.93;.94;.94;.95;.95;.96;.96;.97;.97;.98;.98;.99;.99;1;1;.98;.98;.97;.97;.95;.95;.94;.94;.92;.92;.91;.91;.89;.89;.87;.87;.86;.86;.84;.84;.82;.82;.81;.81;.79;.79;.78;.78;.76;.76;.75;.75;.73;.73;.71;.71;.7;.7;.68;.68;.67;.67;.65;.65;.64;.64;.62;.62;.6;.6;.59;.59;.57;.57;.55;.55;.54;.54;.52;.52;.51;.51;.49;.49;.48;.48;.46;.46;.45;.45;.43;.43;.41;.41;.4;.4;.38;.38;.36;.36;.35;.35;.33;.33;.32;.32;.3;.3;.29;.29;.27;.27;.25;.25;.24;.24;.22;.22;.21;.21;.19;.19;.18;.18;.16;.16;.14;.14;.13;.13;.11;.11;.09;.09;.08;.08;.06;.06;.05;.05;.03;.03;.02;.02;0;0" calcMode="discrete"/><path fill="#12C3B3" stroke="none" d="M35.35 -35.35Q20.7 -50 0 -50 -20.7 -50 -35.35 -35.35 -50 -20.7 -50 0 -50 20.7 -35.35 35.35 -20.7 50 0 50 20.7 50 35.35 35.35 50 20.7 50 0 50 -20.7 35.35 -35.35Z"/><path fill="#FFF" stroke="none" d="M-8 -4.4L-11.35 -4.4 -6.65 6.8 -9.4 13.7 -6.05 13.7 1.45 -4.4 -1.9 -4.4 -4.95 3.2 -8 -4.4M-25.9 -1.15Q-25.9 -3.7 -24.25 -5.45 -22.6 -7.25 -20.15 -7.25 -17.35 -7.25 -15.65 -4.95L-12.95 -6.85Q-14.2 -8.5 -16.05 -9.45 -17.95 -10.4 -20.15 -10.4 -24 -10.4 -26.6 -7.7 -29.2 -5.05 -29.2 -1.15 -29.2 2.65 -26.6 5.35 -24 8 -20.15 8 -17.9 8 -16 7.05 -14.1 6.1 -12.9 4.35L-15.55 2.45Q-17.25 4.85 -20.15 4.85 -22.6 4.85 -24.25 3.1 -25.9 1.35 -25.9 -1.15M26.25 -11L23.1 -11 23.1 7.75 26.25 7.75 26.25 -11M18.8 -4.4L15.65 -4.4 15.65 7.75 18.8 7.75 18.8 -4.4M15.8 -7.75Q16.4 -7.2 17.25 -7.2 18.05 -7.2 18.65 -7.75 19.25 -8.3 19.25 -9.1 19.25 -9.9 18.65 -10.45 18.05 -11 17.25 -11 16.4 -11 15.8 -10.45 15.15 -9.9 15.15 -9.1 15.15 -8.3 15.8 -7.75M8.75 -3.85Q7.8 -3.05 7.35 -1.55L7.35 -4.4 4.2 -4.4 4.2 7.75 7.35 7.75 7.35 3.45Q7.35 -1.7 10.4 -1.7 11.55 -1.7 12.25 -1.35L12.8 -4.2Q11.95 -4.65 10.8 -4.65 9.65 -4.65 8.75 -3.85Z"/></g><animate attributeName="display" repeatCount="indefinite" dur="11s" keyTimes="0;.089;1" values="none;inline;inline"/></g><g display="none"><g id="Peer-copy" transform="matrix(.05 0 0 .05 444.95 102.2)"><animateTransform attributeName="transform" additive="replace" type="translate" repeatCount="indefinite" dur="11s" keyTimes="0;.09699;.097;.09799;.098;.09999;.1;.10199;.102;.10299;.103;.10499;.105;.10599;.106;.10799;.108;.10899;.109;.11099;.111;.11199;.112;.11399;.114;.11499;.115;.11699;.117;.11799;.118;.11999;.12;.12099;.121;.12299;.123;.12399;.124;.12599;.126;.12699;.127;.12899;.129;.12999;.13;.13199;.132;.13299;.133;.13499;.135;.13599;.136;.13799;.138;.13899;.139;.14099;.141;.14199;.142;.14399;.144;.14499;.145;.14699;.147;.14799;.148;.14999;.15;.15199;.152;.15299;.153;.15499;.155;.15599;.156;.15799;.158;.15899;.159;.16099;.161;.16199;.162;1" values="445,102.202;445,102.202;445.003,102.25;445.003,102.25;445,102.202;445,102.202;445.003,102.254;445.003,102.254;445.05,102.253;445.05,102.253;445.001,102.251;445.001,102.251;445,102.202;445,102.202;445.008,102.26;445.008,102.26;445.054,102.251;445.054,102.251;445.017,102.259;445.017,102.259;445.004,102.199;445.004,102.199;445.007,102.264;445.007,102.264;445.055,102.217;445.055,102.217;445.015,102.278;445.015,102.278;444.995,102.267;444.995,102.267;445.015,102.283;445.015,102.283;445.063,102.225;445.063,102.225;445.015,102.256;445.015,102.256;445.025,102.251;445.025,102.251;445.04,102.247;445.04,102.247;445.062,102.293;445.062,102.293;445.01,102.27;445.01,102.27;444.995,102.267;444.995,102.267;445.014,102.266;445.014,102.266;445.061,102.258;445.061,102.258;445.014,102.266;445.014,102.266;444.995,102.267;444.995,102.267;445.01,102.27;445.01,102.27;445.062,102.293;445.062,102.293;445.04,102.247;445.04,102.247;445.025,102.251;445.025,102.251;445.015,102.256;445.015,102.256;445.025,102.275;445.025,102.275;445.004,102.296;445.004,102.296;445.025,102.258;445.025,102.258;445.015,102.256;445.015,102.256;445.027,102.271;445.027,102.271;445.015,102.256;445.015,102.256;445.025,102.258;445.025,102.258;445.004,102.296;445.004,102.296;445.025,102.275;445.025,102.275;445.016,102.237;445.016,102.237;445.013,102.298;445.013,102.298;445.016,102.237;445.016,102.237;445.013,102.225;445.013,102.225" calcMode="discrete"/><animateTransform attributeName="transform" additive="sum" type="scale" repeatCount="indefinite" dur="11s" keyTimes="0;.09699;.097;.09799;.098;.09999;.1;.10199;.102;.10299;.103;.10499;.105;.10599;.106;.10799;.108;.10899;.109;.11099;.111;.11199;.112;.11399;.114;.11499;.115;.11699;.117;.11799;.118;.11999;.12;.12099;.121;.12299;.123;.12399;.124;.12599;.126;.12699;.127;.12899;.129;.12999;.13;.13199;.132;.13299;.133;.13499;.135;.13599;.136;.13799;.138;.13899;.139;.14099;.141;.14199;.142;.14399;.144;.14499;.145;.14699;.147;.14799;.148;.14999;.15;.15199;.152;.15299;.153;.15499;.155;.15599;.156;.15799;.158;.15899;.159;.16099;.161;.16199;.162;1" values=".05,.05;.05,.05;.053,.053;.053,.053;.061,.061;.061,.061;.075,.075;.075,.075;.094,.094;.094,.094;.118,.118;.118,.118;.148,.148;.148,.148;.184,.184;.184,.184;.225,.225;.225,.225;.271,.271;.271,.271;.323,.323;.323,.323;.381,.381;.381,.381;.444,.444;.444,.444;.512,.512;.512,.512;.586,.586;.586,.586;.665,.665;.665,.665;.75,.75;.75,.75;.709,.709;.709,.709;.674,.674;.674,.674;.643,.643;.643,.643;.619,.619;.619,.619;.6,.6;.6,.6;.586,.586;.586,.586;.578,.578;.578,.578;.575,.575;.575,.575;.578,.578;.578,.578;.586,.586;.586,.586;.6,.6;.6,.6;.619,.619;.619,.619;.643,.643;.643,.643;.674,.674;.674,.674;.709,.709;.709,.709;.75,.75;.75,.75;.731,.731;.731,.731;.717,.717;.717,.717;.709,.709;.709,.709;.706,.706;.706,.706;.709,.709;.709,.709;.717,.717;.717,.717;.731,.731;.731,.731;.75,.75;.75,.75;.742,.742;.742,.742;.739,.739;.739,.739;.742,.742;.742,.742;.75,.75;.75,.75" calcMode="discrete"/><animateTransform attributeName="transform" additive="sum" type="translate" repeatCount="indefinite" dur="11s" keyTimes="0;.09699;.097;.09799;.098;.09999;.1;.10199;.102;.10299;.103;.10499;.105;.10599;.106;.10799;.108;.10899;.109;.11099;.111;.11199;.112;.11399;.114;.11499;.115;.11699;.117;.11799;.118;.11999;.12;.12099;.121;.12699;.127;.12999;.13;.13199;.132;.13299;.133;.13499;.135;.13799;.138;.14399;.144;.14499;.145;.14699;.147;.14999;.15;.15199;.152;.15499;.155;.15599;.156;.15799;.158;.15899;.159;.16099;.161;.16199;.162;1" values="-2,-1.05;-2,-1.05;-1.95,-1.9;-1.95,-1.9;-1.65,-.85;-1.65,-.85;-2.05,-1.4;-2.05,-1.4;-1.6,-1.1;-1.6,-1.1;-1.7,-.85;-1.7,-.85;-1.35,-.35;-1.35,-.35;-1.4,-.6;-1.4,-.6;-1.35,-.45;-1.35,-.45;-1.35,-.4;-1.35,-.4;-1.25,-.15;-1.25,-.15;-1.2,-.3;-1.2,-.3;-1.25,-.15;-1.25,-.15;-1.2,-.25;-1.2,-.25;-1.1,-.2;-1.1,-.2;-1.15,-.2;-1.15,-.2;-1.15,-.1;-1.15,-.1;-1.15,-.15;-1.15,-.15;-1.1,-.2;-1.1,-.2;-1.15,-.2;-1.15,-.2;-1.15,-.1;-1.15,-.1;-1.15,-.2;-1.15,-.2;-1.1,-.2;-1.1,-.2;-1.15,-.15;-1.15,-.15;-1.1,-.1;-1.1,-.1;-1.1,-.2;-1.1,-.2;-1.15,-.15;-1.15,-.15;-1.1,-.1;-1.1,-.1;-1.15,-.15;-1.15,-.15;-1.1,-.2;-1.1,-.2;-1.1,-.1;-1.1,-.1;-1.1,-.05;-1.1,-.05;-1.1,-.2;-1.1,-.2;-1.1,-.05;-1.1,-.05;-.35,-.3;-.35,-.3" calcMode="discrete"/><animate attributeName="opacity" repeatCount="indefinite" dur="11s" keyTimes="0;.09699;.097;.09799;.098;.09999;.1;.10199;.102;.10299;.103;.10499;.105;.10599;.106;.10799;.108;.10899;.109;.11099;.111;.11199;.112;.11399;.114;.11499;.115;.11699;.117;.11799;.118;.11999;.12;.12099;.121;.12299;.123;.12399;.124;.12599;.126;.12699;.127;.12899;.129;.12999;.13;.13499;.135;.13899;.139;.90499;.905;.90599;.906;.90799;.908;.90899;.909;.91099;.911;.91199;.912;.91399;.914;.91499;.915;.91699;.917;.91799;.918;.91999;.92;.92099;.921;.92299;.923;.92399;.924;.92599;.926;.92699;.927;.92899;.929;.92999;.93;.93199;.932;.93299;.933;.93499;.935;.93599;.936;.93799;.938;.93899;.939;.94099;.941;.94199;.942;.94399;.944;.94499;.945;.94699;.947;.94799;.948;.94999;.95;.95199;.952;.95299;.953;.95499;.955;.95599;.956;.95799;.958;.95899;.959;.96099;.961;.96199;.962;.96399;.964;.96499;.965;.96699;.967;.96799;.968;.96999;.97;.97099;.971;.97299;.973;.97399;.974;.97599;.976;.97699;.977;.97899;.979;.97999;.98;.98199;.982;.98299;.983;.98499;.985;.98599;.986;.98799;.988;.98899;.989;.99099;.991;.99199;.992;.99399;.994;.99499;.995;.99699;.997;.99799;.998;1" values="0;0;.11;.11;.21;.21;.3;.3;.38;.38;.45;.45;.52;.52;.58;.58;.63;.63;.68;.68;.72;.72;.76;.76;.8;.8;.83;.83;.85;.85;.88;.88;.89;.89;.91;.91;.93;.93;.94;.94;.95;.95;.96;.96;.97;.97;.98;.98;.99;.99;1;1;.98;.98;.97;.97;.95;.95;.94;.94;.92;.92;.91;.91;.89;.89;.87;.87;.86;.86;.84;.84;.82;.82;.81;.81;.79;.79;.78;.78;.76;.76;.75;.75;.73;.73;.71;.71;.7;.7;.68;.68;.67;.67;.65;.65;.64;.64;.62;.62;.6;.6;.59;.59;.57;.57;.55;.55;.54;.54;.52;.52;.51;.51;.49;.49;.48;.48;.46;.46;.45;.45;.43;.43;.41;.41;.4;.4;.38;.38;.36;.36;.35;.35;.33;.33;.32;.32;.3;.3;.29;.29;.27;.27;.25;.25;.24;.24;.22;.22;.21;.21;.19;.19;.18;.18;.16;.16;.14;.14;.13;.13;.11;.11;.09;.09;.08;.08;.06;.06;.05;.05;.03;.03;.02;.02;0;0" calcMode="discrete"/><path fill="#08A0C8" stroke="none" d="M35.35 -35.35Q20.7 -50 0 -50 -20.7 -50 -35.35 -35.35 -50 -20.7 -50 0 -50 20.7 -35.35 35.35 -20.7 50 0 50 20.7 50 35.35 35.35 50 20.7 50 0 50 -20.7 35.35 -35.35Z"/><path fill="#FFF" stroke="none" d="M-28.05 -2.55L-28.05 -7.2 -20.25 -7.2 -20.25 -10.15 -31.35 -10.15 -31.35 7.75 -20 7.75 -20 4.8 -28.05 4.8 -28.05 .4 -21.25 .4 -21.25 -2.55 -28.05 -2.55M2.85 7.75L2.85 .8Q2.85 -1.85 1.6 -3.25 .4 -4.65 -1.85 -4.65 -4.4 -4.65 -5.65 -2.35 -6.65 -4.5 -9.55 -4.65 -10.6 -4.65 -11.55 -4.15 -12.6 -3.55 -13.05 -2.6L-13.05 -4.4 -16.2 -4.4 -16.2 7.75 -13.05 7.75 -13.05 1.25Q-13.05 -1.55 -10.5 -1.55 -9.5 -1.55 -8.9 -.85 -8.25 -.15 -8.25 1.05L-8.25 7.75 -5.05 7.75 -5.05 1.25Q-5.05 -.05 -4.4 -.8 -3.7 -1.55 -2.6 -1.55 -1.6 -1.55 -.95 -.85 -.3 -.1 -.3 1.15L-.3 7.75 2.85 7.75M23.8 -4.4L20.45 -4.4 25.15 6.8 22.4 13.7 25.75 13.7 33.25 -4.4 29.9 -4.4 26.85 3.2 23.8 -4.4M10.15 -4.4L7 -4.4 7 7.75 10.15 7.75 10.15 -4.4M17.65 -11L14.5 -11 14.5 7.75 17.65 7.75 17.65 -11M8.6 -7.2Q9.4 -7.2 10 -7.75 10.6 -8.3 10.6 -9.1 10.6 -9.9 10 -10.45 9.4 -11 8.6 -11 7.75 -11 7.15 -10.45 6.5 -9.9 6.5 -9.1 6.5 -8.3 7.15 -7.75 7.75 -7.2 8.6 -7.2Z"/></g><animate attributeName="display" repeatCount="indefinite" dur="11s" keyTimes="0;.095;1" values="none;inline;inline"/></g><g id="Symbol-39-copy-2" transform="matrix(2.648 0 0 .758 424.9 250.4)"><path fill="#52BC8E" stroke="none" d="M28.35 2.5L28.35 -2.5 -28.3 -2.5 -28.3 2.5 28.35 2.5Z"/></g><g id="Symbol-39-copy" transform="matrix(2.648 0 0 .758 574.9 250.4)"><path fill="#52BC8E" stroke="none" d="M14.2 2.5L14.2 -2.5 -28.3 -2.5 -28.3 2.5 14.2 2.5Z"/></g><g id="Symbol-43-copy" transform="matrix(.75 0 0 .75 499.95 229.45)"><g id="Symbol-61-copy" transform="translate(0 -.25)"><path fill="#52BC8E" stroke="none" d="M-20.2 -6.95L-22.5 -6.95 -22.5 -.95Q-23.25 -2.3 -25.3 -2.3 -27.1 -2.3 -28.35 -1 -29.65 .25 -29.65 2.3 -29.65 4.4 -28.35 5.65 -27.1 6.95 -25.3 6.95 -24.4 6.95 -23.6 6.55 -22.85 6.2 -22.5 5.55L-22.5 6.75 -20.2 6.75 -20.2 -6.95M-23.25 4.05Q-23.95 4.7 -24.9 4.7 -25.9 4.7 -26.6 4.05 -27.25 3.35 -27.25 2.3 -27.25 1.25 -26.55 .55 -25.9 -.1 -24.9 -.1 -24 -.1 -23.25 .55 -22.55 1.2 -22.55 2.3 -22.55 3.35 -23.25 4.05M-7.65 -2.3Q-9.65 -2.3 -11.05 -1 -12.45 .25 -12.45 2.3 -12.45 4.3 -11.05 5.65 -9.65 6.95 -7.65 6.95 -5.25 6.95 -3.95 5.2L-5.8 3.85Q-6.5 4.7 -7.65 4.7 -8.7 4.7 -9.4 4.05 -10.15 3.3 -10.15 2.3 -10.15 1.25 -9.4 .6 -8.65 -.05 -7.65 -.05 -6.45 -.05 -5.8 .8L-4 -.6Q-5.3 -2.3 -7.65 -2.3M-32.85 -1.05Q-34.1 -2.3 -36.05 -2.3 -38 -2.3 -39.3 -1.05 -40.65 .25 -40.65 2.3 -40.65 4.35 -39.3 5.65 -37.95 6.95 -36.05 6.95 -34.65 6.95 -33.6 6.4 -32.45 5.85 -31.9 4.8L-33.65 3.85Q-34.3 5 -35.9 5 -36.9 5 -37.55 4.45 -38.25 3.95 -38.35 3.1L-31.6 3.1 -31.55 2.3Q-31.55 .25 -32.85 -1.05M-34.55 .1Q-33.9 .65 -33.8 1.5L-38.35 1.5Q-38.25 .65 -37.6 .15 -36.95 -.35 -36 -.35 -35.15 -.35 -34.55 .1M-46.5 -5.5L-46.5 -2.1 -48.1 -2.1 -48.1 -.25 -46.5 -.25 -46.5 6.75 -44.2 6.75 -44.2 -.25 -42.3 -.25 -42.3 -2.1 -44.2 -2.1 -44.2 -5.5 -46.5 -5.5M-53.35 -.45Q-52.9 -.45 -52.55 -.2 -52.2 .05 -52.2 .5L-50 .5Q-50.05 -.95 -51.05 -1.65 -52.05 -2.3 -53.45 -2.3 -54.75 -2.3 -55.75 -1.5 -56.7 -.75 -56.7 .35 -56.7 1.3 -56.3 1.85 -55.75 2.6 -54.2 3.05L-52.95 3.35Q-52 3.55 -52 4.2 -52 4.55 -52.35 4.8 -52.65 5.05 -53.15 5.1 -53.8 5.1 -54.25 4.75 -54.75 4.45 -54.8 3.95L-56.95 3.95Q-56.95 5.3 -55.9 6.15 -54.8 6.95 -53.4 6.95 -51.9 6.95 -50.85 6.2 -49.75 5.5 -49.75 4.2 -49.75 2.15 -52.1 1.55L-53.55 1.2Q-54.5 .95 -54.5 .45 -54.5 -.45 -53.35 -.45M-65.35 -2.1L-67.7 -2.1 -67.7 3.1Q-67.7 4.95 -66.75 5.95 -65.85 6.95 -64.2 6.95 -63.5 6.95 -62.8 6.55 -62.1 6.15 -61.75 5.5L-61.75 6.75 -59.45 6.75 -59.45 -2.1 -61.75 -2.1 -61.75 2.6Q-61.75 3.65 -62.3 4.2 -62.8 4.7 -63.7 4.7 -64.4 4.7 -64.85 4.2 -65.35 3.65 -65.35 2.7L-65.35 -2.1M-71.05 -2.3Q-71.9 -2.3 -72.55 -1.75 -73.25 -1.15 -73.55 -.05L-73.55 -2.1 -75.9 -2.1 -75.9 6.75 -73.55 6.75 -73.55 3.6Q-73.55 -.15 -71.35 -.15 -70.5 -.15 -70 .1L-69.6 -2Q-70.2 -2.3 -71.05 -2.3M-82.3 -5.5L-82.3 -2.1 -83.9 -2.1 -83.9 -.25 -82.3 -.25 -82.3 6.75 -80 6.75 -80 -.25 -78.1 -.25 -78.1 -2.1 -80 -2.1 -80 -5.5 -82.3 -5.5M63 -2.1L60.7 -2.1 60.7 6.75 63 6.75 63 -2.1M80.8 -1.9Q80.05 -1.5 79.7 -.8L79.7 -2.1 77.35 -2.1 77.35 6.75 79.7 6.75 79.7 2Q79.7 -.05 81.6 -.05 83.3 -.05 83.3 1.95L83.3 6.75 85.6 6.75 85.6 1.5Q85.6 -.35 84.75 -1.35 83.9 -2.3 82.3 -2.3 81.5 -2.3 80.8 -1.9M70.2 -2.3Q68.2 -2.3 66.9 -1.05 65.55 .25 65.55 2.3 65.55 4.35 66.9 5.65 68.25 6.9 70.2 6.9 72.1 6.9 73.45 5.65 74.8 4.35 74.8 2.3 74.8 .25 73.45 -1.05 72.1 -2.3 70.2 -2.3M72.5 2.3Q72.5 3.35 71.8 4 71.15 4.65 70.2 4.65 69.2 4.65 68.55 4 67.85 3.35 67.85 2.3 67.85 1.25 68.55 .6 69.2 -.05 70.2 -.05 71.15 -.05 71.8 .6 72.5 1.25 72.5 2.3M61.85 -4.15Q62.5 -4.15 62.9 -4.55 63.35 -5 63.35 -5.55 63.35 -6.15 62.9 -6.55 62.5 -6.95 61.85 -6.95 61.25 -6.95 60.8 -6.55 60.35 -6.15 60.35 -5.55 60.35 -5 60.8 -4.55 61.25 -4.15 61.85 -4.15M54.3 -5.5L54.3 -2.1 52.7 -2.1 52.7 -.25 54.3 -.25 54.3 6.75 56.6 6.75 56.6 -.25 58.5 -.25 58.5 -2.1 56.6 -2.1 56.6 -5.5 54.3 -5.5M47.45 -2.3Q45.45 -2.3 44.05 -1 42.65 .25 42.65 2.3 42.65 4.3 44.05 5.65 45.45 6.95 47.45 6.95 49.85 6.95 51.15 5.2L49.3 3.85Q48.6 4.7 47.45 4.7 46.4 4.7 45.7 4.05 44.95 3.3 44.95 2.3 44.95 1.25 45.7 .6 46.45 -.05 47.45 -.05 48.65 -.05 49.3 .8L51.1 -.6Q49.8 -2.3 47.45 -2.3M36.25 -2.3Q34.3 -2.3 33 -1.05 31.65 .25 31.65 2.3 31.65 4.35 33 5.65 34.35 6.95 36.25 6.95 37.65 6.95 38.7 6.4 39.85 5.85 40.4 4.8L38.65 3.85Q38 5 36.4 5 35.4 5 34.75 4.45 34.05 3.95 33.95 3.1L40.7 3.1 40.75 2.3Q40.75 .25 39.45 -1.05 38.2 -2.3 36.25 -2.3M37.75 .1Q38.4 .65 38.5 1.5L33.95 1.5Q34.05 .65 34.7 .15 35.35 -.35 36.3 -.35 37.15 -.35 37.75 .1M24.4 -1.9Q23.65 -1.5 23.3 -.8L23.3 -2.1 20.95 -2.1 20.95 6.75 23.3 6.75 23.3 2Q23.3 -.05 25.2 -.05 26.9 -.05 26.9 1.95L26.9 6.75 29.2 6.75 29.2 1.5Q29.2 -.35 28.35 -1.35 27.5 -2.3 25.9 -2.3 25.1 -2.3 24.4 -1.9M17.1 -1.35Q16.25 -2.3 14.65 -2.3 13.85 -2.3 13.15 -1.9 12.4 -1.5 12.05 -.8L12.05 -2.1 9.7 -2.1 9.7 6.75 12.05 6.75 12.05 2Q12.05 -.05 13.95 -.05 15.65 -.05 15.65 1.95L15.65 6.75 17.95 6.75 17.95 1.5Q17.95 -.35 17.1 -1.35M5.8 -1.05Q4.45 -2.3 2.55 -2.3 .55 -2.3 -.75 -1.05 -2.1 .25 -2.1 2.3 -2.1 4.35 -.75 5.65 .6 6.9 2.55 6.9 4.45 6.9 5.8 5.65 7.15 4.35 7.15 2.3 7.15 .25 5.8 -1.05M4.15 4Q3.5 4.65 2.55 4.65 1.55 4.65 .9 4 .2 3.35 .2 2.3 .2 1.25 .9 .6 1.55 -.05 2.55 -.05 3.5 -.05 4.15 .6 4.85 1.25 4.85 2.3 4.85 3.35 4.15 4Z"/></g></g><g id="Peer2" transform="matrix(.75 0 0 .75 649.9 250.4)"><path fill="#E40E6B" stroke="none" d="M35.35 -35.35Q20.7 -50 0 -50 -20.7 -50 -35.35 -35.35 -50 -20.7 -50 0 -50 20.7 -35.35 35.35 -20.7 50 0 50 20.7 50 35.35 35.35 50 20.7 50 0 50 -20.7 35.35 -35.35Z"/><path fill="#FFF" stroke="none" d="M-12.9 -1.3Q-10.55 -2.2 -10.55 -4.8 -10.55 -7.05 -11.95 -8.35 -13.35 -9.65 -15.7 -9.65L-22.7 -9.65 -22.7 8.25 -15.15 8.25Q-12.65 8.25 -11.1 6.7 -9.6 5.1 -9.6 2.85 -9.6 1.55 -10.45 .3 -11.35 -.95 -12.9 -1.3M-19.4 -6.7L-16.05 -6.7Q-14 -6.7 -14 -4.6 -14 -3.65 -14.55 -3.05 -15.05 -2.45 -15.9 -2.45L-19.4 -2.45 -19.4 -6.7M-13.7 1.1Q-13.05 1.8 -13.05 2.8 -13.05 3.85 -13.7 4.55 -14.3 5.3 -15.35 5.3L-19.4 5.3 -19.4 .3 -15.4 .3Q-14.35 .3 -13.7 1.1M4.35 6.7Q6.15 4.95 6.15 2.15 6.15 -.65 4.35 -2.4 2.5 -4.15 -.15 -4.15 -2.8 -4.15 -4.65 -2.4 -6.45 -.65 -6.45 2.15 -6.45 4.95 -4.65 6.7 -2.8 8.5 -.15 8.5 2.5 8.5 4.35 6.7M3 2.15Q3 3.6 2.1 4.5 1.2 5.4 -.15 5.4 -1.5 5.4 -2.4 4.5 -3.3 3.6 -3.3 2.15 -3.3 .75 -2.4 -.15 -1.5 -1.05 -.15 -1.05 1.2 -1.05 2.1 -.15 3 .75 3 2.15M21.15 -2.4Q19.4 -4.15 16.95 -4.15 15.7 -4.15 14.65 -3.65 13.65 -3.15 13.15 -2.25L13.15 -10.5 10 -10.5 10 8.25 13.15 8.25 13.15 6.6Q13.65 7.5 14.7 8 15.7 8.5 16.95 8.5 19.45 8.5 21.15 6.75 22.9 5.05 22.9 2.2 22.9 -.65 21.15 -2.4M14.2 -.25Q15.15 -1.15 16.45 -1.15 17.8 -1.15 18.7 -.25 19.65 .7 19.65 2.15 19.65 3.6 18.7 4.55 17.8 5.45 16.45 5.45 15.1 5.45 14.15 4.55 13.2 3.6 13.2 2.15 13.2 .65 14.2 -.25Z"/></g><g id="Peer3" transform="matrix(.75 0 0 .75 349.85 250.4)"><path fill="#1559D9" stroke="none" d="M35.35 -35.35Q20.7 -50 0 -50 -20.7 -50 -35.35 -35.35 -50 -20.7 -50 0 -50 20.7 -35.35 35.35 -20.7 50 0 50 20.7 50 35.35 35.35 50 20.7 50 0 50 -20.7 35.35 -35.35Z"/><path fill="#FFF" stroke="none" d="M-8.7 -10.5L-11.85 -10.5 -11.85 8.25 -8.7 8.25 -8.7 -10.5M-.95 -3.9L-4.1 -3.9 -4.1 8.25 -.95 8.25 -.95 -3.9M-2.5 -6.7Q-1.7 -6.7 -1.1 -7.25 -.5 -7.8 -.5 -8.6 -.5 -9.4 -1.1 -9.95 -1.7 -10.5 -2.5 -10.5 -3.35 -10.5 -3.95 -9.95 -4.6 -9.4 -4.6 -8.6 -4.6 -7.8 -3.95 -7.25 -3.35 -6.7 -2.5 -6.7M-21.35 -9.65L-24.95 -9.65 -31.65 8.25 -28.1 8.25 -26.45 3.9 -19.8 3.9 -18.15 8.25 -14.65 8.25 -21.35 -9.65M-20.9 1L-25.35 1 -23.15 -5.85 -20.9 1M28.05 -2.4Q26.3 -4.15 23.65 -4.15 21 -4.15 19.15 -2.4 17.35 -.65 17.35 2.15 17.35 4.95 19.15 6.75 21 8.5 23.65 8.5 25.5 8.5 27 7.8 28.55 7 29.3 5.55L26.9 4.3Q26.05 5.85 23.85 5.85 22.5 5.85 21.55 5.15 20.65 4.4 20.5 3.25L29.75 3.25 29.8 2.15Q29.8 -.65 28.05 -2.4M21.5 -.8Q22.4 -1.5 23.65 -1.5 24.85 -1.5 25.7 -.85 26.55 -.15 26.7 1.1L20.45 1.1Q20.65 -.1 21.5 -.8M9.35 -4.15Q6.65 -4.15 4.75 -2.4 2.8 -.6 2.8 2.15 2.8 4.9 4.75 6.7 6.65 8.5 9.35 8.5 12.65 8.5 14.45 6.1L11.9 4.25Q11 5.45 9.35 5.45 8 5.45 7 4.55 5.95 3.55 5.95 2.15 5.95 .7 7 -.2 8 -1.1 9.35 -1.1 11 -1.1 11.9 .1L14.4 -1.8Q12.6 -4.15 9.35 -4.15Z"/></g></g></svg>